Tenali Ramakrishna-Regular.ufo
<glyph name="exclam" format="1">
  <advance width="168"/>
  <unicode hex="0021"/>
  <outline>
	<contour>
	  <point x="116" y="367" type="line"/>
	  <point x="112" y="355"/>
	  <point x="110" y="343"/>
	  <point x="109" y="331" type="curve" smooth="yes"/>
	  <point x="108" y="319"/>
	  <point x="107" y="307"/>
	  <point x="106" y="295" type="curve"/>
	  <point x="101" y="85" type="line"/>
	  <point x="67" y="85" type="line"/>
	  <point x="62" y="295" type="line"/>
	  <point x="62" y="318"/>
	  <point x="59" y="342"/>
	  <point x="52" y="367" type="curve"/>
	</contour>
	<contour>
	  <point x="55" y="11"/>
	  <point x="52" y="18"/>
	  <point x="52" y="27" type="curve" smooth="yes"/>
	  <point x="52" y="36"/>
	  <point x="55" y="44"/>
	  <point x="62" y="50" type="curve"/>
	  <point x="68" y="56"/>
	  <point x="76" y="59"/>
	  <point x="85" y="59" type="curve" smooth="yes"/>
	  <point x="93" y="59"/>
	  <point x="100" y="56"/>
	  <point x="106" y="50" type="curve"/>
	  <point x="113" y="44"/>
	  <point x="116" y="36"/>
	  <point x="116" y="27" type="curve" smooth="yes"/>
	  <point x="116" y="18"/>
	  <point x="113" y="11"/>
	  <point x="106" y="4" type="curve" smooth="yes"/>
	  <point x="100" y="-2"/>
	  <point x="93" y="-5"/>
	  <point x="85" y="-5" type="curve" smooth="yes"/>
	  <point x="75" y="-5"/>
	  <point x="67" y="-2"/>
	  <point x="62" y="4" type="curve"/>
	</contour>
  </outline>
</glyph>
<glyph name="quotedbl" format="1">
  <advance width="221"/>
  <unicode hex="0022"/>
  <outline>
	<contour>
	  <point x="172" y="372" type="line"/>
	  <point x="167" y="350"/>
	  <point x="165" y="317"/>
	  <point x="165" y="272" type="curve"/>
	  <point x="129" y="272" type="line"/>
	  <point x="129" y="317"/>
	  <point x="126" y="350"/>
	  <point x="121" y="372" type="curve"/>
	</contour>
	<contour>
	  <point x="100" y="372" type="line"/>
	  <point x="97" y="360"/>
	  <point x="95" y="346"/>
	  <point x="94" y="329" type="curve" smooth="yes"/>
	  <point x="93" y="312"/>
	  <point x="92" y="293"/>
	  <point x="92" y="272" type="curve"/>
	  <point x="56" y="272" type="line"/>
	  <point x="56" y="317"/>
	  <point x="53" y="350"/>
	  <point x="48" y="372" type="curve"/>
	</contour>
  </outline>
</glyph>
<glyph name="numbersign" format="1">
  <advance width="331"/>
  <unicode hex="0023"/>
  <outline>
	<contour>
	  <point x="138" y="209" type="line"/>
	  <point x="138" y="155" type="line"/>
	  <point x="192" y="155" type="line"/>
	  <point x="192" y="209" type="line"/>
	</contour>
	<contour>
	  <point x="146" y="298" type="line"/>
	  <point x="141" y="279"/>
	  <point x="139" y="259"/>
	  <point x="139" y="239" type="curve"/>
	  <point x="192" y="239" type="line"/>
	  <point x="191" y="259"/>
	  <point x="188" y="279"/>
	  <point x="185" y="299" type="curve"/>
	  <point x="229" y="299" type="line"/>
	  <point x="225" y="278"/>
	  <point x="223" y="258"/>
	  <point x="223" y="239" type="curve"/>
	  <point x="233" y="240"/>
	  <point x="243" y="241"/>
	  <point x="253" y="242" type="curve" smooth="yes"/>
	  <point x="262" y="243"/>
	  <point x="272" y="244"/>
	  <point x="282" y="246" type="curve"/>
	  <point x="282" y="201" type="line"/>
	  <point x="272" y="204"/>
	  <point x="262" y="206"/>
	  <point x="253" y="207" type="curve" smooth="yes"/>
	  <point x="243" y="208"/>
	  <point x="233" y="208"/>
	  <point x="223" y="209" type="curve"/>
	  <point x="223" y="155" type="line"/>
	  <point x="233" y="156"/>
	  <point x="243" y="157"/>
	  <point x="253" y="158" type="curve" smooth="yes"/>
	  <point x="262" y="159"/>
	  <point x="272" y="161"/>
	  <point x="282" y="163" type="curve"/>
	  <point x="282" y="118" type="line"/>
	  <point x="263" y="122"/>
	  <point x="243" y="124"/>
	  <point x="223" y="124" type="curve"/>
	  <point x="223" y="105"/>
	  <point x="225" y="85"/>
	  <point x="229" y="65" type="curve"/>
	  <point x="185" y="65" type="line"/>
	  <point x="189" y="86"/>
	  <point x="191" y="106"/>
	  <point x="192" y="125" type="curve"/>
	  <point x="138" y="125" type="line"/>
	  <point x="139" y="115"/>
	  <point x="140" y="105"/>
	  <point x="141" y="95" type="curve" smooth="yes"/>
	  <point x="142" y="85"/>
	  <point x="143" y="75"/>
	  <point x="146" y="65" type="curve"/>
	  <point x="101" y="65" type="line"/>
	  <point x="103" y="75"/>
	  <point x="105" y="85"/>
	  <point x="106" y="95" type="curve" smooth="yes"/>
	  <point x="107" y="104"/>
	  <point x="107" y="114"/>
	  <point x="108" y="124" type="curve"/>
	  <point x="88" y="124"/>
	  <point x="68" y="122"/>
	  <point x="49" y="118" type="curve"/>
	  <point x="49" y="163" type="line"/>
	  <point x="59" y="161"/>
	  <point x="69" y="159"/>
	  <point x="79" y="158" type="curve" smooth="yes"/>
	  <point x="88" y="157"/>
	  <point x="98" y="156"/>
	  <point x="108" y="155" type="curve"/>
	  <point x="108" y="209" type="line"/>
	  <point x="98" y="208"/>
	  <point x="88" y="208"/>
	  <point x="78" y="207" type="curve" smooth="yes"/>
	  <point x="68" y="206"/>
	  <point x="58" y="204"/>
	  <point x="48" y="201" type="curve"/>
	  <point x="48" y="246" type="line"/>
	  <point x="67" y="243"/>
	  <point x="87" y="240"/>
	  <point x="108" y="239" type="curve"/>
	  <point x="107" y="249"/>
	  <point x="107" y="259"/>
	  <point x="106" y="269" type="curve" smooth="yes"/>
	  <point x="105" y="278"/>
	  <point x="103" y="288"/>
	  <point x="101" y="298" type="curve"/>
	</contour>
  </outline>
</glyph>
<glyph name="dollar" format="1">
  <advance width="271"/>
  <unicode hex="0024"/>
  <outline>
	<contour>
	  <point x="149" y="-44" type="line"/>
	  <point x="124" y="-44" type="line"/>
	  <point x="124" y="-4" type="line"/>
	  <point x="123" y="-5"/>
	  <point x="121" y="-5"/>
	  <point x="118" y="-5" type="curve" smooth="yes"/>
	  <point x="84" y="-5"/>
	  <point x="54" y="7"/>
	  <point x="29" y="31" type="curve"/>
	  <point x="29" y="94" type="line"/>
	  <point x="32" y="94" type="line"/>
	  <point x="39" y="80"/>
	  <point x="46" y="68"/>
	  <point x="55" y="59" type="curve"/>
	  <point x="74" y="37"/>
	  <point x="96" y="26"/>
	  <point x="121" y="26" type="curve" smooth="yes"/>
	  <point x="124" y="26" type="line"/>
	  <point x="124" y="187" type="line"/>
	  <point x="106" y="197" type="line" smooth="yes"/>
	  <point x="67" y="219"/>
	  <point x="47" y="250"/>
	  <point x="47" y="289" type="curve" smooth="yes"/>
	  <point x="47" y="316"/>
	  <point x="59" y="338"/>
	  <point x="84" y="356" type="curve"/>
	  <point x="95" y="363"/>
	  <point x="109" y="368"/>
	  <point x="124" y="371" type="curve"/>
	  <point x="124" y="411" type="line"/>
	  <point x="149" y="411" type="line"/>
	  <point x="149" y="372" type="line"/>
	  <point x="169" y="372"/>
	  <point x="187" y="364"/>
	  <point x="204" y="349" type="curve"/>
	  <point x="204" y="298" type="line"/>
	  <point x="201" y="298" type="line"/>
	  <point x="200" y="300"/>
	  <point x="199" y="302"/>
	  <point x="198" y="305" type="curve" smooth="yes"/>
	  <point x="197" y="308"/>
	  <point x="195" y="310"/>
	  <point x="194" y="313" type="curve"/>
	  <point x="181" y="332"/>
	  <point x="166" y="341"/>
	  <point x="149" y="342" type="curve"/>
	  <point x="149" y="230" type="line"/>
	  <point x="177" y="215" type="line" smooth="yes"/>
	  <point x="223" y="191"/>
	  <point x="246" y="156"/>
	  <point x="246" y="110" type="curve" smooth="yes"/>
	  <point x="246" y="77"/>
	  <point x="235" y="51"/>
	  <point x="213" y="32" type="curve" smooth="yes"/>
	  <point x="203" y="23"/>
	  <point x="193" y="16"/>
	  <point x="183" y="11" type="curve"/>
	  <point x="172" y="5"/>
	  <point x="161" y="1"/>
	  <point x="149" y="-2" type="curve"/>
	</contour>
	<contour>
	  <point x="124" y="340" type="line"/>
	  <point x="119" y="337"/>
	  <point x="114" y="334"/>
	  <point x="109" y="330" type="curve" smooth="yes"/>
	  <point x="97" y="320"/>
	  <point x="91" y="307"/>
	  <point x="91" y="291" type="curve" smooth="yes"/>
	  <point x="91" y="273"/>
	  <point x="102" y="257"/>
	  <point x="124" y="243" type="curve"/>
	</contour>
	<contour>
	  <point x="149" y="174" type="line"/>
	  <point x="149" y="30" type="line"/>
	  <point x="162" y="34"/>
	  <point x="172" y="41"/>
	  <point x="181" y="52" type="curve"/>
	  <point x="194" y="66"/>
	  <point x="200" y="83"/>
	  <point x="200" y="104" type="curve" smooth="yes"/>
	  <point x="200" y="132"/>
	  <point x="186" y="153"/>
	  <point x="159" y="168" type="curve" smooth="yes"/>
	</contour>
  </outline>
</glyph>
<glyph name="percent" format="1">
  <advance width="382"/>
  <unicode hex="0025"/>
  <outline>
	<contour>
	  <point x="296" y="39"/>
	  <point x="300" y="52"/>
	  <point x="300" y="69" type="curve" smooth="yes"/>
	  <point x="300" y="85"/>
	  <point x="296" y="97"/>
	  <point x="289" y="105" type="curve"/>
	  <point x="283" y="114"/>
	  <point x="275" y="119"/>
	  <point x="265" y="119" type="curve" smooth="yes"/>
	  <point x="255" y="119"/>
	  <point x="247" y="114"/>
	  <point x="240" y="105" type="curve" smooth="yes"/>
	  <point x="233" y="96"/>
	  <point x="229" y="84"/>
	  <point x="229" y="69" type="curve" smooth="yes"/>
	  <point x="229" y="53"/>
	  <point x="233" y="40"/>
	  <point x="240" y="31" type="curve" smooth="yes"/>
	  <point x="247" y="22"/>
	  <point x="255" y="17"/>
	  <point x="265" y="17" type="curve" smooth="yes"/>
	  <point x="275" y="17"/>
	  <point x="283" y="22"/>
	  <point x="289" y="31" type="curve"/>
	</contour>
	<contour>
	  <point x="328" y="103"/>
	  <point x="334" y="87"/>
	  <point x="334" y="69" type="curve" smooth="yes"/>
	  <point x="334" y="49"/>
	  <point x="328" y="32"/>
	  <point x="315" y="18" type="curve" smooth="yes"/>
	  <point x="302" y="3"/>
	  <point x="285" y="-5"/>
	  <point x="265" y="-5" type="curve" smooth="yes"/>
	  <point x="243" y="-5"/>
	  <point x="226" y="3"/>
	  <point x="214" y="18" type="curve"/>
	  <point x="202" y="31"/>
	  <point x="196" y="48"/>
	  <point x="196" y="69" type="curve" smooth="yes"/>
	  <point x="196" y="89"/>
	  <point x="202" y="105"/>
	  <point x="214" y="118" type="curve" smooth="yes"/>
	  <point x="227" y="133"/>
	  <point x="244" y="141"/>
	  <point x="265" y="141" type="curve" smooth="yes"/>
	  <point x="286" y="141"/>
	  <point x="302" y="133"/>
	  <point x="315" y="118" type="curve" smooth="yes"/>
	</contour>
	<contour>
	  <point x="149" y="271"/>
	  <point x="153" y="284"/>
	  <point x="153" y="299" type="curve" smooth="yes"/>
	  <point x="153" y="314"/>
	  <point x="149" y="327"/>
	  <point x="142" y="336" type="curve"/>
	  <point x="136" y="345"/>
	  <point x="128" y="349"/>
	  <point x="118" y="349" type="curve" smooth="yes"/>
	  <point x="108" y="349"/>
	  <point x="100" y="345"/>
	  <point x="93" y="336" type="curve"/>
	  <point x="86" y="329"/>
	  <point x="82" y="316"/>
	  <point x="82" y="299" type="curve" smooth="yes"/>
	  <point x="82" y="282"/>
	  <point x="86" y="270"/>
	  <point x="93" y="262" type="curve"/>
	  <point x="100" y="253"/>
	  <point x="108" y="249"/>
	  <point x="118" y="249" type="curve" smooth="yes"/>
	  <point x="128" y="249"/>
	  <point x="136" y="253"/>
	  <point x="142" y="262" type="curve"/>
	</contour>
	<contour>
	  <point x="180" y="336"/>
	  <point x="186" y="320"/>
	  <point x="186" y="299" type="curve" smooth="yes"/>
	  <point x="186" y="280"/>
	  <point x="180" y="263"/>
	  <point x="168" y="249" type="curve" smooth="yes"/>
	  <point x="155" y="234"/>
	  <point x="139" y="226"/>
	  <point x="118" y="226" type="curve" smooth="yes"/>
	  <point x="97" y="226"/>
	  <point x="79" y="234"/>
	  <point x="66" y="249" type="curve"/>
	  <point x="54" y="264"/>
	  <point x="48" y="281"/>
	  <point x="48" y="299" type="curve" smooth="yes"/>
	  <point x="48" y="318"/>
	  <point x="54" y="335"/>
	  <point x="67" y="349" type="curve" smooth="yes"/>
	  <point x="80" y="364"/>
	  <point x="97" y="372"/>
	  <point x="118" y="372" type="curve" smooth="yes"/>
	  <point x="139" y="372"/>
	  <point x="155" y="364"/>
	  <point x="168" y="349" type="curve" smooth="yes"/>
	</contour>
	<contour>
	  <point x="81" y="0" type="line"/>
	  <point x="96" y="19"/>
	  <point x="108" y="40"/>
	  <point x="119" y="63" type="curve" smooth="yes"/>
	  <point x="226" y="298" type="line" smooth="yes"/>
	  <point x="237" y="321"/>
	  <point x="246" y="344"/>
	  <point x="251" y="367" type="curve"/>
	  <point x="304" y="367" type="line"/>
	  <point x="297" y="357"/>
	  <point x="291" y="347"/>
	  <point x="285" y="337" type="curve"/>
	  <point x="278" y="327"/>
	  <point x="273" y="316"/>
	  <point x="268" y="304" type="curve"/>
	  <point x="160" y="70" type="line" smooth="yes"/>
	  <point x="155" y="59"/>
	  <point x="150" y="48"/>
	  <point x="146" y="37" type="curve" smooth="yes"/>
	  <point x="142" y="25"/>
	  <point x="138" y="13"/>
	  <point x="135" y="0" type="curve"/>
	</contour>
  </outline>
</glyph>
<glyph name="ampersand" format="1">
  <advance width="441"/>
  <unicode hex="0026"/>
  <outline>
	<contour>
	  <point x="250" y="129" type="line"/>
	  <point x="215" y="172" type="line"/>
	  <point x="204" y="188"/>
	  <point x="187" y="196"/>
	  <point x="165" y="196" type="curve" smooth="yes"/>
	  <point x="144" y="196"/>
	  <point x="126" y="188"/>
	  <point x="111" y="171" type="curve" smooth="yes"/>
	  <point x="97" y="156"/>
	  <point x="90" y="135"/>
	  <point x="90" y="109" type="curve" smooth="yes"/>
	  <point x="90" y="84"/>
	  <point x="96" y="64"/>
	  <point x="109" y="50" type="curve"/>
	  <point x="121" y="38"/>
	  <point x="135" y="32"/>
	  <point x="151" y="32" type="curve" smooth="yes"/>
	  <point x="166" y="32"/>
	  <point x="180" y="39"/>
	  <point x="191" y="52" type="curve"/>
	</contour>
	<contour>
	  <point x="329" y="0" type="line"/>
	  <point x="322" y="21"/>
	  <point x="310" y="42"/>
	  <point x="295" y="65" type="curve"/>
	  <point x="268" y="103" type="line"/>
	  <point x="237" y="62" type="line" smooth="yes"/>
	  <point x="222" y="43"/>
	  <point x="209" y="23"/>
	  <point x="197" y="0" type="curve"/>
	  <point x="176" y="0" type="line" smooth="yes"/>
	  <point x="129" y="0"/>
	  <point x="95" y="9"/>
	  <point x="76" y="26" type="curve" smooth="yes"/>
	  <point x="49" y="49"/>
	  <point x="36" y="78"/>
	  <point x="36" y="111" type="curve" smooth="yes"/>
	  <point x="36" y="146"/>
	  <point x="48" y="174"/>
	  <point x="73" y="195" type="curve"/>
	  <point x="84" y="205"/>
	  <point x="97" y="213"/>
	  <point x="114" y="219" type="curve"/>
	  <point x="82" y="234"/>
	  <point x="66" y="258"/>
	  <point x="66" y="291" type="curve" smooth="yes"/>
	  <point x="66" y="318"/>
	  <point x="78" y="340"/>
	  <point x="103" y="357" type="curve" smooth="yes"/>
	  <point x="118" y="367"/>
	  <point x="139" y="372"/>
	  <point x="165" y="372" type="curve" smooth="yes"/>
	  <point x="187" y="372"/>
	  <point x="207" y="364"/>
	  <point x="224" y="349" type="curve"/>
	  <point x="224" y="298" type="line"/>
	  <point x="221" y="298" type="line"/>
	  <point x="220" y="300"/>
	  <point x="218" y="302"/>
	  <point x="217" y="305" type="curve" smooth="yes"/>
	  <point x="216" y="308"/>
	  <point x="214" y="310"/>
	  <point x="213" y="313" type="curve"/>
	  <point x="200" y="332"/>
	  <point x="184" y="342"/>
	  <point x="165" y="342" type="curve" smooth="yes"/>
	  <point x="148" y="342"/>
	  <point x="135" y="338"/>
	  <point x="127" y="330" type="curve"/>
	  <point x="116" y="320"/>
	  <point x="111" y="307"/>
	  <point x="111" y="291" type="curve" smooth="yes"/>
	  <point x="111" y="260"/>
	  <point x="129" y="239"/>
	  <point x="164" y="226" type="curve"/>
	  <point x="238" y="226" type="line"/>
	  <point x="243" y="216"/>
	  <point x="249" y="206"/>
	  <point x="255" y="197" type="curve"/>
	  <point x="261" y="187"/>
	  <point x="267" y="178"/>
	  <point x="274" y="169" type="curve" smooth="yes"/>
	  <point x="277" y="165" type="line"/>
	  <point x="309" y="206" type="line"/>
	  <point x="316" y="216"/>
	  <point x="323" y="226"/>
	  <point x="330" y="237" type="curve"/>
	  <point x="337" y="247"/>
	  <point x="343" y="257"/>
	  <point x="348" y="268" type="curve"/>
	  <point x="405" y="268" type="line"/>
	  <point x="386" y="251"/>
	  <point x="370" y="233"/>
	  <point x="355" y="214" type="curve" smooth="yes"/>
	  <point x="297" y="139" type="line"/>
	  <point x="357" y="56" type="line" smooth="yes"/>
	  <point x="369" y="39"/>
	  <point x="385" y="20"/>
	  <point x="405" y="0" type="curve"/>
	</contour>
  </outline>
</glyph>
<glyph name="quotesingle" format="1">
  <advance width="148"/>
  <unicode hex="0027"/>
  <outline>
	<contour>
	  <point x="100" y="372" type="line"/>
	  <point x="97" y="360"/>
	  <point x="95" y="346"/>
	  <point x="94" y="329" type="curve" smooth="yes"/>
	  <point x="93" y="312"/>
	  <point x="92" y="293"/>
	  <point x="92" y="272" type="curve"/>
	  <point x="56" y="272" type="line"/>
	  <point x="56" y="317"/>
	  <point x="53" y="350"/>
	  <point x="48" y="372" type="curve"/>
	</contour>
  </outline>
</glyph>
<glyph name="parenleft" format="1">
  <advance width="196"/>
  <unicode hex="0028"/>
  <outline>
	<contour>
	  <point x="160" y="429" type="line"/>
	  <point x="118" y="361"/>
	  <point x="97" y="279"/>
	  <point x="97" y="183" type="curve" smooth="yes"/>
	  <point x="97" y="88"/>
	  <point x="118" y="7"/>
	  <point x="160" y="-61" type="curve"/>
	  <point x="129" y="-61" type="line"/>
	  <point x="75" y="14"/>
	  <point x="48" y="96"/>
	  <point x="48" y="183" type="curve" smooth="yes"/>
	  <point x="48" y="270"/>
	  <point x="75" y="352"/>
	  <point x="129" y="429" type="curve"/>
	</contour>
  </outline>
</glyph>
<glyph name="parenright" format="1">
  <advance width="196"/>
  <unicode hex="0029"/>
  <outline>
	<contour>
	  <point x="67" y="429" type="line"/>
	  <point x="121" y="352"/>
	  <point x="148" y="270"/>
	  <point x="148" y="183" type="curve" smooth="yes"/>
	  <point x="148" y="96"/>
	  <point x="121" y="14"/>
	  <point x="67" y="-61" type="curve"/>
	  <point x="36" y="-61" type="line"/>
	  <point x="78" y="7"/>
	  <point x="99" y="88"/>
	  <point x="99" y="183" type="curve" smooth="yes"/>
	  <point x="99" y="279"/>
	  <point x="78" y="361"/>
	  <point x="36" y="429" type="curve"/>
	</contour>
  </outline>
</glyph>
<glyph name="asterisk" format="1">
  <advance width="295"/>
  <unicode hex="002A"/>
  <outline>
	<contour>
	  <point x="170" y="367" type="line"/>
	  <point x="165" y="343"/>
	  <point x="163" y="318"/>
	  <point x="163" y="292" type="curve"/>
	  <point x="174" y="298"/>
	  <point x="185" y="305"/>
	  <point x="195" y="312" type="curve" smooth="yes"/>
	  <point x="205" y="319"/>
	  <point x="215" y="327"/>
	  <point x="224" y="336" type="curve"/>
	  <point x="246" y="297" type="line"/>
	  <point x="223" y="289"/>
	  <point x="200" y="279"/>
	  <point x="178" y="266" type="curve"/>
	  <point x="189" y="260"/>
	  <point x="201" y="254"/>
	  <point x="212" y="249" type="curve" smooth="yes"/>
	  <point x="223" y="244"/>
	  <point x="234" y="239"/>
	  <point x="246" y="235" type="curve"/>
	  <point x="224" y="196" type="line"/>
	  <point x="205" y="213"/>
	  <point x="184" y="228"/>
	  <point x="163" y="240" type="curve"/>
	  <point x="163" y="227"/>
	  <point x="164" y="215"/>
	  <point x="165" y="202" type="curve" smooth="yes"/>
	  <point x="166" y="189"/>
	  <point x="167" y="177"/>
	  <point x="170" y="165" type="curve"/>
	  <point x="125" y="165" type="line"/>
	  <point x="128" y="177"/>
	  <point x="130" y="189"/>
	  <point x="131" y="202" type="curve" smooth="yes"/>
	  <point x="132" y="215"/>
	  <point x="133" y="227"/>
	  <point x="133" y="240" type="curve"/>
	  <point x="111" y="229"/>
	  <point x="90" y="215"/>
	  <point x="71" y="196" type="curve"/>
	  <point x="48" y="235" type="line"/>
	  <point x="60" y="239"/>
	  <point x="72" y="244"/>
	  <point x="84" y="249" type="curve" smooth="yes"/>
	  <point x="95" y="254"/>
	  <point x="107" y="259"/>
	  <point x="118" y="266" type="curve"/>
	  <point x="107" y="272"/>
	  <point x="95" y="278"/>
	  <point x="84" y="283" type="curve" smooth="yes"/>
	  <point x="72" y="288"/>
	  <point x="60" y="292"/>
	  <point x="48" y="297" type="curve"/>
	  <point x="71" y="336" type="line"/>
	  <point x="88" y="321"/>
	  <point x="108" y="306"/>
	  <point x="133" y="292" type="curve"/>
	  <point x="133" y="305"/>
	  <point x="132" y="317"/>
	  <point x="131" y="330" type="curve" smooth="yes"/>
	  <point x="130" y="342"/>
	  <point x="128" y="354"/>
	  <point x="125" y="367" type="curve"/>
	</contour>
  </outline>
</glyph>
<glyph name="plus" format="1">
  <advance width="300"/>
  <unicode hex="002B"/>
  <outline>
	<contour>
	  <point x="176" y="283" type="line"/>
	  <point x="171" y="258"/>
	  <point x="169" y="233"/>
	  <point x="169" y="210" type="curve" smooth="yes"/>
	  <point x="169" y="200" type="line"/>
	  <point x="178" y="200" type="line" smooth="yes"/>
	  <point x="202" y="200"/>
	  <point x="227" y="202"/>
	  <point x="252" y="207" type="curve"/>
	  <point x="252" y="155" type="line"/>
	  <point x="240" y="158"/>
	  <point x="228" y="160"/>
	  <point x="215" y="161" type="curve" smooth="yes"/>
	  <point x="202" y="162"/>
	  <point x="190" y="163"/>
	  <point x="178" y="163" type="curve" smooth="yes"/>
	  <point x="169" y="163" type="line"/>
	  <point x="169" y="153" type="line" smooth="yes"/>
	  <point x="169" y="128"/>
	  <point x="171" y="104"/>
	  <point x="176" y="79" type="curve"/>
	  <point x="124" y="79" type="line"/>
	  <point x="126" y="91"/>
	  <point x="128" y="103"/>
	  <point x="130" y="116" type="curve"/>
	  <point x="131" y="129"/>
	  <point x="132" y="141"/>
	  <point x="132" y="153" type="curve" smooth="yes"/>
	  <point x="132" y="163" type="line"/>
	  <point x="122" y="163" type="line" smooth="yes"/>
	  <point x="110" y="163"/>
	  <point x="98" y="162"/>
	  <point x="85" y="161" type="curve" smooth="yes"/>
	  <point x="72" y="160"/>
	  <point x="60" y="158"/>
	  <point x="48" y="155" type="curve"/>
	  <point x="48" y="207" type="line"/>
	  <point x="73" y="202"/>
	  <point x="97" y="200"/>
	  <point x="122" y="200" type="curve" smooth="yes"/>
	  <point x="132" y="200" type="line"/>
	  <point x="132" y="210" type="line" smooth="yes"/>
	  <point x="132" y="222"/>
	  <point x="131" y="234"/>
	  <point x="130" y="247" type="curve"/>
	  <point x="128" y="259"/>
	  <point x="126" y="271"/>
	  <point x="124" y="283" type="curve"/>
	</contour>
  </outline>
</glyph>
<glyph name="comma" format="1">
  <advance width="165"/>
  <unicode hex="002C"/>
  <outline>
	<contour>
	  <point x="87" y="69" type="line"/>
	  <point x="107" y="51"/>
	  <point x="117" y="32"/>
	  <point x="117" y="11" type="curve" smooth="yes"/>
	  <point x="117" y="-25"/>
	  <point x="94" y="-52"/>
	  <point x="48" y="-71" type="curve"/>
	  <point x="48" y="-69" type="line"/>
	  <point x="66" y="-50"/>
	  <point x="75" y="-29"/>
	  <point x="75" y="-5" type="curve" smooth="yes"/>
	  <point x="75" y="10"/>
	  <point x="67" y="23"/>
	  <point x="52" y="34" type="curve"/>
	</contour>
  </outline>
</glyph>
<glyph name="hyphen" format="1">
  <advance width="300"/>
  <unicode hex="002D"/>
  <outline>
	<contour>
	  <point x="48" y="207" type="line"/>
	  <point x="73" y="202"/>
	  <point x="97" y="200"/>
	  <point x="122" y="200" type="curve" smooth="yes"/>
	  <point x="178" y="200" type="line" smooth="yes"/>
	  <point x="202" y="200"/>
	  <point x="227" y="202"/>
	  <point x="252" y="207" type="curve"/>
	  <point x="252" y="155" type="line"/>
	  <point x="240" y="158"/>
	  <point x="228" y="160"/>
	  <point x="215" y="161" type="curve" smooth="yes"/>
	  <point x="202" y="162"/>
	  <point x="190" y="163"/>
	  <point x="178" y="163" type="curve" smooth="yes"/>
	  <point x="122" y="163" type="line" smooth="yes"/>
	  <point x="110" y="163"/>
	  <point x="98" y="162"/>
	  <point x="85" y="161" type="curve" smooth="yes"/>
	  <point x="72" y="160"/>
	  <point x="60" y="158"/>
	  <point x="48" y="155" type="curve"/>
	</contour>
  </outline>
</glyph>
<glyph name="period" format="1">
  <advance width="161"/>
  <unicode hex="002E"/>
  <outline>
	<contour>
	  <point x="51" y="11"/>
	  <point x="48" y="18"/>
	  <point x="48" y="27" type="curve" smooth="yes"/>
	  <point x="48" y="36"/>
	  <point x="51" y="44"/>
	  <point x="58" y="50" type="curve" smooth="yes"/>
	  <point x="65" y="56"/>
	  <point x="73" y="59"/>
	  <point x="80" y="59" type="curve" smooth="yes"/>
	  <point x="88" y="59"/>
	  <point x="96" y="56"/>
	  <point x="103" y="50" type="curve"/>
	  <point x="108" y="43"/>
	  <point x="111" y="36"/>
	  <point x="111" y="27" type="curve" smooth="yes"/>
	  <point x="111" y="18"/>
	  <point x="108" y="10"/>
	  <point x="103" y="4" type="curve"/>
	  <point x="96" y="-2"/>
	  <point x="89" y="-5"/>
	  <point x="80" y="-5" type="curve" smooth="yes"/>
	  <point x="71" y="-5"/>
	  <point x="64" y="-2"/>
	  <point x="58" y="4" type="curve" smooth="yes"/>
	</contour>
  </outline>
</glyph>
<glyph name="slash" format="1">
  <advance width="274"/>
  <unicode hex="002F"/>
  <outline>
	<contour>
	  <point x="2" y="-44" type="line"/>
	  <point x="19" y="-21"/>
	  <point x="31" y="0"/>
	  <point x="40" y="19" type="curve" smooth="yes"/>
	  <point x="189" y="342" type="line" smooth="yes"/>
	  <point x="194" y="353"/>
	  <point x="198" y="365"/>
	  <point x="202" y="376" type="curve" smooth="yes"/>
	  <point x="206" y="387"/>
	  <point x="209" y="399"/>
	  <point x="212" y="411" type="curve"/>
	  <point x="271" y="411" type="line"/>
	  <point x="258" y="391"/>
	  <point x="245" y="370"/>
	  <point x="234" y="348" type="curve" smooth="yes"/>
	  <point x="86" y="26" type="line" smooth="yes"/>
	  <point x="81" y="16"/>
	  <point x="76" y="5"/>
	  <point x="72" y="-7" type="curve" smooth="yes"/>
	  <point x="68" y="-19"/>
	  <point x="64" y="-31"/>
	  <point x="61" y="-44" type="curve"/>
	</contour>
  </outline>
</glyph>
<glyph name="zero" format="1">
  <advance width="342"/>
  <unicode hex="0030"/>
  <outline>
	<contour>
	  <point x="51" y="72"/>
	  <point x="36" y="120"/>
	  <point x="36" y="183" type="curve" smooth="yes"/>
	  <point x="36" y="247"/>
	  <point x="51" y="296"/>
	  <point x="80" y="329" type="curve" smooth="yes"/>
	  <point x="105" y="358"/>
	  <point x="135" y="372"/>
	  <point x="170" y="372" type="curve" smooth="yes"/>
	  <point x="207" y="372"/>
	  <point x="237" y="358"/>
	  <point x="261" y="329" type="curve" smooth="yes"/>
	  <point x="290" y="296"/>
	  <point x="305" y="247"/>
	  <point x="305" y="183" type="curve" smooth="yes"/>
	  <point x="305" y="120"/>
	  <point x="290" y="72"/>
	  <point x="261" y="39" type="curve" smooth="yes"/>
	  <point x="236" y="10"/>
	  <point x="206" y="-5"/>
	  <point x="170" y="-5" type="curve" smooth="yes"/>
	  <point x="135" y="-5"/>
	  <point x="105" y="10"/>
	  <point x="80" y="39" type="curve" smooth="yes"/>
	</contour>
	<contour>
	  <point x="90" y="128"/>
	  <point x="98" y="88"/>
	  <point x="114" y="63" type="curve" smooth="yes"/>
	  <point x="130" y="38"/>
	  <point x="149" y="26"/>
	  <point x="170" y="26" type="curve" smooth="yes"/>
	  <point x="194" y="26"/>
	  <point x="213" y="38"/>
	  <point x="228" y="63" type="curve" smooth="yes"/>
	  <point x="244" y="88"/>
	  <point x="252" y="128"/>
	  <point x="252" y="183" type="curve" smooth="yes"/>
	  <point x="252" y="238"/>
	  <point x="244" y="278"/>
	  <point x="228" y="303" type="curve" smooth="yes"/>
	  <point x="212" y="329"/>
	  <point x="193" y="342"/>
	  <point x="170" y="342" type="curve" smooth="yes"/>
	  <point x="147" y="342"/>
	  <point x="129" y="329"/>
	  <point x="114" y="303" type="curve"/>
	  <point x="98" y="279"/>
	  <point x="90" y="239"/>
	  <point x="90" y="183" type="curve" smooth="yes"/>
	</contour>
  </outline>
</glyph>
<glyph name="one" format="1">
  <advance width="185"/>
  <unicode hex="0031"/>
  <outline>
	<contour>
	  <point x="69" y="0" type="line"/>
	  <point x="74" y="23"/>
	  <point x="76" y="47"/>
	  <point x="76" y="73" type="curve" smooth="yes"/>
	  <point x="76" y="287" type="line" smooth="yes"/>
	  <point x="76" y="294"/>
	  <point x="76" y="300"/>
	  <point x="76" y="307" type="curve"/>
	  <point x="75" y="313"/>
	  <point x="75" y="319"/>
	  <point x="74" y="325" type="curve"/>
	  <point x="21" y="273" type="line"/>
	  <point x="2" y="296" type="line"/>
	  <point x="69" y="360" type="line"/>
	  <point x="132" y="372" type="line"/>
	  <point x="130" y="358"/>
	  <point x="128" y="345"/>
	  <point x="127" y="333" type="curve"/>
	  <point x="125" y="321"/>
	  <point x="124" y="310"/>
	  <point x="124" y="299" type="curve" smooth="yes"/>
	  <point x="124" y="73" type="line" smooth="yes"/>
	  <point x="124" y="61"/>
	  <point x="125" y="49"/>
	  <point x="127" y="37" type="curve"/>
	  <point x="128" y="24"/>
	  <point x="130" y="12"/>
	  <point x="132" y="0" type="curve"/>
	</contour>
  </outline>
</glyph>
<glyph name="two" format="1">
  <advance width="304"/>
  <unicode hex="0032"/>
  <outline>
	<contour>
	  <point x="29" y="0" type="line"/>
	  <point x="38" y="56"/>
	  <point x="79" y="113"/>
	  <point x="154" y="171" type="curve" smooth="yes"/>
	  <point x="191" y="199"/>
	  <point x="209" y="229"/>
	  <point x="209" y="262" type="curve" smooth="yes"/>
	  <point x="209" y="285"/>
	  <point x="203" y="303"/>
	  <point x="191" y="317" type="curve" smooth="yes"/>
	  <point x="176" y="334"/>
	  <point x="157" y="342"/>
	  <point x="135" y="342" type="curve" smooth="yes"/>
	  <point x="114" y="342"/>
	  <point x="93" y="331"/>
	  <point x="74" y="309" type="curve" smooth="yes"/>
	  <point x="65" y="299"/>
	  <point x="57" y="287"/>
	  <point x="50" y="273" type="curve"/>
	  <point x="48" y="273" type="line"/>
	  <point x="48" y="336" type="line"/>
	  <point x="73" y="360"/>
	  <point x="103" y="372"/>
	  <point x="138" y="372" type="curve" smooth="yes"/>
	  <point x="174" y="372"/>
	  <point x="202" y="363"/>
	  <point x="223" y="344" type="curve" smooth="yes"/>
	  <point x="249" y="322"/>
	  <point x="262" y="295"/>
	  <point x="262" y="262" type="curve" smooth="yes"/>
	  <point x="262" y="217"/>
	  <point x="232" y="176"/>
	  <point x="171" y="138" type="curve" smooth="yes"/>
	  <point x="123" y="107"/>
	  <point x="92" y="73"/>
	  <point x="78" y="37" type="curve"/>
	  <point x="195" y="37" type="line" smooth="yes"/>
	  <point x="207" y="37"/>
	  <point x="219" y="38"/>
	  <point x="232" y="39" type="curve" smooth="yes"/>
	  <point x="244" y="40"/>
	  <point x="256" y="42"/>
	  <point x="268" y="45" type="curve"/>
	  <point x="268" y="0" type="line"/>
	</contour>
  </outline>
</glyph>
<glyph name="three" format="1">
  <advance width="279"/>
  <unicode hex="0033"/>
  <outline>
	<contour>
	  <point x="25" y="94" type="line"/>
	  <point x="27" y="94" type="line"/>
	  <point x="33" y="80"/>
	  <point x="40" y="68"/>
	  <point x="49" y="59" type="curve"/>
	  <point x="69" y="37"/>
	  <point x="91" y="26"/>
	  <point x="116" y="26" type="curve" smooth="yes"/>
	  <point x="141" y="26"/>
	  <point x="161" y="34"/>
	  <point x="176" y="50" type="curve"/>
	  <point x="189" y="65"/>
	  <point x="195" y="85"/>
	  <point x="195" y="109" type="curve" smooth="yes"/>
	  <point x="195" y="136"/>
	  <point x="188" y="156"/>
	  <point x="174" y="170" type="curve" smooth="yes"/>
	  <point x="157" y="186"/>
	  <point x="134" y="194"/>
	  <point x="105" y="194" type="curve"/>
	  <point x="92" y="211" type="line"/>
	  <point x="180" y="337" type="line"/>
	  <point x="120" y="337" type="line" smooth="yes"/>
	  <point x="108" y="337"/>
	  <point x="96" y="336"/>
	  <point x="84" y="335" type="curve" smooth="yes"/>
	  <point x="71" y="334"/>
	  <point x="59" y="332"/>
	  <point x="47" y="330" type="curve"/>
	  <point x="47" y="367" type="line"/>
	  <point x="226" y="367" type="line"/>
	  <point x="231" y="337" type="line"/>
	  <point x="215" y="321"/>
	  <point x="199" y="302"/>
	  <point x="183" y="280" type="curve" smooth="yes"/>
	  <point x="142" y="220" type="line"/>
	  <point x="168" y="220"/>
	  <point x="191" y="212"/>
	  <point x="212" y="195" type="curve" smooth="yes"/>
	  <point x="237" y="176"/>
	  <point x="249" y="148"/>
	  <point x="249" y="111" type="curve" smooth="yes"/>
	  <point x="249" y="78"/>
	  <point x="236" y="49"/>
	  <point x="210" y="26" type="curve" smooth="yes"/>
	  <point x="187" y="5"/>
	  <point x="155" y="-5"/>
	  <point x="114" y="-5" type="curve" smooth="yes"/>
	  <point x="79" y="-5"/>
	  <point x="49" y="7"/>
	  <point x="25" y="31" type="curve"/>
	</contour>
  </outline>
</glyph>
<glyph name="four" format="1">
  <advance width="303"/>
  <unicode hex="0034"/>
  <outline>
	<contour>
	  <point x="182" y="0" type="line"/>
	  <point x="185" y="13"/>
	  <point x="187" y="26"/>
	  <point x="188" y="39" type="curve" smooth="yes"/>
	  <point x="189" y="51"/>
	  <point x="190" y="62"/>
	  <point x="190" y="73" type="curve" smooth="yes"/>
	  <point x="190" y="88" type="line"/>
	  <point x="15" y="88" type="line"/>
	  <point x="5" y="118" type="line"/>
	  <point x="20" y="133"/>
	  <point x="36" y="151"/>
	  <point x="51" y="172" type="curve" smooth="yes"/>
	  <point x="147" y="303" type="line" smooth="yes"/>
	  <point x="162" y="323"/>
	  <point x="173" y="344"/>
	  <point x="182" y="367" type="curve"/>
	  <point x="245" y="367" type="line"/>
	  <point x="243" y="355"/>
	  <point x="241" y="343"/>
	  <point x="240" y="331" type="curve" smooth="yes"/>
	  <point x="239" y="319"/>
	  <point x="238" y="307"/>
	  <point x="238" y="295" type="curve" smooth="yes"/>
	  <point x="238" y="119" type="line"/>
	  <point x="244" y="120"/>
	  <point x="250" y="121"/>
	  <point x="257" y="122" type="curve" smooth="yes"/>
	  <point x="263" y="123"/>
	  <point x="269" y="124"/>
	  <point x="274" y="125" type="curve"/>
	  <point x="274" y="88" type="line"/>
	  <point x="238" y="88" type="line"/>
	  <point x="238" y="73" type="line" smooth="yes"/>
	  <point x="238" y="61"/>
	  <point x="239" y="49"/>
	  <point x="240" y="37" type="curve" smooth="yes"/>
	  <point x="241" y="24"/>
	  <point x="243" y="12"/>
	  <point x="245" y="0" type="curve"/>
	</contour>
	<contour>
	  <point x="190" y="118" type="line"/>
	  <point x="190" y="314" type="line"/>
	  <point x="48" y="118" type="line"/>
	</contour>
  </outline>
</glyph>
<glyph name="five" format="1">
  <advance width="279"/>
  <unicode hex="0035"/>
  <outline>
	<contour>
	  <point x="25" y="94" type="line"/>
	  <point x="27" y="94" type="line"/>
	  <point x="33" y="80"/>
	  <point x="40" y="68"/>
	  <point x="49" y="59" type="curve"/>
	  <point x="69" y="37"/>
	  <point x="91" y="26"/>
	  <point x="116" y="26" type="curve" smooth="yes"/>
	  <point x="141" y="26"/>
	  <point x="161" y="34"/>
	  <point x="176" y="50" type="curve" smooth="yes"/>
	  <point x="189" y="64"/>
	  <point x="195" y="84"/>
	  <point x="195" y="109" type="curve" smooth="yes"/>
	  <point x="195" y="137"/>
	  <point x="188" y="158"/>
	  <point x="175" y="171" type="curve" smooth="yes"/>
	  <point x="158" y="188"/>
	  <point x="138" y="196"/>
	  <point x="114" y="196" type="curve" smooth="yes"/>
	  <point x="102" y="196"/>
	  <point x="91" y="194"/>
	  <point x="81" y="189" type="curve"/>
	  <point x="44" y="220" type="line"/>
	  <point x="66" y="367" type="line"/>
	  <point x="222" y="367" type="line"/>
	  <point x="222" y="330" type="line"/>
	  <point x="211" y="332"/>
	  <point x="199" y="334"/>
	  <point x="187" y="335" type="curve" smooth="yes"/>
	  <point x="175" y="336"/>
	  <point x="162" y="337"/>
	  <point x="149" y="337" type="curve" smooth="yes"/>
	  <point x="96" y="337" type="line"/>
	  <point x="91" y="223" type="line"/>
	  <point x="102" y="225"/>
	  <point x="112" y="226"/>
	  <point x="121" y="226" type="curve" smooth="yes"/>
	  <point x="158" y="226"/>
	  <point x="188" y="216"/>
	  <point x="212" y="195" type="curve" smooth="yes"/>
	  <point x="237" y="174"/>
	  <point x="249" y="146"/>
	  <point x="249" y="111" type="curve" smooth="yes"/>
	  <point x="249" y="78"/>
	  <point x="236" y="49"/>
	  <point x="210" y="26" type="curve" smooth="yes"/>
	  <point x="187" y="5"/>
	  <point x="155" y="-5"/>
	  <point x="114" y="-5" type="curve" smooth="yes"/>
	  <point x="79" y="-5"/>
	  <point x="49" y="7"/>
	  <point x="25" y="31" type="curve"/>
	</contour>
  </outline>
</glyph>
<glyph name="six" format="1">
  <advance width="328"/>
  <unicode hex="0036"/>
  <outline>
	<contour>
	  <point x="193" y="26"/>
	  <point x="211" y="36"/>
	  <point x="224" y="55" type="curve" smooth="yes"/>
	  <point x="235" y="71"/>
	  <point x="241" y="93"/>
	  <point x="241" y="122" type="curve" smooth="yes"/>
	  <point x="241" y="151"/>
	  <point x="235" y="173"/>
	  <point x="224" y="189" type="curve"/>
	  <point x="209" y="208"/>
	  <point x="191" y="217"/>
	  <point x="170" y="217" type="curve" smooth="yes"/>
	  <point x="147" y="217"/>
	  <point x="128" y="208"/>
	  <point x="115" y="189" type="curve" smooth="yes"/>
	  <point x="102" y="170"/>
	  <point x="95" y="148"/>
	  <point x="95" y="122" type="curve" smooth="yes"/>
	  <point x="95" y="94"/>
	  <point x="102" y="72"/>
	  <point x="115" y="55" type="curve" smooth="yes"/>
	  <point x="130" y="36"/>
	  <point x="148" y="26"/>
	  <point x="169" y="26" type="curve" smooth="yes"/>
	</contour>
	<contour>
	  <point x="262" y="279" type="line"/>
	  <point x="259" y="279" type="line"/>
	  <point x="238" y="321"/>
	  <point x="214" y="342"/>
	  <point x="185" y="342" type="curve" smooth="yes"/>
	  <point x="159" y="342"/>
	  <point x="137" y="330"/>
	  <point x="119" y="307" type="curve" smooth="yes"/>
	  <point x="100" y="282"/>
	  <point x="90" y="249"/>
	  <point x="90" y="208" type="curve"/>
	  <point x="113" y="235"/>
	  <point x="139" y="249"/>
	  <point x="170" y="249" type="curve" smooth="yes"/>
	  <point x="207" y="249"/>
	  <point x="237" y="236"/>
	  <point x="260" y="209" type="curve" smooth="yes"/>
	  <point x="281" y="184"/>
	  <point x="291" y="155"/>
	  <point x="291" y="122" type="curve" smooth="yes"/>
	  <point x="291" y="88"/>
	  <point x="280" y="58"/>
	  <point x="258" y="33" type="curve" smooth="yes"/>
	  <point x="237" y="8"/>
	  <point x="207" y="-5"/>
	  <point x="170" y="-5" type="curve" smooth="yes"/>
	  <point x="135" y="-5"/>
	  <point x="105" y="10"/>
	  <point x="80" y="39" type="curve" smooth="yes"/>
	  <point x="51" y="72"/>
	  <point x="36" y="120"/>
	  <point x="36" y="183" type="curve" smooth="yes"/>
	  <point x="36" y="242"/>
	  <point x="52" y="291"/>
	  <point x="84" y="328" type="curve" smooth="yes"/>
	  <point x="109" y="357"/>
	  <point x="142" y="372"/>
	  <point x="183" y="372" type="curve" smooth="yes"/>
	  <point x="217" y="372"/>
	  <point x="243" y="362"/>
	  <point x="262" y="342" type="curve"/>
	</contour>
  </outline>
</glyph>
<glyph name="seven" format="1">
  <advance width="249"/>
  <unicode hex="0037"/>
  <outline>
	<contour>
	  <point x="59" y="0" type="line"/>
	  <point x="64" y="12"/>
	  <point x="69" y="24"/>
	  <point x="74" y="35" type="curve" smooth="yes"/>
	  <point x="79" y="46"/>
	  <point x="83" y="57"/>
	  <point x="87" y="69" type="curve" smooth="yes"/>
	  <point x="174" y="337" type="line"/>
	  <point x="85" y="337" type="line" smooth="yes"/>
	  <point x="72" y="337"/>
	  <point x="60" y="336"/>
	  <point x="49" y="335" type="curve" smooth="yes"/>
	  <point x="37" y="334"/>
	  <point x="25" y="332"/>
	  <point x="12" y="330" type="curve"/>
	  <point x="12" y="367" type="line"/>
	  <point x="222" y="367" type="line"/>
	  <point x="227" y="337" type="line"/>
	  <point x="222" y="326"/>
	  <point x="217" y="315"/>
	  <point x="213" y="304" type="curve"/>
	  <point x="208" y="293"/>
	  <point x="204" y="281"/>
	  <point x="199" y="269" type="curve"/>
	  <point x="136" y="72" type="line" smooth="yes"/>
	  <point x="133" y="62"/>
	  <point x="130" y="51"/>
	  <point x="128" y="39" type="curve"/>
	  <point x="125" y="26"/>
	  <point x="124" y="13"/>
	  <point x="123" y="0" type="curve"/>
	</contour>
  </outline>
</glyph>
<glyph name="eight" format="1">
  <advance width="299"/>
  <unicode hex="0038"/>
  <outline>
	<contour>
	  <point x="167" y="226" type="line"/>
	  <point x="193" y="239"/>
	  <point x="206" y="259"/>
	  <point x="206" y="284" type="curve" smooth="yes"/>
	  <point x="206" y="302"/>
	  <point x="201" y="316"/>
	  <point x="192" y="325" type="curve" smooth="yes"/>
	  <point x="181" y="336"/>
	  <point x="168" y="342"/>
	  <point x="153" y="342" type="curve" smooth="yes"/>
	  <point x="140" y="342"/>
	  <point x="128" y="338"/>
	  <point x="118" y="330" type="curve" smooth="yes"/>
	  <point x="108" y="322"/>
	  <point x="103" y="309"/>
	  <point x="103" y="291" type="curve" smooth="yes"/>
	  <point x="103" y="271"/>
	  <point x="115" y="254"/>
	  <point x="139" y="241" type="curve" smooth="yes"/>
	</contour>
	<contour>
	  <point x="29" y="152"/>
	  <point x="53" y="186"/>
	  <point x="100" y="209" type="curve"/>
	  <point x="72" y="230"/>
	  <point x="58" y="257"/>
	  <point x="58" y="289" type="curve" smooth="yes"/>
	  <point x="58" y="315"/>
	  <point x="70" y="338"/>
	  <point x="94" y="357" type="curve"/>
	  <point x="109" y="367"/>
	  <point x="127" y="372"/>
	  <point x="149" y="372" type="curve" smooth="yes"/>
	  <point x="174" y="372"/>
	  <point x="194" y="365"/>
	  <point x="210" y="351" type="curve" smooth="yes"/>
	  <point x="231" y="333"/>
	  <point x="241" y="311"/>
	  <point x="241" y="284" type="curve" smooth="yes"/>
	  <point x="241" y="252"/>
	  <point x="226" y="227"/>
	  <point x="195" y="210" type="curve"/>
	  <point x="244" y="187"/>
	  <point x="269" y="153"/>
	  <point x="269" y="106" type="curve" smooth="yes"/>
	  <point x="269" y="76"/>
	  <point x="258" y="50"/>
	  <point x="235" y="27" type="curve"/>
	  <point x="212" y="6"/>
	  <point x="183" y="-5"/>
	  <point x="150" y="-5" type="curve" smooth="yes"/>
	  <point x="115" y="-5"/>
	  <point x="86" y="6"/>
	  <point x="64" y="27" type="curve" smooth="yes"/>
	  <point x="41" y="48"/>
	  <point x="29" y="75"/>
	  <point x="29" y="108" type="curve" smooth="yes"/>
	</contour>
	<contour>
	  <point x="132" y="190" type="line"/>
	  <point x="87" y="173"/>
	  <point x="65" y="145"/>
	  <point x="65" y="107" type="curve" smooth="yes"/>
	  <point x="65" y="83"/>
	  <point x="74" y="63"/>
	  <point x="91" y="47" type="curve" smooth="yes"/>
	  <point x="106" y="33"/>
	  <point x="125" y="26"/>
	  <point x="148" y="26" type="curve" smooth="yes"/>
	  <point x="170" y="26"/>
	  <point x="189" y="34"/>
	  <point x="204" y="49" type="curve" smooth="yes"/>
	  <point x="217" y="62"/>
	  <point x="223" y="80"/>
	  <point x="223" y="102" type="curve" smooth="yes"/>
	  <point x="223" y="126"/>
	  <point x="205" y="148"/>
	  <point x="170" y="168" type="curve" smooth="yes"/>
	</contour>
  </outline>
</glyph>
<glyph name="nine" format="1">
  <advance width="328"/>
  <unicode hex="0039"/>
  <outline>
	<contour>
	  <point x="135" y="342"/>
	  <point x="117" y="332"/>
	  <point x="104" y="313" type="curve"/>
	  <point x="93" y="295"/>
	  <point x="87" y="272"/>
	  <point x="87" y="245" type="curve" smooth="yes"/>
	  <point x="87" y="216"/>
	  <point x="93" y="194"/>
	  <point x="104" y="179" type="curve" smooth="yes"/>
	  <point x="118" y="159"/>
	  <point x="136" y="149"/>
	  <point x="157" y="149" type="curve" smooth="yes"/>
	  <point x="180" y="149"/>
	  <point x="199" y="159"/>
	  <point x="213" y="179" type="curve" smooth="yes"/>
	  <point x="226" y="197"/>
	  <point x="232" y="219"/>
	  <point x="232" y="245" type="curve" smooth="yes"/>
	  <point x="232" y="272"/>
	  <point x="226" y="294"/>
	  <point x="213" y="313" type="curve"/>
	  <point x="198" y="332"/>
	  <point x="180" y="342"/>
	  <point x="159" y="342" type="curve" smooth="yes"/>
	</contour>
	<contour>
	  <point x="65" y="89" type="line"/>
	  <point x="69" y="89" type="line"/>
	  <point x="89" y="47"/>
	  <point x="114" y="26"/>
	  <point x="144" y="26" type="curve" smooth="yes"/>
	  <point x="169" y="26"/>
	  <point x="191" y="37"/>
	  <point x="209" y="59" type="curve"/>
	  <point x="228" y="84"/>
	  <point x="238" y="118"/>
	  <point x="238" y="160" type="curve"/>
	  <point x="215" y="133"/>
	  <point x="188" y="119"/>
	  <point x="157" y="119" type="curve" smooth="yes"/>
	  <point x="120" y="119"/>
	  <point x="90" y="132"/>
	  <point x="67" y="159" type="curve" smooth="yes"/>
	  <point x="46" y="183"/>
	  <point x="36" y="212"/>
	  <point x="36" y="245" type="curve" smooth="yes"/>
	  <point x="36" y="280"/>
	  <point x="47" y="309"/>
	  <point x="70" y="334" type="curve"/>
	  <point x="91" y="359"/>
	  <point x="120" y="372"/>
	  <point x="157" y="372" type="curve" smooth="yes"/>
	  <point x="193" y="372"/>
	  <point x="223" y="358"/>
	  <point x="247" y="329" type="curve" smooth="yes"/>
	  <point x="276" y="296"/>
	  <point x="291" y="247"/>
	  <point x="291" y="184" type="curve" smooth="yes"/>
	  <point x="291" y="123"/>
	  <point x="275" y="75"/>
	  <point x="244" y="40" type="curve" smooth="yes"/>
	  <point x="219" y="10"/>
	  <point x="186" y="-5"/>
	  <point x="145" y="-5" type="curve" smooth="yes"/>
	  <point x="111" y="-5"/>
	  <point x="84" y="5"/>
	  <point x="65" y="26" type="curve"/>
	</contour>
  </outline>
</glyph>
<glyph name="colon" format="1">
  <advance width="161"/>
  <unicode hex="003A"/>
  <outline>
	<contour>
	  <point x="52" y="11"/>
	  <point x="49" y="19"/>
	  <point x="49" y="27" type="curve" smooth="yes"/>
	  <point x="49" y="36"/>
	  <point x="52" y="43"/>
	  <point x="58" y="50" type="curve"/>
	  <point x="65" y="56"/>
	  <point x="73" y="59"/>
	  <point x="80" y="59" type="curve" smooth="yes"/>
	  <point x="89" y="59"/>
	  <point x="97" y="56"/>
	  <point x="103" y="50" type="curve" smooth="yes"/>
	  <point x="109" y="44"/>
	  <point x="112" y="36"/>
	  <point x="112" y="27" type="curve" smooth="yes"/>
	  <point x="112" y="18"/>
	  <point x="109" y="11"/>
	  <point x="103" y="4" type="curve"/>
	  <point x="97" y="-2"/>
	  <point x="89" y="-5"/>
	  <point x="80" y="-5" type="curve" smooth="yes"/>
	  <point x="71" y="-5"/>
	  <point x="64" y="-2"/>
	  <point x="58" y="4" type="curve"/>
	</contour>
	<contour>
	  <point x="51" y="167"/>
	  <point x="48" y="174"/>
	  <point x="48" y="183" type="curve" smooth="yes"/>
	  <point x="48" y="192"/>
	  <point x="51" y="200"/>
	  <point x="58" y="206" type="curve"/>
	  <point x="64" y="212"/>
	  <point x="71" y="215"/>
	  <point x="80" y="215" type="curve" smooth="yes"/>
	  <point x="89" y="215"/>
	  <point x="96" y="212"/>
	  <point x="103" y="206" type="curve"/>
	  <point x="108" y="200"/>
	  <point x="111" y="192"/>
	  <point x="111" y="183" type="curve" smooth="yes"/>
	  <point x="111" y="174"/>
	  <point x="108" y="166"/>
	  <point x="103" y="161" type="curve" smooth="yes"/>
	  <point x="96" y="154"/>
	  <point x="89" y="151"/>
	  <point x="80" y="151" type="curve" smooth="yes"/>
	  <point x="71" y="151"/>
	  <point x="64" y="154"/>
	  <point x="58" y="161" type="curve"/>
	</contour>
  </outline>
</glyph>
<glyph name="semicolon" format="1">
  <advance width="165"/>
  <unicode hex="003B"/>
  <outline>
	<contour>
	  <point x="51" y="167"/>
	  <point x="48" y="174"/>
	  <point x="48" y="183" type="curve" smooth="yes"/>
	  <point x="48" y="192"/>
	  <point x="51" y="200"/>
	  <point x="58" y="206" type="curve"/>
	  <point x="64" y="212"/>
	  <point x="71" y="215"/>
	  <point x="80" y="215" type="curve" smooth="yes"/>
	  <point x="89" y="215"/>
	  <point x="96" y="212"/>
	  <point x="103" y="206" type="curve"/>
	  <point x="108" y="200"/>
	  <point x="111" y="192"/>
	  <point x="111" y="183" type="curve" smooth="yes"/>
	  <point x="111" y="174"/>
	  <point x="108" y="166"/>
	  <point x="103" y="161" type="curve" smooth="yes"/>
	  <point x="96" y="154"/>
	  <point x="89" y="151"/>
	  <point x="80" y="151" type="curve" smooth="yes"/>
	  <point x="71" y="151"/>
	  <point x="64" y="154"/>
	  <point x="58" y="161" type="curve"/>
	</contour>
	<contour>
	  <point x="87" y="69" type="line"/>
	  <point x="107" y="51"/>
	  <point x="117" y="32"/>
	  <point x="117" y="11" type="curve" smooth="yes"/>
	  <point x="117" y="-25"/>
	  <point x="94" y="-52"/>
	  <point x="48" y="-71" type="curve"/>
	  <point x="48" y="-69" type="line"/>
	  <point x="66" y="-50"/>
	  <point x="75" y="-29"/>
	  <point x="75" y="-5" type="curve" smooth="yes"/>
	  <point x="75" y="10"/>
	  <point x="67" y="23"/>
	  <point x="52" y="34" type="curve"/>
	</contour>
  </outline>
</glyph>
<glyph name="less" format="1">
  <advance width="329"/>
  <unicode hex="003C"/>
  <outline>
	<contour>
	  <point x="48" y="202" type="line"/>
	  <point x="60" y="205"/>
	  <point x="72" y="209"/>
	  <point x="83" y="213" type="curve" smooth="yes"/>
	  <point x="94" y="217"/>
	  <point x="106" y="222"/>
	  <point x="118" y="227" type="curve"/>
	  <point x="205" y="269" type="line" smooth="yes"/>
	  <point x="227" y="280"/>
	  <point x="248" y="292"/>
	  <point x="268" y="306" type="curve"/>
	  <point x="268" y="242" type="line"/>
	  <point x="256" y="239"/>
	  <point x="244" y="235"/>
	  <point x="233" y="232" type="curve"/>
	  <point x="221" y="228"/>
	  <point x="209" y="224"/>
	  <point x="198" y="219" type="curve" smooth="yes"/>
	  <point x="106" y="178" type="line"/>
	  <point x="198" y="134" type="line" smooth="yes"/>
	  <point x="210" y="128"/>
	  <point x="222" y="123"/>
	  <point x="234" y="119" type="curve"/>
	  <point x="245" y="114"/>
	  <point x="257" y="111"/>
	  <point x="268" y="109" type="curve"/>
	  <point x="268" y="56" type="line"/>
	  <point x="248" y="69"/>
	  <point x="227" y="82"/>
	  <point x="205" y="93" type="curve" smooth="yes"/>
	  <point x="118" y="134" type="line" smooth="yes"/>
	  <point x="96" y="145"/>
	  <point x="73" y="154"/>
	  <point x="48" y="159" type="curve"/>
	</contour>
  </outline>
</glyph>
<glyph name="equal" format="1">
  <advance width="300"/>
  <unicode hex="003D"/>
  <outline>
	<contour>
	  <point x="48" y="163" type="line"/>
	  <point x="71" y="158"/>
	  <point x="95" y="155"/>
	  <point x="122" y="155" type="curve" smooth="yes"/>
	  <point x="178" y="155" type="line" smooth="yes"/>
	  <point x="204" y="155"/>
	  <point x="229" y="158"/>
	  <point x="252" y="163" type="curve"/>
	  <point x="252" y="110" type="line"/>
	  <point x="229" y="115"/>
	  <point x="204" y="118"/>
	  <point x="178" y="118" type="curve" smooth="yes"/>
	  <point x="122" y="118" type="line" smooth="yes"/>
	  <point x="95" y="118"/>
	  <point x="71" y="115"/>
	  <point x="48" y="110" type="curve"/>
	</contour>
	<contour>
	  <point x="48" y="252" type="line"/>
	  <point x="60" y="250"/>
	  <point x="72" y="248"/>
	  <point x="85" y="247" type="curve"/>
	  <point x="98" y="245"/>
	  <point x="110" y="244"/>
	  <point x="122" y="244" type="curve" smooth="yes"/>
	  <point x="178" y="244" type="line" smooth="yes"/>
	  <point x="190" y="244"/>
	  <point x="202" y="245"/>
	  <point x="215" y="247" type="curve"/>
	  <point x="228" y="248"/>
	  <point x="240" y="250"/>
	  <point x="252" y="252" type="curve"/>
	  <point x="252" y="200" type="line"/>
	  <point x="227" y="205"/>
	  <point x="202" y="207"/>
	  <point x="178" y="207" type="curve" smooth="yes"/>
	  <point x="122" y="207" type="line" smooth="yes"/>
	  <point x="97" y="207"/>
	  <point x="73" y="205"/>
	  <point x="48" y="200" type="curve"/>
	</contour>
  </outline>
</glyph>
<glyph name="greater" format="1">
  <advance width="329"/>
  <unicode hex="003E"/>
  <outline>
	<contour>
	  <point x="280" y="159" type="line"/>
	  <point x="268" y="156"/>
	  <point x="256" y="152"/>
	  <point x="245" y="148" type="curve" smooth="yes"/>
	  <point x="234" y="144"/>
	  <point x="222" y="139"/>
	  <point x="210" y="134" type="curve"/>
	  <point x="124" y="93" type="line"/>
	  <point x="112" y="88"/>
	  <point x="101" y="82"/>
	  <point x="91" y="76" type="curve"/>
	  <point x="81" y="69"/>
	  <point x="71" y="63"/>
	  <point x="61" y="56" type="curve"/>
	  <point x="61" y="119" type="line"/>
	  <point x="73" y="122"/>
	  <point x="85" y="126"/>
	  <point x="96" y="130" type="curve"/>
	  <point x="107" y="133"/>
	  <point x="118" y="138"/>
	  <point x="130" y="144" type="curve"/>
	  <point x="223" y="183" type="line"/>
	  <point x="130" y="228" type="line" smooth="yes"/>
	  <point x="117" y="234"/>
	  <point x="105" y="239"/>
	  <point x="94" y="243" type="curve" smooth="yes"/>
	  <point x="83" y="247"/>
	  <point x="72" y="250"/>
	  <point x="61" y="252" type="curve"/>
	  <point x="61" y="306" type="line"/>
	  <point x="82" y="291"/>
	  <point x="103" y="278"/>
	  <point x="124" y="269" type="curve"/>
	  <point x="210" y="227" type="line" smooth="yes"/>
	  <point x="221" y="222"/>
	  <point x="233" y="217"/>
	  <point x="244" y="214" type="curve"/>
	  <point x="255" y="210"/>
	  <point x="267" y="206"/>
	  <point x="280" y="202" type="curve"/>
	</contour>
  </outline>
</glyph>
<glyph name="question" format="1">
  <advance width="290"/>
  <unicode hex="003F"/>
  <outline>
	<contour>
	  <point x="36" y="336" type="line"/>
	  <point x="61" y="360"/>
	  <point x="90" y="372"/>
	  <point x="125" y="372" type="curve" smooth="yes"/>
	  <point x="164" y="372"/>
	  <point x="195" y="361"/>
	  <point x="220" y="339" type="curve" smooth="yes"/>
	  <point x="243" y="318"/>
	  <point x="254" y="292"/>
	  <point x="254" y="262" type="curve" smooth="yes"/>
	  <point x="254" y="225"/>
	  <point x="233" y="192"/>
	  <point x="190" y="164" type="curve"/>
	  <point x="155" y="143"/>
	  <point x="138" y="117"/>
	  <point x="138" y="88" type="curve"/>
	  <point x="112" y="88" type="line"/>
	  <point x="112" y="131"/>
	  <point x="130" y="167"/>
	  <point x="166" y="195" type="curve" smooth="yes"/>
	  <point x="192" y="215"/>
	  <point x="205" y="237"/>
	  <point x="205" y="262" type="curve" smooth="yes"/>
	  <point x="205" y="286"/>
	  <point x="198" y="305"/>
	  <point x="184" y="318" type="curve" smooth="yes"/>
	  <point x="167" y="334"/>
	  <point x="147" y="342"/>
	  <point x="124" y="342" type="curve" smooth="yes"/>
	  <point x="102" y="342"/>
	  <point x="81" y="331"/>
	  <point x="61" y="309" type="curve"/>
	  <point x="58" y="304"/>
	  <point x="54" y="298"/>
	  <point x="50" y="293" type="curve"/>
	  <point x="46" y="287"/>
	  <point x="42" y="280"/>
	  <point x="39" y="273" type="curve"/>
	  <point x="36" y="273" type="line"/>
	</contour>
	<contour>
	  <point x="98" y="11"/>
	  <point x="95" y="19"/>
	  <point x="95" y="27" type="curve" smooth="yes"/>
	  <point x="95" y="36"/>
	  <point x="98" y="43"/>
	  <point x="104" y="50" type="curve"/>
	  <point x="111" y="56"/>
	  <point x="119" y="59"/>
	  <point x="126" y="59" type="curve" smooth="yes"/>
	  <point x="134" y="59"/>
	  <point x="142" y="56"/>
	  <point x="149" y="50" type="curve" smooth="yes"/>
	  <point x="156" y="44"/>
	  <point x="159" y="36"/>
	  <point x="159" y="27" type="curve" smooth="yes"/>
	  <point x="159" y="18"/>
	  <point x="156" y="11"/>
	  <point x="149" y="4" type="curve" smooth="yes"/>
	  <point x="143" y="-2"/>
	  <point x="135" y="-5"/>
	  <point x="126" y="-5" type="curve" smooth="yes"/>
	  <point x="118" y="-5"/>
	  <point x="111" y="-2"/>
	  <point x="104" y="4" type="curve"/>
	</contour>
  </outline>
</glyph>
<glyph name="at" format="1">
  <advance width="329"/>
  <unicode hex="0040"/>
  <outline>
	<contour>
	  <point x="202" y="-74"/>
	  <point x="227" y="-53"/>
	  <point x="247" y="-11" type="curve"/>
	  <point x="250" y="-11" type="line"/>
	  <point x="250" y="-74" type="line"/>
	  <point x="231" y="-95"/>
	  <point x="204" y="-105"/>
	  <point x="170" y="-105" type="curve" smooth="yes"/>
	  <point x="135" y="-105"/>
	  <point x="105" y="-90"/>
	  <point x="80" y="-61" type="curve" smooth="yes"/>
	  <point x="51" y="-28"/>
	  <point x="36" y="21"/>
	  <point x="36" y="84" type="curve" smooth="yes"/>
	  <point x="36" y="147"/>
	  <point x="51" y="196"/>
	  <point x="80" y="229" type="curve" smooth="yes"/>
	  <point x="105" y="258"/>
	  <point x="135" y="272"/>
	  <point x="170" y="272" type="curve" smooth="yes"/>
	  <point x="205" y="272"/>
	  <point x="232" y="259"/>
	  <point x="253" y="234" type="curve"/>
	  <point x="272" y="209"/>
	  <point x="281" y="176"/>
	  <point x="281" y="134" type="curve" smooth="yes"/>
	  <point x="281" y="73" type="line" smooth="yes"/>
	  <point x="281" y="50"/>
	  <point x="283" y="26"/>
	  <point x="287" y="0" type="curve"/>
	  <point x="224" y="0" type="line"/>
	  <point x="225" y="4"/>
	  <point x="226" y="8"/>
	  <point x="227" y="13" type="curve"/>
	  <point x="227" y="18"/>
	  <point x="227" y="22"/>
	  <point x="228" y="27" type="curve"/>
	  <point x="214" y="6"/>
	  <point x="199" y="-5"/>
	  <point x="183" y="-5" type="curve" smooth="yes"/>
	  <point x="159" y="-5"/>
	  <point x="142" y="2"/>
	  <point x="131" y="16" type="curve"/>
	  <point x="114" y="36"/>
	  <point x="106" y="59"/>
	  <point x="106" y="85" type="curve" smooth="yes"/>
	  <point x="106" y="112"/>
	  <point x="115" y="134"/>
	  <point x="132" y="153" type="curve"/>
	  <point x="143" y="168"/>
	  <point x="159" y="175"/>
	  <point x="180" y="175" type="curve" smooth="yes"/>
	  <point x="199" y="175"/>
	  <point x="216" y="165"/>
	  <point x="231" y="145" type="curve"/>
	  <point x="231" y="177"/>
	  <point x="225" y="201"/>
	  <point x="213" y="217" type="curve" smooth="yes"/>
	  <point x="201" y="234"/>
	  <point x="186" y="242"/>
	  <point x="169" y="242" type="curve" smooth="yes"/>
	  <point x="146" y="242"/>
	  <point x="126" y="229"/>
	  <point x="108" y="204" type="curve"/>
	  <point x="91" y="178"/>
	  <point x="82" y="138"/>
	  <point x="82" y="84" type="curve" smooth="yes"/>
	  <point x="82" y="29"/>
	  <point x="91" y="-11"/>
	  <point x="109" y="-36" type="curve" smooth="yes"/>
	  <point x="128" y="-61"/>
	  <point x="149" y="-74"/>
	  <point x="172" y="-74" type="curve" smooth="yes"/>
	</contour>
	<contour>
	  <point x="176" y="146"/>
	  <point x="166" y="140"/>
	  <point x="160" y="127" type="curve"/>
	  <point x="153" y="115"/>
	  <point x="150" y="101"/>
	  <point x="150" y="84" type="curve" smooth="yes"/>
	  <point x="150" y="66"/>
	  <point x="153" y="52"/>
	  <point x="160" y="41" type="curve"/>
	  <point x="167" y="31"/>
	  <point x="176" y="26"/>
	  <point x="189" y="26" type="curve" smooth="yes"/>
	  <point x="200" y="26"/>
	  <point x="209" y="31"/>
	  <point x="217" y="42" type="curve"/>
	  <point x="226" y="53"/>
	  <point x="231" y="68"/>
	  <point x="231" y="87" type="curve" smooth="yes"/>
	  <point x="231" y="102"/>
	  <point x="227" y="115"/>
	  <point x="220" y="127" type="curve"/>
	  <point x="210" y="140"/>
	  <point x="200" y="146"/>
	  <point x="190" y="146" type="curve" smooth="yes"/>
	</contour>
  </outline>
</glyph>
<glyph name="A" format="1">
  <advance width="385"/>
  <unicode hex="0041"/>
  <outline>
	<contour>
	  <point x="0" y="0" type="line"/>
	  <point x="8" y="11"/>
	  <point x="15" y="21"/>
	  <point x="21" y="32" type="curve"/>
	  <point x="27" y="42"/>
	  <point x="32" y="52"/>
	  <point x="37" y="63" type="curve" smooth="yes"/>
	  <point x="146" y="298" type="line" smooth="yes"/>
	  <point x="151" y="308"/>
	  <point x="155" y="319"/>
	  <point x="159" y="331" type="curve" smooth="yes"/>
	  <point x="163" y="342"/>
	  <point x="167" y="354"/>
	  <point x="170" y="367" type="curve"/>
	  <point x="214" y="367" type="line"/>
	  <point x="221" y="342"/>
	  <point x="229" y="319"/>
	  <point x="239" y="298" type="curve" smooth="yes"/>
	  <point x="347" y="63" type="line" smooth="yes"/>
	  <point x="356" y="43"/>
	  <point x="368" y="22"/>
	  <point x="385" y="0" type="curve"/>
	  <point x="316" y="0" type="line"/>
	  <point x="313" y="13"/>
	  <point x="309" y="25"/>
	  <point x="305" y="37" type="curve" smooth="yes"/>
	  <point x="301" y="49"/>
	  <point x="296" y="60"/>
	  <point x="291" y="70" type="curve" smooth="yes"/>
	  <point x="245" y="169" type="line"/>
	  <point x="123" y="169" type="line"/>
	  <point x="78" y="70" type="line" smooth="yes"/>
	  <point x="73" y="58"/>
	  <point x="69" y="46"/>
	  <point x="65" y="35" type="curve" smooth="yes"/>
	  <point x="61" y="24"/>
	  <point x="57" y="12"/>
	  <point x="54" y="0" type="curve"/>
	</contour>
	<contour>
	  <point x="136" y="197" type="line"/>
	  <point x="234" y="197" type="line"/>
	  <point x="184" y="309" type="line"/>
	</contour>
  </outline>
</glyph>
<glyph name="B" format="1">
  <advance width="283"/>
  <unicode hex="0042"/>
  <outline>
	<contour>
	  <point x="42" y="0" type="line"/>
	  <point x="46" y="24"/>
	  <point x="48" y="48"/>
	  <point x="48" y="73" type="curve" smooth="yes"/>
	  <point x="48" y="295" type="line" smooth="yes"/>
	  <point x="48" y="318"/>
	  <point x="46" y="342"/>
	  <point x="42" y="367" type="curve"/>
	  <point x="130" y="367" type="line" smooth="yes"/>
	  <point x="157" y="367"/>
	  <point x="180" y="360"/>
	  <point x="199" y="345" type="curve" smooth="yes"/>
	  <point x="218" y="330"/>
	  <point x="227" y="309"/>
	  <point x="227" y="284" type="curve" smooth="yes"/>
	  <point x="227" y="259"/>
	  <point x="217" y="239"/>
	  <point x="198" y="222" type="curve"/>
	  <point x="190" y="214"/>
	  <point x="183" y="209"/>
	  <point x="177" y="207" type="curve"/>
	  <point x="194" y="205"/>
	  <point x="208" y="199"/>
	  <point x="221" y="189" type="curve" smooth="yes"/>
	  <point x="246" y="169"/>
	  <point x="258" y="142"/>
	  <point x="258" y="109" type="curve" smooth="yes"/>
	  <point x="258" y="78"/>
	  <point x="246" y="52"/>
	  <point x="221" y="30" type="curve" smooth="yes"/>
	  <point x="198" y="10"/>
	  <point x="167" y="0"/>
	  <point x="126" y="0" type="curve" smooth="yes"/>
	</contour>
	<contour>
	  <point x="126" y="30" type="line" smooth="yes"/>
	  <point x="151" y="30"/>
	  <point x="172" y="37"/>
	  <point x="187" y="51" type="curve" smooth="yes"/>
	  <point x="202" y="65"/>
	  <point x="210" y="84"/>
	  <point x="210" y="109" type="curve" smooth="yes"/>
	  <point x="210" y="132"/>
	  <point x="202" y="151"/>
	  <point x="187" y="165" type="curve"/>
	  <point x="172" y="181"/>
	  <point x="152" y="189"/>
	  <point x="126" y="189" type="curve" smooth="yes"/>
	  <point x="97" y="189" type="line"/>
	  <point x="97" y="73" type="line" smooth="yes"/>
	  <point x="97" y="66"/>
	  <point x="97" y="59"/>
	  <point x="98" y="52" type="curve" smooth="yes"/>
	  <point x="99" y="45"/>
	  <point x="99" y="38"/>
	  <point x="100" y="30" type="curve"/>
	</contour>
	<contour>
	  <point x="97" y="219" type="line"/>
	  <point x="131" y="219" type="line" smooth="yes"/>
	  <point x="145" y="219"/>
	  <point x="157" y="225"/>
	  <point x="168" y="237" type="curve"/>
	  <point x="177" y="248"/>
	  <point x="182" y="262"/>
	  <point x="182" y="277" type="curve" smooth="yes"/>
	  <point x="182" y="294"/>
	  <point x="178" y="308"/>
	  <point x="170" y="319" type="curve"/>
	  <point x="160" y="331"/>
	  <point x="147" y="337"/>
	  <point x="131" y="337" type="curve" smooth="yes"/>
	  <point x="100" y="337" type="line"/>
	  <point x="99" y="330"/>
	  <point x="99" y="323"/>
	  <point x="98" y="316" type="curve" smooth="yes"/>
	  <point x="97" y="309"/>
	  <point x="97" y="302"/>
	  <point x="97" y="295" type="curve" smooth="yes"/>
	</contour>
  </outline>
</glyph>
<glyph name="C" format="1">
  <advance width="374"/>
  <unicode hex="0043"/>
  <outline>
	<contour>
	  <point x="337" y="101" type="line"/>
	  <point x="337" y="50" type="line"/>
	  <point x="300" y="13"/>
	  <point x="257" y="-5"/>
	  <point x="208" y="-5" type="curve" smooth="yes"/>
	  <point x="157" y="-5"/>
	  <point x="114" y="13"/>
	  <point x="78" y="50" type="curve" smooth="yes"/>
	  <point x="43" y="86"/>
	  <point x="25" y="130"/>
	  <point x="25" y="183" type="curve" smooth="yes"/>
	  <point x="25" y="236"/>
	  <point x="43" y="280"/>
	  <point x="78" y="317" type="curve" smooth="yes"/>
	  <point x="113" y="354"/>
	  <point x="157" y="372"/>
	  <point x="208" y="372" type="curve" smooth="yes"/>
	  <point x="251" y="372"/>
	  <point x="288" y="359"/>
	  <point x="318" y="334" type="curve"/>
	  <point x="318" y="270" type="line"/>
	  <point x="316" y="270" type="line"/>
	  <point x="314" y="273"/>
	  <point x="312" y="277"/>
	  <point x="310" y="281" type="curve"/>
	  <point x="307" y="284"/>
	  <point x="305" y="288"/>
	  <point x="302" y="291" type="curve"/>
	  <point x="277" y="325"/>
	  <point x="245" y="342"/>
	  <point x="208" y="342" type="curve" smooth="yes"/>
	  <point x="169" y="342"/>
	  <point x="137" y="325"/>
	  <point x="112" y="291" type="curve" smooth="yes"/>
	  <point x="89" y="260"/>
	  <point x="78" y="224"/>
	  <point x="78" y="183" type="curve" smooth="yes"/>
	  <point x="78" y="142"/>
	  <point x="89" y="107"/>
	  <point x="112" y="76" type="curve" smooth="yes"/>
	  <point x="138" y="43"/>
	  <point x="170" y="26"/>
	  <point x="208" y="26" type="curve" smooth="yes"/>
	  <point x="257" y="26"/>
	  <point x="299" y="51"/>
	  <point x="334" y="101" type="curve"/>
	</contour>
  </outline>
</glyph>
<glyph name="D" format="1">
  <advance width="386"/>
  <unicode hex="0044"/>
  <outline>
	<contour>
	  <point x="42" y="0" type="line"/>
	  <point x="46" y="24"/>
	  <point x="48" y="48"/>
	  <point x="48" y="73" type="curve" smooth="yes"/>
	  <point x="48" y="295" type="line" smooth="yes"/>
	  <point x="48" y="318"/>
	  <point x="46" y="342"/>
	  <point x="42" y="367" type="curve"/>
	  <point x="179" y="367" type="line" smooth="yes"/>
	  <point x="234" y="367"/>
	  <point x="278" y="349"/>
	  <point x="312" y="313" type="curve" smooth="yes"/>
	  <point x="345" y="278"/>
	  <point x="361" y="234"/>
	  <point x="361" y="183" type="curve" smooth="yes"/>
	  <point x="361" y="135"/>
	  <point x="344" y="92"/>
	  <point x="311" y="55" type="curve" smooth="yes"/>
	  <point x="278" y="18"/>
	  <point x="234" y="0"/>
	  <point x="179" y="0" type="curve" smooth="yes"/>
	</contour>
	<contour>
	  <point x="179" y="30" type="line" smooth="yes"/>
	  <point x="218" y="30"/>
	  <point x="250" y="46"/>
	  <point x="275" y="78" type="curve" smooth="yes"/>
	  <point x="296" y="105"/>
	  <point x="307" y="140"/>
	  <point x="307" y="183" type="curve" smooth="yes"/>
	  <point x="307" y="230"/>
	  <point x="295" y="268"/>
	  <point x="271" y="295" type="curve" smooth="yes"/>
	  <point x="246" y="323"/>
	  <point x="216" y="337"/>
	  <point x="179" y="337" type="curve" smooth="yes"/>
	  <point x="100" y="337" type="line"/>
	  <point x="99" y="330"/>
	  <point x="99" y="323"/>
	  <point x="98" y="316" type="curve" smooth="yes"/>
	  <point x="97" y="309"/>
	  <point x="97" y="302"/>
	  <point x="97" y="295" type="curve" smooth="yes"/>
	  <point x="97" y="73" type="line" smooth="yes"/>
	  <point x="97" y="65"/>
	  <point x="97" y="58"/>
	  <point x="98" y="51" type="curve" smooth="yes"/>
	  <point x="99" y="44"/>
	  <point x="99" y="37"/>
	  <point x="100" y="30" type="curve"/>
	</contour>
  </outline>
</glyph>
<glyph name="E" format="1">
  <advance width="262"/>
  <unicode hex="0045"/>
  <outline>
	<contour>
	  <point x="42" y="0" type="line"/>
	  <point x="46" y="24"/>
	  <point x="48" y="48"/>
	  <point x="48" y="73" type="curve" smooth="yes"/>
	  <point x="48" y="295" type="line" smooth="yes"/>
	  <point x="48" y="318"/>
	  <point x="46" y="342"/>
	  <point x="42" y="367" type="curve"/>
	  <point x="209" y="367" type="line"/>
	  <point x="209" y="330" type="line"/>
	  <point x="197" y="332"/>
	  <point x="185" y="334"/>
	  <point x="173" y="335" type="curve" smooth="yes"/>
	  <point x="160" y="336"/>
	  <point x="148" y="337"/>
	  <point x="136" y="337" type="curve" smooth="yes"/>
	  <point x="100" y="337" type="line"/>
	  <point x="99" y="330"/>
	  <point x="99" y="322"/>
	  <point x="98" y="315" type="curve" smooth="yes"/>
	  <point x="97" y="308"/>
	  <point x="97" y="301"/>
	  <point x="97" y="295" type="curve" smooth="yes"/>
	  <point x="97" y="199" type="line"/>
	  <point x="136" y="199" type="line" smooth="yes"/>
	  <point x="148" y="199"/>
	  <point x="160" y="200"/>
	  <point x="173" y="202" type="curve"/>
	  <point x="185" y="203"/>
	  <point x="197" y="205"/>
	  <point x="209" y="207" type="curve"/>
	  <point x="209" y="162" type="line"/>
	  <point x="197" y="165"/>
	  <point x="185" y="167"/>
	  <point x="173" y="168" type="curve" smooth="yes"/>
	  <point x="160" y="169"/>
	  <point x="148" y="169"/>
	  <point x="136" y="169" type="curve" smooth="yes"/>
	  <point x="97" y="169" type="line"/>
	  <point x="97" y="73" type="line" smooth="yes"/>
	  <point x="97" y="66"/>
	  <point x="97" y="59"/>
	  <point x="98" y="52" type="curve" smooth="yes"/>
	  <point x="99" y="45"/>
	  <point x="99" y="38"/>
	  <point x="100" y="30" type="curve"/>
	  <point x="165" y="30" type="line" smooth="yes"/>
	  <point x="192" y="30"/>
	  <point x="216" y="32"/>
	  <point x="238" y="37" type="curve"/>
	  <point x="238" y="0" type="line"/>
	</contour>
  </outline>
</glyph>
<glyph name="G" format="1">
  <advance width="395"/>
  <unicode hex="0047"/>
  <outline>
	<contour>
	  <point x="359" y="199" type="line"/>
	  <point x="359" y="77" type="line"/>
	  <point x="320" y="22"/>
	  <point x="270" y="-5"/>
	  <point x="208" y="-5" type="curve" smooth="yes"/>
	  <point x="158" y="-5"/>
	  <point x="114" y="13"/>
	  <point x="77" y="50" type="curve" smooth="yes"/>
	  <point x="42" y="86"/>
	  <point x="25" y="130"/>
	  <point x="25" y="183" type="curve" smooth="yes"/>
	  <point x="25" y="236"/>
	  <point x="43" y="280"/>
	  <point x="78" y="317" type="curve" smooth="yes"/>
	  <point x="113" y="354"/>
	  <point x="157" y="372"/>
	  <point x="208" y="372" type="curve" smooth="yes"/>
	  <point x="250" y="372"/>
	  <point x="287" y="359"/>
	  <point x="318" y="334" type="curve"/>
	  <point x="318" y="271" type="line"/>
	  <point x="316" y="271" type="line"/>
	  <point x="312" y="279"/>
	  <point x="307" y="286"/>
	  <point x="302" y="291" type="curve"/>
	  <point x="277" y="325"/>
	  <point x="245" y="342"/>
	  <point x="208" y="342" type="curve" smooth="yes"/>
	  <point x="170" y="342"/>
	  <point x="138" y="325"/>
	  <point x="112" y="291" type="curve" smooth="yes"/>
	  <point x="89" y="262"/>
	  <point x="78" y="226"/>
	  <point x="78" y="183" type="curve" smooth="yes"/>
	  <point x="78" y="142"/>
	  <point x="89" y="107"/>
	  <point x="112" y="76" type="curve" smooth="yes"/>
	  <point x="138" y="43"/>
	  <point x="170" y="26"/>
	  <point x="208" y="26" type="curve" smooth="yes"/>
	  <point x="250" y="26"/>
	  <point x="284" y="47"/>
	  <point x="311" y="88" type="curve"/>
	  <point x="311" y="169" type="line"/>
	  <point x="297" y="169" type="line" smooth="yes"/>
	  <point x="270" y="169"/>
	  <point x="246" y="167"/>
	  <point x="223" y="162" type="curve"/>
	  <point x="223" y="199" type="line"/>
	</contour>
  </outline>
</glyph>
<glyph name="H" format="1">
  <advance width="381"/>
  <unicode hex="0048"/>
  <outline>
	<contour>
	  <point x="42" y="0" type="line"/>
	  <point x="46" y="24"/>
	  <point x="48" y="48"/>
	  <point x="48" y="73" type="curve" smooth="yes"/>
	  <point x="48" y="295" type="line" smooth="yes"/>
	  <point x="48" y="318"/>
	  <point x="46" y="342"/>
	  <point x="42" y="367" type="curve"/>
	  <point x="105" y="367" type="line"/>
	  <point x="102" y="355"/>
	  <point x="100" y="343"/>
	  <point x="99" y="331" type="curve" smooth="yes"/>
	  <point x="98" y="319"/>
	  <point x="97" y="307"/>
	  <point x="97" y="295" type="curve" smooth="yes"/>
	  <point x="97" y="199" type="line"/>
	  <point x="285" y="199" type="line"/>
	  <point x="285" y="295" type="line" smooth="yes"/>
	  <point x="285" y="307"/>
	  <point x="284" y="319"/>
	  <point x="283" y="331" type="curve" smooth="yes"/>
	  <point x="282" y="343"/>
	  <point x="280" y="355"/>
	  <point x="277" y="367" type="curve"/>
	  <point x="341" y="367" type="line"/>
	  <point x="338" y="355"/>
	  <point x="336" y="343"/>
	  <point x="335" y="331" type="curve" smooth="yes"/>
	  <point x="334" y="319"/>
	  <point x="333" y="307"/>
	  <point x="333" y="295" type="curve" smooth="yes"/>
	  <point x="333" y="73" type="line" smooth="yes"/>
	  <point x="333" y="47"/>
	  <point x="336" y="23"/>
	  <point x="341" y="0" type="curve"/>
	  <point x="277" y="0" type="line"/>
	  <point x="280" y="12"/>
	  <point x="282" y="24"/>
	  <point x="283" y="37" type="curve" smooth="yes"/>
	  <point x="284" y="49"/>
	  <point x="285" y="61"/>
	  <point x="285" y="73" type="curve" smooth="yes"/>
	  <point x="285" y="169" type="line"/>
	  <point x="97" y="169" type="line"/>
	  <point x="97" y="73" type="line" smooth="yes"/>
	  <point x="97" y="47"/>
	  <point x="100" y="23"/>
	  <point x="105" y="0" type="curve"/>
	</contour>
  </outline>
</glyph>
<glyph name="I" format="1">
  <advance width="146"/>
  <unicode hex="0049"/>
  <outline>
	<contour>
	  <point x="42" y="0" type="line"/>
	  <point x="46" y="24"/>
	  <point x="48" y="48"/>
	  <point x="48" y="73" type="curve" smooth="yes"/>
	  <point x="48" y="295" type="line" smooth="yes"/>
	  <point x="48" y="318"/>
	  <point x="46" y="342"/>
	  <point x="42" y="367" type="curve"/>
	  <point x="105" y="367" type="line"/>
	  <point x="102" y="355"/>
	  <point x="100" y="343"/>
	  <point x="99" y="331" type="curve" smooth="yes"/>
	  <point x="98" y="319"/>
	  <point x="97" y="307"/>
	  <point x="97" y="295" type="curve" smooth="yes"/>
	  <point x="97" y="73" type="line" smooth="yes"/>
	  <point x="97" y="47"/>
	  <point x="100" y="23"/>
	  <point x="105" y="0" type="curve"/>
	</contour>
  </outline>
</glyph>
<glyph name="J" format="1">
  <advance width="146"/>
  <unicode hex="004A"/>
  <outline>
	<contour>
	  <point x="105" y="367" type="line"/>
	  <point x="102" y="355"/>
	  <point x="100" y="343"/>
	  <point x="99" y="331" type="curve" smooth="yes"/>
	  <point x="98" y="319"/>
	  <point x="97" y="307"/>
	  <point x="97" y="295" type="curve" smooth="yes"/>
	  <point x="97" y="28" type="line" smooth="yes"/>
	  <point x="97" y="-23"/>
	  <point x="66" y="-48"/>
	  <point x="5" y="-48" type="curve"/>
	  <point x="5" y="-46" type="line"/>
	  <point x="34" y="-33"/>
	  <point x="48" y="-9"/>
	  <point x="48" y="28" type="curve" smooth="yes"/>
	  <point x="48" y="295" type="line" smooth="yes"/>
	  <point x="48" y="318"/>
	  <point x="46" y="342"/>
	  <point x="42" y="367" type="curve"/>
	</contour>
  </outline>
</glyph>
<glyph name="K" format="1">
  <advance width="347"/>
  <unicode hex="004B"/>
  <outline>
	<contour>
	  <point x="42" y="0" type="line"/>
	  <point x="46" y="24"/>
	  <point x="48" y="48"/>
	  <point x="48" y="73" type="curve" smooth="yes"/>
	  <point x="48" y="295" type="line" smooth="yes"/>
	  <point x="48" y="318"/>
	  <point x="46" y="342"/>
	  <point x="42" y="367" type="curve"/>
	  <point x="105" y="367" type="line"/>
	  <point x="102" y="355"/>
	  <point x="100" y="343"/>
	  <point x="99" y="331" type="curve" smooth="yes"/>
	  <point x="98" y="319"/>
	  <point x="97" y="307"/>
	  <point x="97" y="295" type="curve" smooth="yes"/>
	  <point x="97" y="192" type="line"/>
	  <point x="210" y="310" type="line" smooth="yes"/>
	  <point x="223" y="323"/>
	  <point x="238" y="342"/>
	  <point x="255" y="367" type="curve"/>
	  <point x="319" y="367" type="line"/>
	  <point x="309" y="360"/>
	  <point x="299" y="353"/>
	  <point x="290" y="345" type="curve" smooth="yes"/>
	  <point x="281" y="337"/>
	  <point x="272" y="329"/>
	  <point x="264" y="320" type="curve"/>
	  <point x="139" y="190" type="line"/>
	  <point x="289" y="45" type="line" smooth="yes"/>
	  <point x="306" y="28"/>
	  <point x="326" y="13"/>
	  <point x="347" y="0" type="curve"/>
	  <point x="259" y="0" type="line"/>
	  <point x="244" y="21"/>
	  <point x="228" y="40"/>
	  <point x="211" y="56" type="curve" smooth="yes"/>
	  <point x="107" y="156" type="line"/>
	  <point x="97" y="146" type="line"/>
	  <point x="97" y="73" type="line" smooth="yes"/>
	  <point x="97" y="47"/>
	  <point x="100" y="23"/>
	  <point x="105" y="0" type="curve"/>
	</contour>
  </outline>
</glyph>
<glyph name="M" format="1">
  <advance width="497"/>
  <unicode hex="004D"/>
  <outline>
	<contour>
	  <point x="29" y="0" type="line"/>
	  <point x="36" y="22"/>
	  <point x="41" y="46"/>
	  <point x="43" y="72" type="curve" smooth="yes"/>
	  <point x="62" y="295" type="line"/>
	  <point x="63" y="299"/>
	  <point x="63" y="304"/>
	  <point x="63" y="309" type="curve" smooth="yes"/>
	  <point x="63" y="314"/>
	  <point x="63" y="319"/>
	  <point x="63" y="324" type="curve" smooth="yes"/>
	  <point x="63" y="331"/>
	  <point x="63" y="338"/>
	  <point x="63" y="345" type="curve" smooth="yes"/>
	  <point x="63" y="352"/>
	  <point x="62" y="360"/>
	  <point x="61" y="367" type="curve"/>
	  <point x="112" y="367" type="line"/>
	  <point x="117" y="346"/>
	  <point x="126" y="323"/>
	  <point x="137" y="298" type="curve" smooth="yes"/>
	  <point x="246" y="59" type="line"/>
	  <point x="360" y="298" type="line"/>
	  <point x="364" y="308"/>
	  <point x="368" y="319"/>
	  <point x="372" y="330" type="curve" smooth="yes"/>
	  <point x="376" y="341"/>
	  <point x="380" y="354"/>
	  <point x="384" y="367" type="curve"/>
	  <point x="436" y="367" type="line"/>
	  <point x="435" y="360"/>
	  <point x="434" y="352"/>
	  <point x="434" y="345" type="curve" smooth="yes"/>
	  <point x="434" y="338"/>
	  <point x="434" y="331"/>
	  <point x="434" y="324" type="curve" smooth="yes"/>
	  <point x="434" y="319"/>
	  <point x="434" y="314"/>
	  <point x="434" y="309" type="curve" smooth="yes"/>
	  <point x="434" y="304"/>
	  <point x="434" y="300"/>
	  <point x="435" y="295" type="curve"/>
	  <point x="454" y="72" type="line" smooth="yes"/>
	  <point x="456" y="46"/>
	  <point x="461" y="22"/>
	  <point x="468" y="0" type="curve"/>
	  <point x="406" y="0" type="line"/>
	  <point x="407" y="7"/>
	  <point x="408" y="14"/>
	  <point x="408" y="21" type="curve" smooth="yes"/>
	  <point x="408" y="28"/>
	  <point x="408" y="35"/>
	  <point x="408" y="42" type="curve" smooth="yes"/>
	  <point x="408" y="47"/>
	  <point x="408" y="52"/>
	  <point x="408" y="57" type="curve" smooth="yes"/>
	  <point x="408" y="62"/>
	  <point x="408" y="67"/>
	  <point x="407" y="73" type="curve"/>
	  <point x="388" y="283" type="line"/>
	  <point x="291" y="70" type="line" smooth="yes"/>
	  <point x="286" y="58"/>
	  <point x="281" y="46"/>
	  <point x="278" y="35" type="curve"/>
	  <point x="274" y="24"/>
	  <point x="270" y="12"/>
	  <point x="267" y="0" type="curve"/>
	  <point x="216" y="0" type="line"/>
	  <point x="213" y="12"/>
	  <point x="209" y="24"/>
	  <point x="206" y="35" type="curve"/>
	  <point x="202" y="46"/>
	  <point x="197" y="57"/>
	  <point x="192" y="70" type="curve"/>
	  <point x="96" y="283" type="line"/>
	  <point x="77" y="73" type="line"/>
	  <point x="76" y="68"/>
	  <point x="76" y="63"/>
	  <point x="76" y="58" type="curve" smooth="yes"/>
	  <point x="76" y="53"/>
	  <point x="76" y="47"/>
	  <point x="76" y="42" type="curve" smooth="yes"/>
	  <point x="76" y="34"/>
	  <point x="76" y="27"/>
	  <point x="77" y="20" type="curve"/>
	  <point x="77" y="13"/>
	  <point x="77" y="7"/>
	  <point x="78" y="0" type="curve"/>
	</contour>
  </outline>
</glyph>
<glyph name="N" format="1">
  <advance width="381"/>
  <unicode hex="004E"/>
  <outline>
	<contour>
	  <point x="42" y="0" type="line"/>
	  <point x="46" y="24"/>
	  <point x="48" y="48"/>
	  <point x="48" y="73" type="curve" smooth="yes"/>
	  <point x="48" y="295" type="line" smooth="yes"/>
	  <point x="48" y="318"/>
	  <point x="46" y="342"/>
	  <point x="42" y="367" type="curve"/>
	  <point x="92" y="367" type="line"/>
	  <point x="98" y="355"/>
	  <point x="104" y="344"/>
	  <point x="111" y="334" type="curve"/>
	  <point x="117" y="323"/>
	  <point x="124" y="313"/>
	  <point x="131" y="304" type="curve" smooth="yes"/>
	  <point x="299" y="80" type="line"/>
	  <point x="299" y="295" type="line" smooth="yes"/>
	  <point x="299" y="307"/>
	  <point x="299" y="319"/>
	  <point x="298" y="331" type="curve" smooth="yes"/>
	  <point x="297" y="343"/>
	  <point x="294" y="355"/>
	  <point x="291" y="367" type="curve"/>
	  <point x="341" y="367" type="line"/>
	  <point x="338" y="355"/>
	  <point x="336" y="343"/>
	  <point x="335" y="331" type="curve" smooth="yes"/>
	  <point x="334" y="319"/>
	  <point x="333" y="307"/>
	  <point x="333" y="295" type="curve" smooth="yes"/>
	  <point x="333" y="73" type="line" smooth="yes"/>
	  <point x="333" y="47"/>
	  <point x="336" y="23"/>
	  <point x="341" y="0" type="curve"/>
	  <point x="290" y="0" type="line"/>
	  <point x="277" y="25"/>
	  <point x="264" y="46"/>
	  <point x="252" y="63" type="curve" smooth="yes"/>
	  <point x="84" y="290" type="line"/>
	  <point x="84" y="73" type="line" smooth="yes"/>
	  <point x="84" y="48"/>
	  <point x="86" y="24"/>
	  <point x="90" y="0" type="curve"/>
	</contour>
  </outline>
</glyph>
<glyph name="O" format="1">
  <advance width="415"/>
  <unicode hex="004F"/>
  <outline>
	<contour>
	  <point x="337" y="225"/>
	  <point x="325" y="261"/>
	  <point x="302" y="291" type="curve" smooth="yes"/>
	  <point x="277" y="325"/>
	  <point x="245" y="342"/>
	  <point x="208" y="342" type="curve" smooth="yes"/>
	  <point x="170" y="342"/>
	  <point x="138" y="325"/>
	  <point x="112" y="291" type="curve" smooth="yes"/>
	  <point x="89" y="260"/>
	  <point x="78" y="224"/>
	  <point x="78" y="183" type="curve" smooth="yes"/>
	  <point x="78" y="141"/>
	  <point x="89" y="105"/>
	  <point x="112" y="76" type="curve" smooth="yes"/>
	  <point x="138" y="43"/>
	  <point x="170" y="26"/>
	  <point x="208" y="26" type="curve" smooth="yes"/>
	  <point x="245" y="26"/>
	  <point x="277" y="43"/>
	  <point x="302" y="76" type="curve" smooth="yes"/>
	  <point x="325" y="106"/>
	  <point x="337" y="142"/>
	  <point x="337" y="183" type="curve" smooth="yes"/>
	</contour>
	<contour>
	  <point x="300" y="13"/>
	  <point x="257" y="-5"/>
	  <point x="208" y="-5" type="curve" smooth="yes"/>
	  <point x="157" y="-5"/>
	  <point x="114" y="13"/>
	  <point x="78" y="50" type="curve" smooth="yes"/>
	  <point x="43" y="86"/>
	  <point x="25" y="130"/>
	  <point x="25" y="183" type="curve" smooth="yes"/>
	  <point x="25" y="236"/>
	  <point x="43" y="280"/>
	  <point x="78" y="317" type="curve" smooth="yes"/>
	  <point x="113" y="354"/>
	  <point x="157" y="372"/>
	  <point x="208" y="372" type="curve" smooth="yes"/>
	  <point x="258" y="372"/>
	  <point x="301" y="354"/>
	  <point x="337" y="317" type="curve" smooth="yes"/>
	  <point x="373" y="279"/>
	  <point x="391" y="234"/>
	  <point x="391" y="183" type="curve" smooth="yes"/>
	  <point x="391" y="132"/>
	  <point x="373" y="87"/>
	  <point x="337" y="50" type="curve" smooth="yes"/>
	</contour>
  </outline>
</glyph>
<glyph name="P" format="1">
  <advance width="283"/>
  <unicode hex="0050"/>
  <outline>
	<contour>
	  <point x="42" y="0" type="line"/>
	  <point x="46" y="24"/>
	  <point x="48" y="48"/>
	  <point x="48" y="73" type="curve" smooth="yes"/>
	  <point x="48" y="295" type="line" smooth="yes"/>
	  <point x="48" y="318"/>
	  <point x="46" y="342"/>
	  <point x="42" y="367" type="curve"/>
	  <point x="126" y="367" type="line" smooth="yes"/>
	  <point x="166" y="367"/>
	  <point x="198" y="357"/>
	  <point x="221" y="336" type="curve"/>
	  <point x="246" y="315"/>
	  <point x="258" y="289"/>
	  <point x="258" y="258" type="curve" smooth="yes"/>
	  <point x="258" y="227"/>
	  <point x="246" y="201"/>
	  <point x="221" y="179" type="curve" smooth="yes"/>
	  <point x="198" y="158"/>
	  <point x="166" y="148"/>
	  <point x="126" y="148" type="curve" smooth="yes"/>
	  <point x="97" y="148" type="line"/>
	  <point x="97" y="73" type="line" smooth="yes"/>
	  <point x="97" y="47"/>
	  <point x="100" y="23"/>
	  <point x="105" y="0" type="curve"/>
	</contour>
	<contour>
	  <point x="97" y="179" type="line"/>
	  <point x="126" y="179" type="line" smooth="yes"/>
	  <point x="150" y="179"/>
	  <point x="170" y="187"/>
	  <point x="185" y="202" type="curve" smooth="yes"/>
	  <point x="198" y="215"/>
	  <point x="205" y="234"/>
	  <point x="205" y="258" type="curve" smooth="yes"/>
	  <point x="205" y="281"/>
	  <point x="198" y="299"/>
	  <point x="185" y="314" type="curve"/>
	  <point x="168" y="329"/>
	  <point x="149" y="337"/>
	  <point x="126" y="337" type="curve" smooth="yes"/>
	  <point x="100" y="337" type="line"/>
	  <point x="99" y="330"/>
	  <point x="99" y="323"/>
	  <point x="98" y="316" type="curve" smooth="yes"/>
	  <point x="97" y="309"/>
	  <point x="97" y="302"/>
	  <point x="97" y="295" type="curve" smooth="yes"/>
	</contour>
  </outline>
</glyph>
<glyph name="Q" format="1">
  <advance width="415"/>
  <unicode hex="0051"/>
  <outline>
	<contour>
	  <point x="325" y="0" type="line"/>
	  <point x="319" y="9"/>
	  <point x="313" y="17"/>
	  <point x="306" y="25" type="curve"/>
	  <point x="276" y="5"/>
	  <point x="243" y="-5"/>
	  <point x="208" y="-5" type="curve" smooth="yes"/>
	  <point x="157" y="-5"/>
	  <point x="114" y="13"/>
	  <point x="78" y="50" type="curve" smooth="yes"/>
	  <point x="43" y="86"/>
	  <point x="25" y="130"/>
	  <point x="25" y="183" type="curve" smooth="yes"/>
	  <point x="25" y="236"/>
	  <point x="43" y="280"/>
	  <point x="78" y="317" type="curve" smooth="yes"/>
	  <point x="113" y="354"/>
	  <point x="157" y="372"/>
	  <point x="208" y="372" type="curve" smooth="yes"/>
	  <point x="258" y="372"/>
	  <point x="301" y="354"/>
	  <point x="337" y="317" type="curve" smooth="yes"/>
	  <point x="373" y="279"/>
	  <point x="391" y="234"/>
	  <point x="391" y="183" type="curve" smooth="yes"/>
	  <point x="391" y="134"/>
	  <point x="374" y="90"/>
	  <point x="339" y="51" type="curve"/>
	  <point x="345" y="45" type="line" smooth="yes"/>
	  <point x="363" y="28"/>
	  <point x="382" y="13"/>
	  <point x="403" y="0" type="curve"/>
	</contour>
	<contour>
	  <point x="261" y="134" type="line"/>
	  <point x="268" y="124"/>
	  <point x="276" y="115"/>
	  <point x="284" y="106" type="curve"/>
	  <point x="291" y="97"/>
	  <point x="299" y="89"/>
	  <point x="306" y="81" type="curve"/>
	  <point x="309" y="79" type="line"/>
	  <point x="328" y="114"/>
	  <point x="337" y="149"/>
	  <point x="337" y="183" type="curve" smooth="yes"/>
	  <point x="337" y="225"/>
	  <point x="325" y="261"/>
	  <point x="302" y="291" type="curve" smooth="yes"/>
	  <point x="277" y="325"/>
	  <point x="245" y="342"/>
	  <point x="208" y="342" type="curve" smooth="yes"/>
	  <point x="170" y="342"/>
	  <point x="138" y="325"/>
	  <point x="112" y="291" type="curve" smooth="yes"/>
	  <point x="89" y="262"/>
	  <point x="78" y="226"/>
	  <point x="78" y="183" type="curve" smooth="yes"/>
	  <point x="78" y="141"/>
	  <point x="89" y="105"/>
	  <point x="112" y="76" type="curve" smooth="yes"/>
	  <point x="138" y="43"/>
	  <point x="170" y="26"/>
	  <point x="208" y="26" type="curve" smooth="yes"/>
	  <point x="236" y="26"/>
	  <point x="260" y="35"/>
	  <point x="281" y="52" type="curve"/>
	  <point x="276" y="56" type="line"/>
	  <point x="241" y="89" type="line" smooth="yes"/>
	  <point x="224" y="104"/>
	  <point x="205" y="119"/>
	  <point x="183" y="134" type="curve"/>
	</contour>
  </outline>
</glyph>
<glyph name="R" format="1">
  <advance width="307"/>
  <unicode hex="0052"/>
  <outline>
	<contour>
	  <point x="97" y="179" type="line"/>
	  <point x="126" y="179" type="line" smooth="yes"/>
	  <point x="150" y="179"/>
	  <point x="170" y="187"/>
	  <point x="185" y="202" type="curve" smooth="yes"/>
	  <point x="198" y="215"/>
	  <point x="205" y="234"/>
	  <point x="205" y="258" type="curve" smooth="yes"/>
	  <point x="205" y="281"/>
	  <point x="198" y="299"/>
	  <point x="185" y="314" type="curve"/>
	  <point x="168" y="329"/>
	  <point x="149" y="337"/>
	  <point x="126" y="337" type="curve" smooth="yes"/>
	  <point x="100" y="337" type="line"/>
	  <point x="99" y="330"/>
	  <point x="99" y="323"/>
	  <point x="98" y="316" type="curve" smooth="yes"/>
	  <point x="97" y="309"/>
	  <point x="97" y="302"/>
	  <point x="97" y="295" type="curve" smooth="yes"/>
	</contour>
	<contour>
	  <point x="42" y="0" type="line"/>
	  <point x="46" y="24"/>
	  <point x="48" y="48"/>
	  <point x="48" y="73" type="curve" smooth="yes"/>
	  <point x="48" y="295" type="line" smooth="yes"/>
	  <point x="48" y="318"/>
	  <point x="46" y="342"/>
	  <point x="42" y="367" type="curve"/>
	  <point x="126" y="367" type="line" smooth="yes"/>
	  <point x="166" y="367"/>
	  <point x="198" y="357"/>
	  <point x="221" y="336" type="curve"/>
	  <point x="246" y="315"/>
	  <point x="258" y="289"/>
	  <point x="258" y="258" type="curve" smooth="yes"/>
	  <point x="258" y="226"/>
	  <point x="246" y="200"/>
	  <point x="221" y="179" type="curve"/>
	  <point x="216" y="176"/>
	  <point x="212" y="172"/>
	  <point x="207" y="169" type="curve" smooth="yes"/>
	  <point x="202" y="166"/>
	  <point x="197" y="163"/>
	  <point x="192" y="161" type="curve"/>
	  <point x="261" y="57" type="line" smooth="yes"/>
	  <point x="275" y="36"/>
	  <point x="290" y="17"/>
	  <point x="307" y="0" type="curve"/>
	  <point x="234" y="0" type="line"/>
	  <point x="229" y="12"/>
	  <point x="223" y="23"/>
	  <point x="218" y="34" type="curve" smooth="yes"/>
	  <point x="213" y="45"/>
	  <point x="206" y="55"/>
	  <point x="199" y="65" type="curve" smooth="yes"/>
	  <point x="144" y="149" type="line"/>
	  <point x="141" y="149"/>
	  <point x="138" y="149"/>
	  <point x="136" y="149" type="curve"/>
	  <point x="133" y="148"/>
	  <point x="130" y="148"/>
	  <point x="126" y="148" type="curve" smooth="yes"/>
	  <point x="97" y="148" type="line"/>
	  <point x="97" y="73" type="line" smooth="yes"/>
	  <point x="97" y="47"/>
	  <point x="100" y="23"/>
	  <point x="105" y="0" type="curve"/>
	</contour>
  </outline>
</glyph>
<glyph name="S" format="1">
  <advance width="257"/>
  <unicode hex="0053"/>
  <outline>
	<contour>
	  <point x="19" y="94" type="line"/>
	  <point x="21" y="94" type="line"/>
	  <point x="29" y="79"/>
	  <point x="37" y="68"/>
	  <point x="45" y="59" type="curve" smooth="yes"/>
	  <point x="64" y="37"/>
	  <point x="86" y="26"/>
	  <point x="111" y="26" type="curve" smooth="yes"/>
	  <point x="138" y="26"/>
	  <point x="158" y="34"/>
	  <point x="171" y="50" type="curve" smooth="yes"/>
	  <point x="184" y="65"/>
	  <point x="191" y="83"/>
	  <point x="191" y="104" type="curve" smooth="yes"/>
	  <point x="191" y="132"/>
	  <point x="177" y="153"/>
	  <point x="149" y="168" type="curve" smooth="yes"/>
	  <point x="96" y="197" type="line" smooth="yes"/>
	  <point x="57" y="219"/>
	  <point x="37" y="250"/>
	  <point x="37" y="289" type="curve" smooth="yes"/>
	  <point x="37" y="317"/>
	  <point x="49" y="340"/>
	  <point x="74" y="357" type="curve" smooth="yes"/>
	  <point x="88" y="367"/>
	  <point x="108" y="372"/>
	  <point x="135" y="372" type="curve" smooth="yes"/>
	  <point x="158" y="372"/>
	  <point x="177" y="364"/>
	  <point x="194" y="349" type="curve"/>
	  <point x="194" y="298" type="line"/>
	  <point x="192" y="298" type="line"/>
	  <point x="191" y="300"/>
	  <point x="189" y="302"/>
	  <point x="188" y="305" type="curve"/>
	  <point x="186" y="308"/>
	  <point x="184" y="310"/>
	  <point x="183" y="313" type="curve"/>
	  <point x="171" y="332"/>
	  <point x="155" y="342"/>
	  <point x="136" y="342" type="curve" smooth="yes"/>
	  <point x="119" y="342"/>
	  <point x="106" y="338"/>
	  <point x="99" y="330" type="curve"/>
	  <point x="87" y="320"/>
	  <point x="81" y="307"/>
	  <point x="81" y="291" type="curve" smooth="yes"/>
	  <point x="81" y="270"/>
	  <point x="93" y="254"/>
	  <point x="118" y="241" type="curve" smooth="yes"/>
	  <point x="167" y="215" type="line" smooth="yes"/>
	  <point x="214" y="191"/>
	  <point x="237" y="156"/>
	  <point x="237" y="110" type="curve" smooth="yes"/>
	  <point x="237" y="76"/>
	  <point x="225" y="49"/>
	  <point x="202" y="29" type="curve" smooth="yes"/>
	  <point x="177" y="6"/>
	  <point x="146" y="-5"/>
	  <point x="108" y="-5" type="curve" smooth="yes"/>
	  <point x="75" y="-5"/>
	  <point x="45" y="7"/>
	  <point x="19" y="31" type="curve"/>
	</contour>
  </outline>
</glyph>
<glyph name="T" format="1">
  <advance width="270"/>
  <unicode hex="0054"/>
  <outline>
	<contour>
	  <point x="103" y="0" type="line"/>
	  <point x="108" y="23"/>
	  <point x="110" y="47"/>
	  <point x="110" y="73" type="curve" smooth="yes"/>
	  <point x="110" y="295" type="line" smooth="yes"/>
	  <point x="110" y="302"/>
	  <point x="110" y="309"/>
	  <point x="110" y="316" type="curve" smooth="yes"/>
	  <point x="110" y="323"/>
	  <point x="109" y="330"/>
	  <point x="108" y="337" type="curve"/>
	  <point x="78" y="337" type="line" smooth="yes"/>
	  <point x="66" y="337"/>
	  <point x="54" y="336"/>
	  <point x="42" y="335" type="curve" smooth="yes"/>
	  <point x="30" y="334"/>
	  <point x="18" y="332"/>
	  <point x="5" y="330" type="curve"/>
	  <point x="5" y="367" type="line"/>
	  <point x="265" y="367" type="line"/>
	  <point x="265" y="330" type="line"/>
	  <point x="252" y="332"/>
	  <point x="240" y="334"/>
	  <point x="228" y="335" type="curve" smooth="yes"/>
	  <point x="216" y="336"/>
	  <point x="204" y="337"/>
	  <point x="192" y="337" type="curve" smooth="yes"/>
	  <point x="162" y="337" type="line"/>
	  <point x="161" y="330"/>
	  <point x="160" y="323"/>
	  <point x="160" y="316" type="curve" smooth="yes"/>
	  <point x="160" y="309"/>
	  <point x="160" y="302"/>
	  <point x="160" y="295" type="curve" smooth="yes"/>
	  <point x="160" y="73" type="line" smooth="yes"/>
	  <point x="160" y="47"/>
	  <point x="162" y="23"/>
	  <point x="167" y="0" type="curve"/>
	</contour>
  </outline>
</glyph>
<glyph name="U" format="1">
  <advance width="381"/>
  <unicode hex="0055"/>
  <outline>
	<contour>
	  <point x="277" y="0" type="line"/>
	  <point x="279" y="7"/>
	  <point x="280" y="15"/>
	  <point x="281" y="22" type="curve" smooth="yes"/>
	  <point x="282" y="29"/>
	  <point x="283" y="36"/>
	  <point x="284" y="43" type="curve"/>
	  <point x="254" y="11"/>
	  <point x="221" y="-5"/>
	  <point x="184" y="-5" type="curve" smooth="yes"/>
	  <point x="143" y="-5"/>
	  <point x="109" y="10"/>
	  <point x="82" y="41" type="curve" smooth="yes"/>
	  <point x="59" y="67"/>
	  <point x="48" y="106"/>
	  <point x="48" y="157" type="curve" smooth="yes"/>
	  <point x="48" y="295" type="line" smooth="yes"/>
	  <point x="48" y="318"/>
	  <point x="46" y="342"/>
	  <point x="42" y="367" type="curve"/>
	  <point x="105" y="367" type="line"/>
	  <point x="102" y="355"/>
	  <point x="100" y="343"/>
	  <point x="99" y="331" type="curve" smooth="yes"/>
	  <point x="98" y="319"/>
	  <point x="97" y="307"/>
	  <point x="97" y="295" type="curve" smooth="yes"/>
	  <point x="97" y="157" type="line" smooth="yes"/>
	  <point x="97" y="120"/>
	  <point x="103" y="92"/>
	  <point x="115" y="74" type="curve"/>
	  <point x="132" y="46"/>
	  <point x="158" y="32"/>
	  <point x="191" y="32" type="curve" smooth="yes"/>
	  <point x="222" y="32"/>
	  <point x="246" y="45"/>
	  <point x="265" y="70" type="curve"/>
	  <point x="278" y="90"/>
	  <point x="285" y="119"/>
	  <point x="285" y="157" type="curve" smooth="yes"/>
	  <point x="285" y="295" type="line" smooth="yes"/>
	  <point x="285" y="307"/>
	  <point x="284" y="319"/>
	  <point x="283" y="331" type="curve" smooth="yes"/>
	  <point x="282" y="343"/>
	  <point x="280" y="355"/>
	  <point x="277" y="367" type="curve"/>
	  <point x="341" y="367" type="line"/>
	  <point x="338" y="355"/>
	  <point x="336" y="343"/>
	  <point x="335" y="331" type="curve" smooth="yes"/>
	  <point x="334" y="319"/>
	  <point x="333" y="307"/>
	  <point x="333" y="295" type="curve" smooth="yes"/>
	  <point x="333" y="73" type="line" smooth="yes"/>
	  <point x="333" y="47"/>
	  <point x="336" y="23"/>
	  <point x="341" y="0" type="curve"/>
	</contour>
  </outline>
</glyph>
<glyph name="V" format="1">
  <advance width="385"/>
  <unicode hex="0056"/>
  <outline>
	<contour>
	  <point x="170" y="0" type="line"/>
	  <point x="167" y="13"/>
	  <point x="163" y="25"/>
	  <point x="159" y="37" type="curve" smooth="yes"/>
	  <point x="155" y="49"/>
	  <point x="151" y="60"/>
	  <point x="146" y="70" type="curve" smooth="yes"/>
	  <point x="37" y="304" type="line" smooth="yes"/>
	  <point x="32" y="314"/>
	  <point x="27" y="324"/>
	  <point x="21" y="335" type="curve" smooth="yes"/>
	  <point x="15" y="346"/>
	  <point x="8" y="356"/>
	  <point x="0" y="367" type="curve"/>
	  <point x="69" y="367" type="line"/>
	  <point x="75" y="342"/>
	  <point x="83" y="319"/>
	  <point x="93" y="298" type="curve" smooth="yes"/>
	  <point x="200" y="63" type="line"/>
	  <point x="306" y="298" type="line" smooth="yes"/>
	  <point x="311" y="309"/>
	  <point x="316" y="321"/>
	  <point x="320" y="332" type="curve" smooth="yes"/>
	  <point x="324" y="343"/>
	  <point x="327" y="355"/>
	  <point x="330" y="367" type="curve"/>
	  <point x="385" y="367" type="line"/>
	  <point x="377" y="356"/>
	  <point x="370" y="346"/>
	  <point x="364" y="335" type="curve" smooth="yes"/>
	  <point x="358" y="324"/>
	  <point x="352" y="314"/>
	  <point x="347" y="304" type="curve" smooth="yes"/>
	  <point x="239" y="70" type="line" smooth="yes"/>
	  <point x="229" y="48"/>
	  <point x="221" y="25"/>
	  <point x="214" y="0" type="curve"/>
	</contour>
  </outline>
</glyph>
<glyph name="W" format="1">
  <advance width="482"/>
  <unicode hex="0057"/>
  <outline>
	<contour>
	  <point x="111" y="0" type="line"/>
	  <point x="109" y="26"/>
	  <point x="105" y="50"/>
	  <point x="99" y="72" type="curve" smooth="yes"/>
	  <point x="32" y="299" type="line"/>
	  <point x="29" y="312"/>
	  <point x="25" y="324"/>
	  <point x="20" y="335" type="curve" smooth="yes"/>
	  <point x="15" y="346"/>
	  <point x="10" y="357"/>
	  <point x="5" y="367" type="curve"/>
	  <point x="69" y="367" type="line"/>
	  <point x="71" y="342"/>
	  <point x="75" y="318"/>
	  <point x="81" y="295" type="curve" smooth="yes"/>
	  <point x="147" y="73" type="line"/>
	  <point x="212" y="295" type="line" smooth="yes"/>
	  <point x="219" y="317"/>
	  <point x="224" y="341"/>
	  <point x="226" y="367" type="curve"/>
	  <point x="273" y="367" type="line"/>
	  <point x="275" y="342"/>
	  <point x="279" y="318"/>
	  <point x="286" y="295" type="curve" smooth="yes"/>
	  <point x="351" y="73" type="line"/>
	  <point x="417" y="295" type="line" smooth="yes"/>
	  <point x="424" y="317"/>
	  <point x="428" y="341"/>
	  <point x="431" y="367" type="curve"/>
	  <point x="478" y="367" type="line"/>
	  <point x="472" y="357"/>
	  <point x="467" y="346"/>
	  <point x="463" y="335" type="curve"/>
	  <point x="458" y="324"/>
	  <point x="454" y="312"/>
	  <point x="450" y="299" type="curve" smooth="yes"/>
	  <point x="385" y="72" type="line"/>
	  <point x="381" y="61"/>
	  <point x="378" y="49"/>
	  <point x="376" y="37" type="curve" smooth="yes"/>
	  <point x="374" y="24"/>
	  <point x="372" y="12"/>
	  <point x="371" y="0" type="curve"/>
	  <point x="316" y="0" type="line"/>
	  <point x="314" y="26"/>
	  <point x="310" y="50"/>
	  <point x="303" y="72" type="curve" smooth="yes"/>
	  <point x="241" y="283" type="line"/>
	  <point x="180" y="72" type="line" smooth="yes"/>
	  <point x="177" y="61"/>
	  <point x="174" y="49"/>
	  <point x="172" y="37" type="curve"/>
	  <point x="169" y="24"/>
	  <point x="167" y="12"/>
	  <point x="166" y="0" type="curve"/>
	</contour>
  </outline>
</glyph>
<glyph name="Y" format="1">
  <advance width="321"/>
  <unicode hex="0059"/>
  <outline>
	<contour>
	  <point x="129" y="0" type="line"/>
	  <point x="134" y="23"/>
	  <point x="136" y="47"/>
	  <point x="136" y="73" type="curve" smooth="yes"/>
	  <point x="136" y="155" type="line"/>
	  <point x="44" y="309" type="line" smooth="yes"/>
	  <point x="37" y="320"/>
	  <point x="30" y="330"/>
	  <point x="23" y="340" type="curve"/>
	  <point x="16" y="349"/>
	  <point x="8" y="358"/>
	  <point x="0" y="367" type="curve"/>
	  <point x="70" y="367" type="line"/>
	  <point x="77" y="346"/>
	  <point x="87" y="324"/>
	  <point x="101" y="301" type="curve" smooth="yes"/>
	  <point x="168" y="185" type="line"/>
	  <point x="236" y="301" type="line"/>
	  <point x="241" y="311"/>
	  <point x="247" y="322"/>
	  <point x="252" y="333" type="curve" smooth="yes"/>
	  <point x="257" y="344"/>
	  <point x="262" y="355"/>
	  <point x="267" y="367" type="curve"/>
	  <point x="321" y="367" type="line"/>
	  <point x="314" y="358"/>
	  <point x="306" y="349"/>
	  <point x="299" y="340" type="curve" smooth="yes"/>
	  <point x="291" y="330"/>
	  <point x="284" y="320"/>
	  <point x="279" y="309" type="curve"/>
	  <point x="185" y="153" type="line"/>
	  <point x="185" y="73" type="line" smooth="yes"/>
	  <point x="185" y="48"/>
	  <point x="187" y="23"/>
	  <point x="192" y="0" type="curve"/>
	</contour>
  </outline>
</glyph>
<glyph name="Z" format="1">
  <advance width="330"/>
  <unicode hex="005A"/>
  <outline>
	<contour>
	  <point x="25" y="0" type="line"/>
	  <point x="15" y="30" type="line"/>
	  <point x="33" y="47"/>
	  <point x="49" y="66"/>
	  <point x="63" y="85" type="curve" smooth="yes"/>
	  <point x="244" y="337" type="line"/>
	  <point x="119" y="337" type="line" smooth="yes"/>
	  <point x="107" y="337"/>
	  <point x="95" y="336"/>
	  <point x="83" y="335" type="curve" smooth="yes"/>
	  <point x="70" y="334"/>
	  <point x="58" y="332"/>
	  <point x="46" y="330" type="curve"/>
	  <point x="46" y="367" type="line"/>
	  <point x="301" y="367" type="line"/>
	  <point x="311" y="337" type="line"/>
	  <point x="294" y="322"/>
	  <point x="277" y="304"/>
	  <point x="261" y="283" type="curve" smooth="yes"/>
	  <point x="78" y="30" type="line"/>
	  <point x="238" y="30" type="line" smooth="yes"/>
	  <point x="267" y="30"/>
	  <point x="291" y="32"/>
	  <point x="311" y="37" type="curve"/>
	  <point x="311" y="0" type="line"/>
	</contour>
  </outline>
</glyph>
<glyph name="bracketleft" format="1">
  <advance width="195"/>
  <unicode hex="005B"/>
  <outline>
	<contour>
	  <point x="183" y="429" type="line"/>
	  <point x="183" y="391" type="line"/>
	  <point x="158" y="395"/>
	  <point x="134" y="397"/>
	  <point x="110" y="397" type="curve" smooth="yes"/>
	  <point x="100" y="397" type="line"/>
	  <point x="99" y="394"/>
	  <point x="99" y="389"/>
	  <point x="98" y="382" type="curve" smooth="yes"/>
	  <point x="97" y="375"/>
	  <point x="97" y="366"/>
	  <point x="97" y="355" type="curve" smooth="yes"/>
	  <point x="97" y="12" type="line" smooth="yes"/>
	  <point x="97" y="8"/>
	  <point x="97" y="3"/>
	  <point x="98" y="-4" type="curve" smooth="yes"/>
	  <point x="99" y="-11"/>
	  <point x="99" y="-20"/>
	  <point x="100" y="-31" type="curve"/>
	  <point x="110" y="-31" type="line" smooth="yes"/>
	  <point x="123" y="-31"/>
	  <point x="136" y="-30"/>
	  <point x="148" y="-29" type="curve" smooth="yes"/>
	  <point x="159" y="-28"/>
	  <point x="171" y="-26"/>
	  <point x="183" y="-24" type="curve"/>
	  <point x="183" y="-61" type="line"/>
	  <point x="42" y="-61" type="line"/>
	  <point x="46" y="-44"/>
	  <point x="48" y="-19"/>
	  <point x="48" y="12" type="curve" smooth="yes"/>
	  <point x="48" y="355" type="line" smooth="yes"/>
	  <point x="48" y="372"/>
	  <point x="46" y="397"/>
	  <point x="42" y="429" type="curve"/>
	</contour>
  </outline>
</glyph>
<glyph name="backslash" format="1">
  <advance width="274"/>
  <unicode hex="005C"/>
  <outline>
	<contour>
	  <point x="212" y="-44" type="line"/>
	  <point x="209" y="-31"/>
	  <point x="205" y="-19"/>
	  <point x="201" y="-7" type="curve" smooth="yes"/>
	  <point x="197" y="5"/>
	  <point x="193" y="16"/>
	  <point x="189" y="26" type="curve"/>
	  <point x="40" y="348" type="line" smooth="yes"/>
	  <point x="30" y="370"/>
	  <point x="17" y="391"/>
	  <point x="2" y="411" type="curve"/>
	  <point x="61" y="411" type="line"/>
	  <point x="64" y="399"/>
	  <point x="68" y="387"/>
	  <point x="72" y="376" type="curve"/>
	  <point x="75" y="365"/>
	  <point x="80" y="353"/>
	  <point x="86" y="342" type="curve"/>
	  <point x="234" y="19" type="line" smooth="yes"/>
	  <point x="239" y="9"/>
	  <point x="244" y="-1"/>
	  <point x="250" y="-11" type="curve"/>
	  <point x="256" y="-22"/>
	  <point x="263" y="-33"/>
	  <point x="271" y="-44" type="curve"/>
	</contour>
  </outline>
</glyph>
<glyph name="bracketright" format="1">
  <advance width="195"/>
  <unicode hex="005D"/>
  <outline>
	<contour>
	  <point x="12" y="429" type="line"/>
	  <point x="154" y="429" type="line"/>
	  <point x="149" y="400"/>
	  <point x="147" y="375"/>
	  <point x="147" y="355" type="curve" smooth="yes"/>
	  <point x="147" y="12" type="line" smooth="yes"/>
	  <point x="147" y="-21"/>
	  <point x="149" y="-46"/>
	  <point x="154" y="-61" type="curve"/>
	  <point x="12" y="-61" type="line"/>
	  <point x="12" y="-24" type="line"/>
	  <point x="24" y="-26"/>
	  <point x="36" y="-28"/>
	  <point x="48" y="-29" type="curve" smooth="yes"/>
	  <point x="60" y="-30"/>
	  <point x="72" y="-31"/>
	  <point x="85" y="-31" type="curve" smooth="yes"/>
	  <point x="96" y="-31" type="line"/>
	  <point x="97" y="-20"/>
	  <point x="97" y="-11"/>
	  <point x="98" y="-4" type="curve" smooth="yes"/>
	  <point x="99" y="3"/>
	  <point x="99" y="8"/>
	  <point x="99" y="12" type="curve" smooth="yes"/>
	  <point x="99" y="355" type="line" smooth="yes"/>
	  <point x="99" y="377"/>
	  <point x="98" y="391"/>
	  <point x="95" y="397" type="curve"/>
	  <point x="85" y="397" type="line" smooth="yes"/>
	  <point x="60" y="397"/>
	  <point x="36" y="395"/>
	  <point x="12" y="391" type="curve"/>
	</contour>
  </outline>
</glyph>
<glyph name="asciicircum" format="1">
  <advance width="281"/>
  <unicode hex="005E"/>
  <outline>
	<contour>
	  <point x="169" y="372" type="line"/>
	  <point x="178" y="345"/>
	  <point x="198" y="319"/>
	  <point x="231" y="295" type="curve"/>
	  <point x="231" y="291" type="line"/>
	  <point x="172" y="291" type="line"/>
	  <point x="157" y="307"/>
	  <point x="147" y="326"/>
	  <point x="140" y="347" type="curve"/>
	  <point x="133" y="326"/>
	  <point x="122" y="307"/>
	  <point x="108" y="291" type="curve"/>
	  <point x="48" y="291" type="line"/>
	  <point x="48" y="295" type="line"/>
	  <point x="82" y="318"/>
	  <point x="103" y="344"/>
	  <point x="111" y="372" type="curve"/>
	</contour>
  </outline>
</glyph>
<glyph name="underscore" format="1">
  <advance width="300"/>
  <unicode hex="005F"/>
  <outline>
	<contour>
	  <point x="48" y="-10" type="line"/>
	  <point x="71" y="-15"/>
	  <point x="95" y="-17"/>
	  <point x="122" y="-17" type="curve" smooth="yes"/>
	  <point x="178" y="-17" type="line" smooth="yes"/>
	  <point x="204" y="-17"/>
	  <point x="229" y="-15"/>
	  <point x="252" y="-10" type="curve"/>
	  <point x="252" y="-55" type="line"/>
	  <point x="229" y="-50"/>
	  <point x="204" y="-47"/>
	  <point x="178" y="-47" type="curve" smooth="yes"/>
	  <point x="122" y="-47" type="line" smooth="yes"/>
	  <point x="95" y="-47"/>
	  <point x="71" y="-50"/>
	  <point x="48" y="-55" type="curve"/>
	</contour>
  </outline>
</glyph>
<glyph name="grave" format="1">
  <advance width="194"/>
  <unicode hex="0060"/>
  <outline>
	<contour>
	  <point x="48" y="372" type="line"/>
	  <point x="107" y="372" type="line"/>
	  <point x="107" y="345"/>
	  <point x="120" y="319"/>
	  <point x="146" y="295" type="curve"/>
	  <point x="146" y="291" type="line"/>
	  <point x="111" y="291" type="line"/>
	  <point x="96" y="304"/>
	  <point x="83" y="316"/>
	  <point x="73" y="329" type="curve"/>
	  <point x="62" y="342"/>
	  <point x="54" y="355"/>
	  <point x="48" y="370" type="curve"/>
	</contour>
  </outline>
</glyph>
<glyph name="a" format="1">
  <advance width="330"/>
  <unicode hex="0061"/>
  <outline>
	<contour>
	  <point x="225" y="0" type="line"/>
	  <point x="226" y="4"/>
	  <point x="227" y="8"/>
	  <point x="228" y="13" type="curve"/>
	  <point x="228" y="18"/>
	  <point x="228" y="22"/>
	  <point x="229" y="27" type="curve"/>
	  <point x="210" y="6"/>
	  <point x="186" y="-5"/>
	  <point x="155" y="-5" type="curve" smooth="yes"/>
	  <point x="116" y="-5"/>
	  <point x="84" y="10"/>
	  <point x="59" y="39" type="curve" smooth="yes"/>
	  <point x="36" y="67"/>
	  <point x="25" y="99"/>
	  <point x="25" y="134" type="curve" smooth="yes"/>
	  <point x="25" y="169"/>
	  <point x="36" y="200"/>
	  <point x="59" y="229" type="curve" smooth="yes"/>
	  <point x="83" y="258"/>
	  <point x="115" y="272"/>
	  <point x="155" y="272" type="curve" smooth="yes"/>
	  <point x="188" y="272"/>
	  <point x="213" y="262"/>
	  <point x="228" y="242" type="curve"/>
	  <point x="228" y="248"/>
	  <point x="227" y="254"/>
	  <point x="225" y="260" type="curve"/>
	  <point x="288" y="272" type="line"/>
	  <point x="286" y="260"/>
	  <point x="284" y="248"/>
	  <point x="283" y="237" type="curve" smooth="yes"/>
	  <point x="282" y="225"/>
	  <point x="281" y="212"/>
	  <point x="281" y="199" type="curve" smooth="yes"/>
	  <point x="281" y="73" type="line" smooth="yes"/>
	  <point x="281" y="61"/>
	  <point x="282" y="49"/>
	  <point x="283" y="37" type="curve" smooth="yes"/>
	  <point x="284" y="24"/>
	  <point x="286" y="12"/>
	  <point x="288" y="0" type="curve"/>
	</contour>
	<contour>
	  <point x="196" y="232"/>
	  <point x="178" y="242"/>
	  <point x="155" y="242" type="curve" smooth="yes"/>
	  <point x="132" y="242"/>
	  <point x="113" y="232"/>
	  <point x="100" y="212" type="curve"/>
	  <point x="85" y="195"/>
	  <point x="78" y="169"/>
	  <point x="78" y="134" type="curve" smooth="yes"/>
	  <point x="78" y="99"/>
	  <point x="85" y="73"/>
	  <point x="100" y="55" type="curve"/>
	  <point x="113" y="36"/>
	  <point x="132" y="26"/>
	  <point x="155" y="26" type="curve" smooth="yes"/>
	  <point x="178" y="26"/>
	  <point x="196" y="36"/>
	  <point x="211" y="55" type="curve" smooth="yes"/>
	  <point x="225" y="73"/>
	  <point x="232" y="99"/>
	  <point x="232" y="134" type="curve" smooth="yes"/>
	  <point x="232" y="169"/>
	  <point x="225" y="195"/>
	  <point x="211" y="212" type="curve"/>
	</contour>
  </outline>
</glyph>
<glyph name="b" format="1">
  <advance width="330"/>
  <unicode hex="0062"/>
  <outline>
	<contour>
	  <point x="215" y="232"/>
	  <point x="197" y="242"/>
	  <point x="175" y="242" type="curve" smooth="yes"/>
	  <point x="152" y="242"/>
	  <point x="134" y="232"/>
	  <point x="119" y="212" type="curve"/>
	  <point x="104" y="195"/>
	  <point x="97" y="169"/>
	  <point x="97" y="134" type="curve" smooth="yes"/>
	  <point x="97" y="99"/>
	  <point x="104" y="73"/>
	  <point x="119" y="55" type="curve" smooth="yes"/>
	  <point x="134" y="36"/>
	  <point x="152" y="26"/>
	  <point x="175" y="26" type="curve" smooth="yes"/>
	  <point x="197" y="26"/>
	  <point x="215" y="36"/>
	  <point x="230" y="55" type="curve" smooth="yes"/>
	  <point x="245" y="73"/>
	  <point x="252" y="99"/>
	  <point x="252" y="134" type="curve" smooth="yes"/>
	  <point x="252" y="169"/>
	  <point x="245" y="195"/>
	  <point x="230" y="212" type="curve"/>
	</contour>
	<contour>
	  <point x="42" y="0" type="line"/>
	  <point x="46" y="26"/>
	  <point x="48" y="50"/>
	  <point x="48" y="73" type="curve" smooth="yes"/>
	  <point x="48" y="287" type="line" smooth="yes"/>
	  <point x="48" y="310"/>
	  <point x="46" y="335"/>
	  <point x="42" y="360" type="curve"/>
	  <point x="105" y="372" type="line"/>
	  <point x="100" y="350"/>
	  <point x="97" y="326"/>
	  <point x="97" y="299" type="curve" smooth="yes"/>
	  <point x="97" y="238" type="line"/>
	  <point x="116" y="261"/>
	  <point x="142" y="272"/>
	  <point x="175" y="272" type="curve" smooth="yes"/>
	  <point x="215" y="272"/>
	  <point x="247" y="258"/>
	  <point x="270" y="229" type="curve" smooth="yes"/>
	  <point x="293" y="201"/>
	  <point x="305" y="169"/>
	  <point x="305" y="134" type="curve" smooth="yes"/>
	  <point x="305" y="97"/>
	  <point x="293" y="65"/>
	  <point x="270" y="39" type="curve"/>
	  <point x="247" y="10"/>
	  <point x="215" y="-5"/>
	  <point x="175" y="-5" type="curve" smooth="yes"/>
	  <point x="143" y="-5"/>
	  <point x="118" y="6"/>
	  <point x="101" y="27" type="curve"/>
	  <point x="102" y="22"/>
	  <point x="102" y="18"/>
	  <point x="103" y="13" type="curve"/>
	  <point x="103" y="8"/>
	  <point x="104" y="4"/>
	  <point x="105" y="0" type="curve"/>
	</contour>
  </outline>
</glyph>
<glyph name="c" format="1">
  <advance width="281"/>
  <unicode hex="0063"/>
  <outline>
	<contour>
	  <point x="251" y="86" type="line"/>
	  <point x="251" y="39" type="line"/>
	  <point x="227" y="10"/>
	  <point x="195" y="-5"/>
	  <point x="155" y="-5" type="curve" smooth="yes"/>
	  <point x="116" y="-5"/>
	  <point x="84" y="10"/>
	  <point x="59" y="39" type="curve" smooth="yes"/>
	  <point x="36" y="66"/>
	  <point x="25" y="97"/>
	  <point x="25" y="134" type="curve" smooth="yes"/>
	  <point x="25" y="169"/>
	  <point x="36" y="200"/>
	  <point x="59" y="229" type="curve" smooth="yes"/>
	  <point x="83" y="258"/>
	  <point x="115" y="272"/>
	  <point x="155" y="272" type="curve" smooth="yes"/>
	  <point x="186" y="272"/>
	  <point x="213" y="263"/>
	  <point x="236" y="244" type="curve"/>
	  <point x="236" y="179" type="line"/>
	  <point x="234" y="179" type="line"/>
	  <point x="229" y="192"/>
	  <point x="222" y="203"/>
	  <point x="213" y="212" type="curve"/>
	  <point x="198" y="232"/>
	  <point x="178" y="242"/>
	  <point x="155" y="242" type="curve" smooth="yes"/>
	  <point x="133" y="242"/>
	  <point x="115" y="232"/>
	  <point x="100" y="212" type="curve"/>
	  <point x="85" y="195"/>
	  <point x="78" y="169"/>
	  <point x="78" y="134" type="curve" smooth="yes"/>
	  <point x="78" y="99"/>
	  <point x="85" y="73"/>
	  <point x="100" y="55" type="curve"/>
	  <point x="113" y="36"/>
	  <point x="132" y="26"/>
	  <point x="155" y="26" type="curve" smooth="yes"/>
	  <point x="194" y="26"/>
	  <point x="226" y="46"/>
	  <point x="249" y="86" type="curve"/>
	</contour>
  </outline>
</glyph>
<glyph name="e" format="1">
  <advance width="301"/>
  <unicode hex="0065"/>
  <outline>
	<contour>
	  <point x="261" y="86" type="line"/>
	  <point x="261" y="39" type="line"/>
	  <point x="236" y="10"/>
	  <point x="204" y="-5"/>
	  <point x="165" y="-5" type="curve" smooth="yes"/>
	  <point x="119" y="-5"/>
	  <point x="84" y="10"/>
	  <point x="59" y="39" type="curve" smooth="yes"/>
	  <point x="36" y="67"/>
	  <point x="25" y="99"/>
	  <point x="25" y="134" type="curve" smooth="yes"/>
	  <point x="25" y="169"/>
	  <point x="36" y="200"/>
	  <point x="59" y="229" type="curve" smooth="yes"/>
	  <point x="83" y="258"/>
	  <point x="115" y="272"/>
	  <point x="155" y="272" type="curve" smooth="yes"/>
	  <point x="196" y="272"/>
	  <point x="229" y="256"/>
	  <point x="253" y="224" type="curve"/>
	  <point x="268" y="201"/>
	  <point x="276" y="171"/>
	  <point x="276" y="134" type="curve"/>
	  <point x="275" y="119" type="line"/>
	  <point x="78" y="119" type="line"/>
	  <point x="80" y="90"/>
	  <point x="87" y="69"/>
	  <point x="100" y="55" type="curve"/>
	  <point x="115" y="36"/>
	  <point x="137" y="26"/>
	  <point x="166" y="26" type="curve" smooth="yes"/>
	  <point x="205" y="26"/>
	  <point x="235" y="46"/>
	  <point x="258" y="86" type="curve"/>
	</contour>
	<contour>
	  <point x="226" y="149" type="line"/>
	  <point x="226" y="177"/>
	  <point x="221" y="198"/>
	  <point x="210" y="212" type="curve" smooth="yes"/>
	  <point x="195" y="232"/>
	  <point x="176" y="242"/>
	  <point x="155" y="242" type="curve" smooth="yes"/>
	  <point x="132" y="242"/>
	  <point x="113" y="232"/>
	  <point x="100" y="212" type="curve"/>
	  <point x="87" y="197"/>
	  <point x="80" y="176"/>
	  <point x="78" y="149" type="curve"/>
	</contour>
  </outline>
</glyph>
<glyph name="f" format="1">
  <advance width="205"/>
  <unicode hex="0066"/>
  <outline>
	<contour>
	  <point x="42" y="0" type="line"/>
	  <point x="46" y="24"/>
	  <point x="48" y="48"/>
	  <point x="48" y="73" type="curve" smooth="yes"/>
	  <point x="48" y="189" type="line"/>
	  <point x="36" y="189"/>
	  <point x="24" y="186"/>
	  <point x="12" y="181" type="curve"/>
	  <point x="12" y="226" type="line"/>
	  <point x="24" y="221"/>
	  <point x="36" y="219"/>
	  <point x="48" y="219" type="curve"/>
	  <point x="48" y="258" type="line" smooth="yes"/>
	  <point x="48" y="289"/>
	  <point x="56" y="314"/>
	  <point x="71" y="333" type="curve" smooth="yes"/>
	  <point x="92" y="359"/>
	  <point x="119" y="372"/>
	  <point x="152" y="372" type="curve" smooth="yes"/>
	  <point x="169" y="372"/>
	  <point x="185" y="369"/>
	  <point x="199" y="362" type="curve"/>
	  <point x="199" y="306" type="line"/>
	  <point x="197" y="306" type="line"/>
	  <point x="186" y="330"/>
	  <point x="171" y="342"/>
	  <point x="151" y="342" type="curve" smooth="yes"/>
	  <point x="132" y="342"/>
	  <point x="117" y="333"/>
	  <point x="106" y="315" type="curve"/>
	  <point x="100" y="302"/>
	  <point x="97" y="283"/>
	  <point x="97" y="258" type="curve" smooth="yes"/>
	  <point x="97" y="219" type="line"/>
	  <point x="122" y="219"/>
	  <point x="145" y="221"/>
	  <point x="168" y="226" type="curve"/>
	  <point x="168" y="181" type="line"/>
	  <point x="145" y="186"/>
	  <point x="122" y="189"/>
	  <point x="97" y="189" type="curve"/>
	  <point x="97" y="73" type="line" smooth="yes"/>
	  <point x="97" y="61"/>
	  <point x="98" y="49"/>
	  <point x="99" y="37" type="curve" smooth="yes"/>
	  <point x="100" y="24"/>
	  <point x="102" y="12"/>
	  <point x="105" y="0" type="curve"/>
	</contour>
  </outline>
</glyph>
<glyph name="h" format="1">
  <advance width="332"/>
  <unicode hex="0068"/>
  <outline>
	<contour>
	  <point x="42" y="0" type="line"/>
	  <point x="46" y="24"/>
	  <point x="48" y="48"/>
	  <point x="48" y="73" type="curve" smooth="yes"/>
	  <point x="48" y="287" type="line" smooth="yes"/>
	  <point x="48" y="310"/>
	  <point x="46" y="335"/>
	  <point x="42" y="360" type="curve"/>
	  <point x="105" y="372" type="line"/>
	  <point x="100" y="350"/>
	  <point x="97" y="326"/>
	  <point x="97" y="299" type="curve" smooth="yes"/>
	  <point x="97" y="238" type="line"/>
	  <point x="116" y="261"/>
	  <point x="143" y="272"/>
	  <point x="180" y="272" type="curve" smooth="yes"/>
	  <point x="213" y="272"/>
	  <point x="240" y="259"/>
	  <point x="261" y="234" type="curve" smooth="yes"/>
	  <point x="276" y="215"/>
	  <point x="284" y="190"/>
	  <point x="284" y="159" type="curve" smooth="yes"/>
	  <point x="284" y="73" type="line" smooth="yes"/>
	  <point x="284" y="47"/>
	  <point x="286" y="23"/>
	  <point x="291" y="0" type="curve"/>
	  <point x="228" y="0" type="line"/>
	  <point x="233" y="24"/>
	  <point x="235" y="48"/>
	  <point x="235" y="73" type="curve" smooth="yes"/>
	  <point x="235" y="159" type="line" smooth="yes"/>
	  <point x="235" y="184"/>
	  <point x="231" y="201"/>
	  <point x="224" y="211" type="curve"/>
	  <point x="212" y="232"/>
	  <point x="193" y="242"/>
	  <point x="166" y="242" type="curve" smooth="yes"/>
	  <point x="139" y="242"/>
	  <point x="120" y="232"/>
	  <point x="108" y="211" type="curve"/>
	  <point x="101" y="201"/>
	  <point x="97" y="184"/>
	  <point x="97" y="159" type="curve" smooth="yes"/>
	  <point x="97" y="73" type="line" smooth="yes"/>
	  <point x="97" y="47"/>
	  <point x="100" y="23"/>
	  <point x="105" y="0" type="curve"/>
	</contour>
  </outline>
</glyph>
<glyph name="i" format="1">
  <advance width="146"/>
  <unicode hex="0069"/>
  <outline>
	<contour>
	  <point x="42" y="0" type="line"/>
	  <point x="46" y="24"/>
	  <point x="48" y="48"/>
	  <point x="48" y="73" type="curve" smooth="yes"/>
	  <point x="48" y="187" type="line" smooth="yes"/>
	  <point x="48" y="211"/>
	  <point x="46" y="235"/>
	  <point x="42" y="260" type="curve"/>
	  <point x="105" y="272" type="line"/>
	  <point x="100" y="250"/>
	  <point x="97" y="226"/>
	  <point x="97" y="199" type="curve" smooth="yes"/>
	  <point x="97" y="73" type="line" smooth="yes"/>
	  <point x="97" y="47"/>
	  <point x="100" y="23"/>
	  <point x="105" y="0" type="curve"/>
	</contour>
	<contour>
	  <point x="45" y="323"/>
	  <point x="42" y="331"/>
	  <point x="42" y="340" type="curve" smooth="yes"/>
	  <point x="42" y="348"/>
	  <point x="45" y="356"/>
	  <point x="50" y="363" type="curve"/>
	  <point x="57" y="369"/>
	  <point x="65" y="372"/>
	  <point x="73" y="372" type="curve" smooth="yes"/>
	  <point x="81" y="372"/>
	  <point x="88" y="369"/>
	  <point x="95" y="363" type="curve" smooth="yes"/>
	  <point x="102" y="357"/>
	  <point x="105" y="349"/>
	  <point x="105" y="340" type="curve" smooth="yes"/>
	  <point x="105" y="331"/>
	  <point x="102" y="324"/>
	  <point x="95" y="317" type="curve"/>
	  <point x="89" y="310"/>
	  <point x="82" y="307"/>
	  <point x="73" y="307" type="curve" smooth="yes"/>
	  <point x="64" y="307"/>
	  <point x="57" y="310"/>
	  <point x="50" y="317" type="curve"/>
	</contour>
  </outline>
</glyph>
<glyph name="j" format="1">
  <advance width="146"/>
  <unicode hex="006A"/>
  <outline>
	<contour>
	  <point x="105" y="272" type="line"/>
	  <point x="100" y="250"/>
	  <point x="97" y="226"/>
	  <point x="97" y="199" type="curve" smooth="yes"/>
	  <point x="97" y="-28" type="line" smooth="yes"/>
	  <point x="97" y="-79"/>
	  <point x="66" y="-105"/>
	  <point x="5" y="-105" type="curve"/>
	  <point x="5" y="-102" type="line"/>
	  <point x="34" y="-89"/>
	  <point x="48" y="-65"/>
	  <point x="48" y="-28" type="curve" smooth="yes"/>
	  <point x="48" y="187" type="line" smooth="yes"/>
	  <point x="48" y="211"/>
	  <point x="46" y="235"/>
	  <point x="42" y="260" type="curve"/>
	</contour>
	<contour>
	  <point x="45" y="323"/>
	  <point x="42" y="331"/>
	  <point x="42" y="340" type="curve" smooth="yes"/>
	  <point x="42" y="348"/>
	  <point x="45" y="356"/>
	  <point x="50" y="363" type="curve"/>
	  <point x="57" y="369"/>
	  <point x="65" y="372"/>
	  <point x="73" y="372" type="curve" smooth="yes"/>
	  <point x="81" y="372"/>
	  <point x="88" y="369"/>
	  <point x="95" y="363" type="curve" smooth="yes"/>
	  <point x="102" y="357"/>
	  <point x="105" y="349"/>
	  <point x="105" y="340" type="curve" smooth="yes"/>
	  <point x="105" y="331"/>
	  <point x="102" y="324"/>
	  <point x="95" y="317" type="curve"/>
	  <point x="89" y="310"/>
	  <point x="82" y="307"/>
	  <point x="73" y="307" type="curve" smooth="yes"/>
	  <point x="64" y="307"/>
	  <point x="57" y="310"/>
	  <point x="50" y="317" type="curve"/>
	</contour>
  </outline>
</glyph>
<glyph name="k" format="1">
  <advance width="309"/>
  <unicode hex="006B"/>
  <outline>
	<contour>
	  <point x="42" y="0" type="line"/>
	  <point x="46" y="24"/>
	  <point x="48" y="48"/>
	  <point x="48" y="73" type="curve" smooth="yes"/>
	  <point x="48" y="287" type="line" smooth="yes"/>
	  <point x="48" y="310"/>
	  <point x="46" y="335"/>
	  <point x="42" y="360" type="curve"/>
	  <point x="105" y="372" type="line"/>
	  <point x="100" y="350"/>
	  <point x="97" y="326"/>
	  <point x="97" y="299" type="curve" smooth="yes"/>
	  <point x="97" y="154" type="line"/>
	  <point x="157" y="210" type="line" smooth="yes"/>
	  <point x="176" y="227"/>
	  <point x="191" y="246"/>
	  <point x="204" y="268" type="curve"/>
	  <point x="268" y="268" type="line"/>
	  <point x="258" y="260"/>
	  <point x="248" y="252"/>
	  <point x="239" y="244" type="curve" smooth="yes"/>
	  <point x="230" y="236"/>
	  <point x="221" y="228"/>
	  <point x="212" y="220" type="curve" smooth="yes"/>
	  <point x="138" y="151" type="line"/>
	  <point x="251" y="45" type="line" smooth="yes"/>
	  <point x="260" y="37"/>
	  <point x="270" y="29"/>
	  <point x="280" y="22" type="curve"/>
	  <point x="289" y="14"/>
	  <point x="299" y="7"/>
	  <point x="309" y="0" type="curve"/>
	  <point x="221" y="0" type="line"/>
	  <point x="210" y="19"/>
	  <point x="193" y="37"/>
	  <point x="172" y="56" type="curve" smooth="yes"/>
	  <point x="106" y="117" type="line"/>
	  <point x="97" y="107" type="line"/>
	  <point x="97" y="73" type="line" smooth="yes"/>
	  <point x="97" y="47"/>
	  <point x="100" y="23"/>
	  <point x="105" y="0" type="curve"/>
	</contour>
  </outline>
</glyph>
<glyph name="l" format="1">
  <advance width="146"/>
  <unicode hex="006C"/>
  <outline>
	<contour>
	  <point x="42" y="0" type="line"/>
	  <point x="46" y="24"/>
	  <point x="48" y="48"/>
	  <point x="48" y="73" type="curve" smooth="yes"/>
	  <point x="48" y="287" type="line" smooth="yes"/>
	  <point x="48" y="310"/>
	  <point x="46" y="335"/>
	  <point x="42" y="360" type="curve"/>
	  <point x="105" y="372" type="line"/>
	  <point x="100" y="350"/>
	  <point x="97" y="326"/>
	  <point x="97" y="299" type="curve" smooth="yes"/>
	  <point x="97" y="73" type="line" smooth="yes"/>
	  <point x="97" y="47"/>
	  <point x="100" y="23"/>
	  <point x="105" y="0" type="curve"/>
	</contour>
  </outline>
</glyph>
<glyph name="m" format="1">
  <advance width="497"/>
  <unicode hex="006D"/>
  <outline>
	<contour>
	  <point x="42" y="0" type="line"/>
	  <point x="46" y="24"/>
	  <point x="48" y="48"/>
	  <point x="48" y="73" type="curve" smooth="yes"/>
	  <point x="48" y="187" type="line" smooth="yes"/>
	  <point x="48" y="211"/>
	  <point x="46" y="235"/>
	  <point x="42" y="260" type="curve"/>
	  <point x="105" y="272" type="line"/>
	  <point x="104" y="267"/>
	  <point x="103" y="262"/>
	  <point x="102" y="257" type="curve" smooth="yes"/>
	  <point x="101" y="252"/>
	  <point x="101" y="246"/>
	  <point x="100" y="240" type="curve"/>
	  <point x="119" y="261"/>
	  <point x="144" y="272"/>
	  <point x="174" y="272" type="curve" smooth="yes"/>
	  <point x="207" y="272"/>
	  <point x="233" y="259"/>
	  <point x="252" y="232" type="curve"/>
	  <point x="274" y="259"/>
	  <point x="303" y="272"/>
	  <point x="339" y="272" type="curve" smooth="yes"/>
	  <point x="376" y="272"/>
	  <point x="405" y="259"/>
	  <point x="426" y="234" type="curve"/>
	  <point x="441" y="214"/>
	  <point x="448" y="189"/>
	  <point x="448" y="159" type="curve" smooth="yes"/>
	  <point x="448" y="73" type="line" smooth="yes"/>
	  <point x="448" y="47"/>
	  <point x="450" y="23"/>
	  <point x="455" y="0" type="curve"/>
	  <point x="392" y="0" type="line"/>
	  <point x="397" y="23"/>
	  <point x="400" y="47"/>
	  <point x="400" y="73" type="curve" smooth="yes"/>
	  <point x="400" y="159" type="line" smooth="yes"/>
	  <point x="400" y="182"/>
	  <point x="396" y="200"/>
	  <point x="389" y="212" type="curve"/>
	  <point x="376" y="232"/>
	  <point x="358" y="242"/>
	  <point x="335" y="242" type="curve" smooth="yes"/>
	  <point x="312" y="242"/>
	  <point x="294" y="232"/>
	  <point x="283" y="213" type="curve"/>
	  <point x="276" y="202"/>
	  <point x="273" y="184"/>
	  <point x="273" y="159" type="curve" smooth="yes"/>
	  <point x="273" y="73" type="line" smooth="yes"/>
	  <point x="273" y="47"/>
	  <point x="276" y="23"/>
	  <point x="281" y="0" type="curve"/>
	  <point x="217" y="0" type="line"/>
	  <point x="222" y="24"/>
	  <point x="224" y="48"/>
	  <point x="224" y="73" type="curve" smooth="yes"/>
	  <point x="224" y="159" type="line" smooth="yes"/>
	  <point x="224" y="184"/>
	  <point x="220" y="202"/>
	  <point x="213" y="212" type="curve"/>
	  <point x="202" y="232"/>
	  <point x="184" y="242"/>
	  <point x="161" y="242" type="curve" smooth="yes"/>
	  <point x="137" y="242"/>
	  <point x="119" y="232"/>
	  <point x="108" y="213" type="curve"/>
	  <point x="101" y="202"/>
	  <point x="97" y="184"/>
	  <point x="97" y="159" type="curve" smooth="yes"/>
	  <point x="97" y="73" type="line" smooth="yes"/>
	  <point x="97" y="47"/>
	  <point x="100" y="23"/>
	  <point x="105" y="0" type="curve"/>
	</contour>
  </outline>
</glyph>
<glyph name="n" format="1">
  <advance width="332"/>
  <unicode hex="006E"/>
  <outline>
	<contour>
	  <point x="42" y="0" type="line"/>
	  <point x="46" y="24"/>
	  <point x="48" y="48"/>
	  <point x="48" y="73" type="curve" smooth="yes"/>
	  <point x="48" y="187" type="line" smooth="yes"/>
	  <point x="48" y="211"/>
	  <point x="46" y="235"/>
	  <point x="42" y="260" type="curve"/>
	  <point x="105" y="272" type="line"/>
	  <point x="104" y="267"/>
	  <point x="103" y="262"/>
	  <point x="102" y="257" type="curve" smooth="yes"/>
	  <point x="101" y="252"/>
	  <point x="101" y="246"/>
	  <point x="100" y="240" type="curve"/>
	  <point x="117" y="261"/>
	  <point x="144" y="272"/>
	  <point x="180" y="272" type="curve" smooth="yes"/>
	  <point x="213" y="272"/>
	  <point x="240" y="259"/>
	  <point x="261" y="234" type="curve" smooth="yes"/>
	  <point x="276" y="215"/>
	  <point x="284" y="190"/>
	  <point x="284" y="159" type="curve" smooth="yes"/>
	  <point x="284" y="73" type="line" smooth="yes"/>
	  <point x="284" y="47"/>
	  <point x="286" y="23"/>
	  <point x="291" y="0" type="curve"/>
	  <point x="228" y="0" type="line"/>
	  <point x="233" y="24"/>
	  <point x="235" y="48"/>
	  <point x="235" y="73" type="curve" smooth="yes"/>
	  <point x="235" y="159" type="line" smooth="yes"/>
	  <point x="235" y="184"/>
	  <point x="231" y="201"/>
	  <point x="224" y="211" type="curve"/>
	  <point x="212" y="232"/>
	  <point x="193" y="242"/>
	  <point x="166" y="242" type="curve" smooth="yes"/>
	  <point x="139" y="242"/>
	  <point x="120" y="232"/>
	  <point x="108" y="211" type="curve"/>
	  <point x="101" y="201"/>
	  <point x="97" y="184"/>
	  <point x="97" y="159" type="curve" smooth="yes"/>
	  <point x="97" y="73" type="line" smooth="yes"/>
	  <point x="97" y="47"/>
	  <point x="100" y="23"/>
	  <point x="105" y="0" type="curve"/>
	</contour>
  </outline>
</glyph>
<glyph name="o" format="1">
  <advance width="311"/>
  <unicode hex="006F"/>
  <outline>
	<contour>
	  <point x="196" y="232"/>
	  <point x="178" y="242"/>
	  <point x="155" y="242" type="curve" smooth="yes"/>
	  <point x="132" y="242"/>
	  <point x="113" y="232"/>
	  <point x="100" y="212" type="curve"/>
	  <point x="85" y="195"/>
	  <point x="78" y="169"/>
	  <point x="78" y="134" type="curve" smooth="yes"/>
	  <point x="78" y="99"/>
	  <point x="85" y="73"/>
	  <point x="100" y="55" type="curve"/>
	  <point x="113" y="36"/>
	  <point x="132" y="26"/>
	  <point x="155" y="26" type="curve" smooth="yes"/>
	  <point x="178" y="26"/>
	  <point x="196" y="36"/>
	  <point x="211" y="55" type="curve" smooth="yes"/>
	  <point x="225" y="73"/>
	  <point x="232" y="99"/>
	  <point x="232" y="134" type="curve" smooth="yes"/>
	  <point x="232" y="169"/>
	  <point x="225" y="195"/>
	  <point x="211" y="212" type="curve"/>
	</contour>
	<contour>
	  <point x="116" y="-5"/>
	  <point x="84" y="10"/>
	  <point x="59" y="39" type="curve" smooth="yes"/>
	  <point x="36" y="67"/>
	  <point x="25" y="99"/>
	  <point x="25" y="134" type="curve" smooth="yes"/>
	  <point x="25" y="169"/>
	  <point x="36" y="200"/>
	  <point x="59" y="229" type="curve" smooth="yes"/>
	  <point x="83" y="258"/>
	  <point x="115" y="272"/>
	  <point x="155" y="272" type="curve" smooth="yes"/>
	  <point x="195" y="272"/>
	  <point x="227" y="258"/>
	  <point x="251" y="229" type="curve" smooth="yes"/>
	  <point x="274" y="201"/>
	  <point x="286" y="169"/>
	  <point x="286" y="134" type="curve" smooth="yes"/>
	  <point x="286" y="97"/>
	  <point x="274" y="65"/>
	  <point x="251" y="39" type="curve" smooth="yes"/>
	  <point x="227" y="10"/>
	  <point x="195" y="-5"/>
	  <point x="155" y="-5" type="curve" smooth="yes"/>
	</contour>
  </outline>
</glyph>
<glyph name="p" format="1">
  <advance width="330"/>
  <unicode hex="0070"/>
  <outline>
	<contour>
	  <point x="215" y="232"/>
	  <point x="197" y="242"/>
	  <point x="175" y="242" type="curve" smooth="yes"/>
	  <point x="152" y="242"/>
	  <point x="134" y="232"/>
	  <point x="119" y="212" type="curve"/>
	  <point x="104" y="195"/>
	  <point x="97" y="169"/>
	  <point x="97" y="134" type="curve" smooth="yes"/>
	  <point x="97" y="99"/>
	  <point x="104" y="73"/>
	  <point x="119" y="55" type="curve" smooth="yes"/>
	  <point x="134" y="36"/>
	  <point x="152" y="26"/>
	  <point x="175" y="26" type="curve" smooth="yes"/>
	  <point x="197" y="26"/>
	  <point x="215" y="36"/>
	  <point x="230" y="55" type="curve" smooth="yes"/>
	  <point x="245" y="73"/>
	  <point x="252" y="99"/>
	  <point x="252" y="134" type="curve" smooth="yes"/>
	  <point x="252" y="169"/>
	  <point x="245" y="195"/>
	  <point x="230" y="212" type="curve"/>
	</contour>
	<contour>
	  <point x="105" y="272" type="line"/>
	  <point x="104" y="267"/>
	  <point x="103" y="262"/>
	  <point x="102" y="257" type="curve" smooth="yes"/>
	  <point x="101" y="252"/>
	  <point x="101" y="246"/>
	  <point x="100" y="240" type="curve"/>
	  <point x="119" y="261"/>
	  <point x="144" y="272"/>
	  <point x="175" y="272" type="curve" smooth="yes"/>
	  <point x="215" y="272"/>
	  <point x="247" y="258"/>
	  <point x="270" y="229" type="curve" smooth="yes"/>
	  <point x="293" y="201"/>
	  <point x="305" y="169"/>
	  <point x="305" y="134" type="curve" smooth="yes"/>
	  <point x="305" y="97"/>
	  <point x="293" y="65"/>
	  <point x="270" y="39" type="curve"/>
	  <point x="247" y="10"/>
	  <point x="215" y="-5"/>
	  <point x="175" y="-5" type="curve" smooth="yes"/>
	  <point x="141" y="-5"/>
	  <point x="115" y="7"/>
	  <point x="97" y="30" type="curve"/>
	  <point x="97" y="-27" type="line" smooth="yes"/>
	  <point x="97" y="-52"/>
	  <point x="100" y="-77"/>
	  <point x="105" y="-100" type="curve"/>
	  <point x="42" y="-100" type="line"/>
	  <point x="46" y="-75"/>
	  <point x="48" y="-51"/>
	  <point x="48" y="-27" type="curve" smooth="yes"/>
	  <point x="48" y="187" type="line" smooth="yes"/>
	  <point x="48" y="211"/>
	  <point x="46" y="235"/>
	  <point x="42" y="260" type="curve"/>
	</contour>
  </outline>
</glyph>
<glyph name="q" format="1">
  <advance width="330"/>
  <unicode hex="0071"/>
  <outline>
	<contour>
	  <point x="196" y="232"/>
	  <point x="178" y="242"/>
	  <point x="155" y="242" type="curve" smooth="yes"/>
	  <point x="132" y="242"/>
	  <point x="113" y="232"/>
	  <point x="100" y="212" type="curve"/>
	  <point x="85" y="195"/>
	  <point x="78" y="169"/>
	  <point x="78" y="134" type="curve" smooth="yes"/>
	  <point x="78" y="99"/>
	  <point x="85" y="73"/>
	  <point x="100" y="55" type="curve"/>
	  <point x="113" y="36"/>
	  <point x="132" y="26"/>
	  <point x="155" y="26" type="curve" smooth="yes"/>
	  <point x="178" y="26"/>
	  <point x="196" y="36"/>
	  <point x="211" y="55" type="curve" smooth="yes"/>
	  <point x="225" y="73"/>
	  <point x="232" y="99"/>
	  <point x="232" y="134" type="curve" smooth="yes"/>
	  <point x="232" y="169"/>
	  <point x="225" y="195"/>
	  <point x="211" y="212" type="curve"/>
	</contour>
	<contour>
	  <point x="288" y="272" type="line"/>
	  <point x="286" y="260"/>
	  <point x="284" y="248"/>
	  <point x="283" y="236" type="curve" smooth="yes"/>
	  <point x="282" y="223"/>
	  <point x="281" y="211"/>
	  <point x="281" y="199" type="curve" smooth="yes"/>
	  <point x="281" y="-27" type="line" smooth="yes"/>
	  <point x="281" y="-39"/>
	  <point x="282" y="-51"/>
	  <point x="283" y="-63" type="curve" smooth="yes"/>
	  <point x="284" y="-75"/>
	  <point x="286" y="-87"/>
	  <point x="288" y="-100" type="curve"/>
	  <point x="225" y="-100" type="line"/>
	  <point x="230" y="-77"/>
	  <point x="232" y="-52"/>
	  <point x="232" y="-27" type="curve" smooth="yes"/>
	  <point x="232" y="30" type="line"/>
	  <point x="214" y="7"/>
	  <point x="188" y="-5"/>
	  <point x="155" y="-5" type="curve" smooth="yes"/>
	  <point x="116" y="-5"/>
	  <point x="84" y="10"/>
	  <point x="59" y="39" type="curve" smooth="yes"/>
	  <point x="36" y="67"/>
	  <point x="25" y="99"/>
	  <point x="25" y="134" type="curve" smooth="yes"/>
	  <point x="25" y="169"/>
	  <point x="36" y="200"/>
	  <point x="59" y="229" type="curve" smooth="yes"/>
	  <point x="83" y="258"/>
	  <point x="115" y="272"/>
	  <point x="155" y="272" type="curve" smooth="yes"/>
	  <point x="188" y="272"/>
	  <point x="213" y="262"/>
	  <point x="228" y="242" type="curve"/>
	  <point x="228" y="248"/>
	  <point x="227" y="254"/>
	  <point x="225" y="260" type="curve"/>
	</contour>
  </outline>
</glyph>
<glyph name="r" format="1">
  <advance width="212"/>
  <unicode hex="0072"/>
  <outline>
	<contour>
	  <point x="42" y="0" type="line"/>
	  <point x="46" y="24"/>
	  <point x="48" y="48"/>
	  <point x="48" y="73" type="curve" smooth="yes"/>
	  <point x="48" y="187" type="line" smooth="yes"/>
	  <point x="48" y="211"/>
	  <point x="46" y="235"/>
	  <point x="42" y="260" type="curve"/>
	  <point x="105" y="272" type="line"/>
	  <point x="104" y="267"/>
	  <point x="103" y="262"/>
	  <point x="102" y="257" type="curve" smooth="yes"/>
	  <point x="101" y="252"/>
	  <point x="101" y="246"/>
	  <point x="100" y="240" type="curve"/>
	  <point x="117" y="261"/>
	  <point x="139" y="272"/>
	  <point x="165" y="272" type="curve" smooth="yes"/>
	  <point x="180" y="272"/>
	  <point x="194" y="269"/>
	  <point x="207" y="262" type="curve"/>
	  <point x="207" y="207" type="line"/>
	  <point x="205" y="207" type="line"/>
	  <point x="192" y="230"/>
	  <point x="176" y="242"/>
	  <point x="159" y="242" type="curve" smooth="yes"/>
	  <point x="137" y="242"/>
	  <point x="120" y="232"/>
	  <point x="108" y="211" type="curve"/>
	  <point x="101" y="201"/>
	  <point x="97" y="184"/>
	  <point x="97" y="159" type="curve" smooth="yes"/>
	  <point x="97" y="73" type="line" smooth="yes"/>
	  <point x="97" y="47"/>
	  <point x="100" y="23"/>
	  <point x="105" y="0" type="curve"/>
	</contour>
  </outline>
</glyph>
<glyph name="s" format="1">
  <advance width="214"/>
  <unicode hex="0073"/>
  <outline>
	<contour>
	  <point x="19" y="90" type="line"/>
	  <point x="21" y="90" type="line"/>
	  <point x="27" y="73"/>
	  <point x="35" y="60"/>
	  <point x="45" y="49" type="curve" smooth="yes"/>
	  <point x="58" y="34"/>
	  <point x="77" y="26"/>
	  <point x="101" y="26" type="curve" smooth="yes"/>
	  <point x="116" y="26"/>
	  <point x="129" y="32"/>
	  <point x="140" y="43" type="curve" smooth="yes"/>
	  <point x="147" y="50"/>
	  <point x="151" y="60"/>
	  <point x="151" y="73" type="curve" smooth="yes"/>
	  <point x="151" y="90"/>
	  <point x="143" y="104"/>
	  <point x="126" y="114" type="curve" smooth="yes"/>
	  <point x="87" y="137" type="line" smooth="yes"/>
	  <point x="54" y="157"/>
	  <point x="37" y="181"/>
	  <point x="37" y="209" type="curve" smooth="yes"/>
	  <point x="37" y="228"/>
	  <point x="45" y="245"/>
	  <point x="61" y="258" type="curve"/>
	  <point x="73" y="267"/>
	  <point x="89" y="272"/>
	  <point x="109" y="272" type="curve" smooth="yes"/>
	  <point x="129" y="272"/>
	  <point x="146" y="267"/>
	  <point x="161" y="258" type="curve"/>
	  <point x="161" y="208" type="line"/>
	  <point x="159" y="208" type="line"/>
	  <point x="157" y="213"/>
	  <point x="154" y="217"/>
	  <point x="151" y="222" type="curve"/>
	  <point x="142" y="235"/>
	  <point x="130" y="242"/>
	  <point x="114" y="242" type="curve" smooth="yes"/>
	  <point x="105" y="242"/>
	  <point x="98" y="240"/>
	  <point x="91" y="236" type="curve"/>
	  <point x="83" y="231"/>
	  <point x="79" y="224"/>
	  <point x="79" y="214" type="curve" smooth="yes"/>
	  <point x="79" y="202"/>
	  <point x="87" y="191"/>
	  <point x="104" y="181" type="curve" smooth="yes"/>
	  <point x="149" y="154" type="line" smooth="yes"/>
	  <point x="180" y="136"/>
	  <point x="195" y="112"/>
	  <point x="195" y="82" type="curve" smooth="yes"/>
	  <point x="195" y="55"/>
	  <point x="185" y="34"/>
	  <point x="166" y="18" type="curve" smooth="yes"/>
	  <point x="147" y="3"/>
	  <point x="125" y="-5"/>
	  <point x="102" y="-5" type="curve"/>
	  <point x="90" y="-4"/>
	  <point x="80" y="-3"/>
	  <point x="71" y="-2" type="curve" smooth="yes"/>
	  <point x="62" y="-1"/>
	  <point x="54" y="1"/>
	  <point x="48" y="4" type="curve"/>
	  <point x="43" y="7"/>
	  <point x="39" y="11"/>
	  <point x="34" y="14" type="curve" smooth="yes"/>
	  <point x="29" y="17"/>
	  <point x="24" y="21"/>
	  <point x="19" y="26" type="curve"/>
	</contour>
  </outline>
</glyph>
<glyph name="t" format="1">
  <advance width="199"/>
  <unicode hex="0074"/>
  <outline>
	<contour>
	  <point x="69" y="0" type="line"/>
	  <point x="73" y="24"/>
	  <point x="75" y="48"/>
	  <point x="75" y="73" type="curve" smooth="yes"/>
	  <point x="75" y="225" type="line"/>
	  <point x="51" y="225"/>
	  <point x="28" y="222"/>
	  <point x="5" y="217" type="curve"/>
	  <point x="5" y="262" type="line"/>
	  <point x="18" y="260"/>
	  <point x="30" y="258"/>
	  <point x="41" y="257" type="curve" smooth="yes"/>
	  <point x="52" y="256"/>
	  <point x="64" y="255"/>
	  <point x="75" y="255" type="curve"/>
	  <point x="75" y="287" type="line" smooth="yes"/>
	  <point x="75" y="310"/>
	  <point x="73" y="335"/>
	  <point x="69" y="360" type="curve"/>
	  <point x="132" y="372" type="line"/>
	  <point x="127" y="350"/>
	  <point x="124" y="326"/>
	  <point x="124" y="299" type="curve" smooth="yes"/>
	  <point x="124" y="255" type="line"/>
	  <point x="135" y="255"/>
	  <point x="147" y="256"/>
	  <point x="159" y="257" type="curve" smooth="yes"/>
	  <point x="171" y="258"/>
	  <point x="183" y="260"/>
	  <point x="195" y="262" type="curve"/>
	  <point x="195" y="217" type="line"/>
	  <point x="172" y="222"/>
	  <point x="149" y="225"/>
	  <point x="124" y="225" type="curve"/>
	  <point x="124" y="73" type="line" smooth="yes"/>
	  <point x="124" y="47"/>
	  <point x="127" y="23"/>
	  <point x="132" y="0" type="curve"/>
	</contour>
  </outline>
</glyph>
<glyph name="u" format="1">
  <advance width="332"/>
  <unicode hex="0075"/>
  <outline>
	<contour>
	  <point x="228" y="0" type="line"/>
	  <point x="229" y="4"/>
	  <point x="229" y="8"/>
	  <point x="230" y="13" type="curve"/>
	  <point x="230" y="18"/>
	  <point x="231" y="22"/>
	  <point x="232" y="27" type="curve"/>
	  <point x="214" y="6"/>
	  <point x="187" y="-5"/>
	  <point x="152" y="-5" type="curve" smooth="yes"/>
	  <point x="118" y="-5"/>
	  <point x="91" y="8"/>
	  <point x="71" y="34" type="curve" smooth="yes"/>
	  <point x="56" y="53"/>
	  <point x="48" y="78"/>
	  <point x="48" y="109" type="curve" smooth="yes"/>
	  <point x="48" y="187" type="line" smooth="yes"/>
	  <point x="48" y="211"/>
	  <point x="46" y="235"/>
	  <point x="42" y="260" type="curve"/>
	  <point x="105" y="272" type="line"/>
	  <point x="100" y="250"/>
	  <point x="97" y="226"/>
	  <point x="97" y="199" type="curve" smooth="yes"/>
	  <point x="97" y="109" type="line" smooth="yes"/>
	  <point x="97" y="85"/>
	  <point x="101" y="67"/>
	  <point x="108" y="56" type="curve" smooth="yes"/>
	  <point x="121" y="36"/>
	  <point x="140" y="26"/>
	  <point x="166" y="26" type="curve" smooth="yes"/>
	  <point x="193" y="26"/>
	  <point x="213" y="36"/>
	  <point x="224" y="56" type="curve"/>
	  <point x="231" y="67"/>
	  <point x="235" y="85"/>
	  <point x="235" y="109" type="curve" smooth="yes"/>
	  <point x="235" y="187" type="line" smooth="yes"/>
	  <point x="235" y="211"/>
	  <point x="233" y="235"/>
	  <point x="228" y="260" type="curve"/>
	  <point x="291" y="272" type="line"/>
	  <point x="286" y="250"/>
	  <point x="284" y="226"/>
	  <point x="284" y="199" type="curve" smooth="yes"/>
	  <point x="284" y="73" type="line" smooth="yes"/>
	  <point x="284" y="60"/>
	  <point x="285" y="48"/>
	  <point x="286" y="36" type="curve" smooth="yes"/>
	  <point x="287" y="23"/>
	  <point x="288" y="11"/>
	  <point x="291" y="0" type="curve"/>
	</contour>
  </outline>
</glyph>
<glyph name="v" format="1">
  <advance width="296"/>
  <unicode hex="0076"/>
  <outline>
	<contour>
	  <point x="125" y="0" type="line"/>
	  <point x="121" y="14"/>
	  <point x="117" y="27"/>
	  <point x="113" y="39" type="curve" smooth="yes"/>
	  <point x="109" y="51"/>
	  <point x="105" y="61"/>
	  <point x="101" y="70" type="curve" smooth="yes"/>
	  <point x="37" y="205" type="line"/>
	  <point x="33" y="215"/>
	  <point x="28" y="225"/>
	  <point x="22" y="235" type="curve"/>
	  <point x="15" y="245"/>
	  <point x="8" y="256"/>
	  <point x="0" y="268" type="curve"/>
	  <point x="69" y="268" type="line"/>
	  <point x="72" y="255"/>
	  <point x="76" y="243"/>
	  <point x="80" y="232" type="curve" smooth="yes"/>
	  <point x="84" y="220"/>
	  <point x="88" y="209"/>
	  <point x="93" y="198" type="curve" smooth="yes"/>
	  <point x="155" y="63" type="line"/>
	  <point x="217" y="198" type="line" smooth="yes"/>
	  <point x="222" y="208"/>
	  <point x="226" y="219"/>
	  <point x="230" y="230" type="curve" smooth="yes"/>
	  <point x="234" y="241"/>
	  <point x="238" y="254"/>
	  <point x="241" y="268" type="curve"/>
	  <point x="296" y="268" type="line"/>
	  <point x="288" y="258"/>
	  <point x="281" y="248"/>
	  <point x="276" y="237" type="curve"/>
	  <point x="270" y="226"/>
	  <point x="264" y="216"/>
	  <point x="258" y="205" type="curve"/>
	  <point x="194" y="70" type="line" smooth="yes"/>
	  <point x="185" y="51"/>
	  <point x="177" y="28"/>
	  <point x="169" y="0" type="curve"/>
	</contour>
  </outline>
</glyph>
<glyph name="w" format="1">
  <advance width="419"/>
  <unicode hex="0077"/>
  <outline>
	<contour>
	  <point x="94" y="0" type="line"/>
	  <point x="91" y="26"/>
	  <point x="85" y="50"/>
	  <point x="77" y="72" type="curve" smooth="yes"/>
	  <point x="31" y="201" type="line"/>
	  <point x="27" y="214"/>
	  <point x="22" y="225"/>
	  <point x="17" y="236" type="curve" smooth="yes"/>
	  <point x="12" y="247"/>
	  <point x="6" y="257"/>
	  <point x="0" y="268" type="curve"/>
	  <point x="64" y="268" type="line"/>
	  <point x="65" y="256"/>
	  <point x="68" y="244"/>
	  <point x="71" y="232" type="curve" smooth="yes"/>
	  <point x="74" y="220"/>
	  <point x="77" y="208"/>
	  <point x="81" y="196" type="curve" smooth="yes"/>
	  <point x="130" y="61" type="line"/>
	  <point x="175" y="196" type="line"/>
	  <point x="182" y="220"/>
	  <point x="188" y="244"/>
	  <point x="192" y="268" type="curve"/>
	  <point x="241" y="268" type="line"/>
	  <point x="242" y="256"/>
	  <point x="245" y="244"/>
	  <point x="248" y="232" type="curve" smooth="yes"/>
	  <point x="251" y="220"/>
	  <point x="254" y="208"/>
	  <point x="258" y="196" type="curve" smooth="yes"/>
	  <point x="306" y="61" type="line"/>
	  <point x="351" y="196" type="line" smooth="yes"/>
	  <point x="359" y="220"/>
	  <point x="365" y="244"/>
	  <point x="369" y="268" type="curve"/>
	  <point x="419" y="268" type="line"/>
	  <point x="412" y="256"/>
	  <point x="406" y="245"/>
	  <point x="401" y="234" type="curve" smooth="yes"/>
	  <point x="396" y="223"/>
	  <point x="391" y="212"/>
	  <point x="388" y="201" type="curve"/>
	  <point x="342" y="72" type="line" smooth="yes"/>
	  <point x="334" y="50"/>
	  <point x="328" y="26"/>
	  <point x="325" y="0" type="curve"/>
	  <point x="271" y="0" type="line"/>
	  <point x="268" y="26"/>
	  <point x="262" y="50"/>
	  <point x="254" y="72" type="curve" smooth="yes"/>
	  <point x="209" y="197" type="line"/>
	  <point x="164" y="72" type="line" smooth="yes"/>
	  <point x="156" y="48"/>
	  <point x="151" y="24"/>
	  <point x="148" y="0" type="curve"/>
	</contour>
  </outline>
</glyph>
<glyph name="x" format="1">
  <advance width="285"/>
  <unicode hex="0078"/>
  <outline>
	<contour>
	  <point x="10" y="0" type="line"/>
	  <point x="29" y="18"/>
	  <point x="46" y="35"/>
	  <point x="60" y="52" type="curve" smooth="yes"/>
	  <point x="118" y="127" type="line"/>
	  <point x="58" y="212" type="line" smooth="yes"/>
	  <point x="46" y="229"/>
	  <point x="30" y="248"/>
	  <point x="10" y="268" type="curve"/>
	  <point x="84" y="268" type="line"/>
	  <point x="93" y="245"/>
	  <point x="104" y="224"/>
	  <point x="119" y="204" type="curve" smooth="yes"/>
	  <point x="148" y="165" type="line"/>
	  <point x="179" y="206" type="line" smooth="yes"/>
	  <point x="196" y="227"/>
	  <point x="208" y="247"/>
	  <point x="217" y="268" type="curve"/>
	  <point x="275" y="268" type="line"/>
	  <point x="256" y="252"/>
	  <point x="239" y="234"/>
	  <point x="224" y="214" type="curve" smooth="yes"/>
	  <point x="166" y="139" type="line"/>
	  <point x="227" y="56" type="line" smooth="yes"/>
	  <point x="239" y="39"/>
	  <point x="255" y="20"/>
	  <point x="275" y="0" type="curve"/>
	  <point x="199" y="0" type="line"/>
	  <point x="189" y="23"/>
	  <point x="177" y="45"/>
	  <point x="163" y="64" type="curve" smooth="yes"/>
	  <point x="137" y="101" type="line"/>
	  <point x="106" y="62" type="line" smooth="yes"/>
	  <point x="90" y="42"/>
	  <point x="77" y="21"/>
	  <point x="67" y="0" type="curve"/>
	</contour>
  </outline>
</glyph>
<glyph name="y" format="1">
  <advance width="332"/>
  <unicode hex="0079"/>
  <outline>
	<contour>
	  <point x="45" y="261"/>
	  <point x="50" y="262"/>
	  <point x="57" y="264" type="curve"/>
	  <point x="62" y="265"/>
	  <point x="69" y="267"/>
	  <point x="77" y="268" type="curve" smooth="yes"/>
	  <point x="85" y="269"/>
	  <point x="94" y="270"/>
	  <point x="105" y="272" type="curve"/>
	  <point x="100" y="250"/>
	  <point x="97" y="226"/>
	  <point x="97" y="199" type="curve" smooth="yes"/>
	  <point x="97" y="109" type="line" smooth="yes"/>
	  <point x="97" y="85"/>
	  <point x="101" y="67"/>
	  <point x="108" y="56" type="curve" smooth="yes"/>
	  <point x="121" y="36"/>
	  <point x="140" y="26"/>
	  <point x="166" y="26" type="curve" smooth="yes"/>
	  <point x="192" y="26"/>
	  <point x="211" y="36"/>
	  <point x="224" y="56" type="curve" smooth="yes"/>
	  <point x="231" y="67"/>
	  <point x="235" y="85"/>
	  <point x="235" y="109" type="curve" smooth="yes"/>
	  <point x="235" y="187" type="line" smooth="yes"/>
	  <point x="235" y="211"/>
	  <point x="233" y="235"/>
	  <point x="228" y="260" type="curve"/>
	  <point x="291" y="272" type="line"/>
	  <point x="286" y="250"/>
	  <point x="284" y="226"/>
	  <point x="284" y="199" type="curve" smooth="yes"/>
	  <point x="284" y="33" type="line" smooth="yes"/>
	  <point x="284" y="-6"/>
	  <point x="274" y="-37"/>
	  <point x="254" y="-61" type="curve" smooth="yes"/>
	  <point x="229" y="-90"/>
	  <point x="198" y="-105"/>
	  <point x="161" y="-105" type="curve" smooth="yes"/>
	  <point x="124" y="-105"/>
	  <point x="93" y="-96"/>
	  <point x="69" y="-78" type="curve"/>
	  <point x="69" y="-15" type="line"/>
	  <point x="71" y="-15" type="line"/>
	  <point x="74" y="-23"/>
	  <point x="78" y="-30"/>
	  <point x="81" y="-35" type="curve"/>
	  <point x="84" y="-41"/>
	  <point x="88" y="-46"/>
	  <point x="93" y="-50" type="curve"/>
	  <point x="111" y="-66"/>
	  <point x="133" y="-74"/>
	  <point x="160" y="-74" type="curve" smooth="yes"/>
	  <point x="183" y="-74"/>
	  <point x="200" y="-65"/>
	  <point x="213" y="-47" type="curve"/>
	  <point x="228" y="-28"/>
	  <point x="235" y="-3"/>
	  <point x="235" y="30" type="curve"/>
	  <point x="216" y="7"/>
	  <point x="189" y="-5"/>
	  <point x="152" y="-5" type="curve" smooth="yes"/>
	  <point x="117" y="-5"/>
	  <point x="90" y="8"/>
	  <point x="71" y="34" type="curve" smooth="yes"/>
	  <point x="56" y="55"/>
	  <point x="48" y="80"/>
	  <point x="48" y="109" type="curve" smooth="yes"/>
	  <point x="48" y="187" type="line" smooth="yes"/>
	  <point x="48" y="211"/>
	  <point x="46" y="235"/>
	  <point x="42" y="260" type="curve"/>
	</contour>
  </outline>
</glyph>
<glyph name="z" format="1">
  <advance width="267"/>
  <unicode hex="007A"/>
  <outline>
	<contour>
	  <point x="25" y="0" type="line"/>
	  <point x="15" y="30" type="line"/>
	  <point x="33" y="48"/>
	  <point x="49" y="66"/>
	  <point x="63" y="85" type="curve" smooth="yes"/>
	  <point x="183" y="238" type="line"/>
	  <point x="120" y="238" type="line" smooth="yes"/>
	  <point x="107" y="238"/>
	  <point x="95" y="237"/>
	  <point x="83" y="236" type="curve" smooth="yes"/>
	  <point x="71" y="235"/>
	  <point x="59" y="233"/>
	  <point x="47" y="230" type="curve"/>
	  <point x="47" y="268" type="line"/>
	  <point x="238" y="268" type="line"/>
	  <point x="246" y="238" type="line"/>
	  <point x="239" y="229"/>
	  <point x="231" y="221"/>
	  <point x="223" y="212" type="curve"/>
	  <point x="214" y="203"/>
	  <point x="206" y="193"/>
	  <point x="198" y="183" type="curve" smooth="yes"/>
	  <point x="78" y="30" type="line"/>
	  <point x="175" y="30" type="line" smooth="yes"/>
	  <point x="202" y="30"/>
	  <point x="226" y="32"/>
	  <point x="247" y="37" type="curve"/>
	  <point x="247" y="0" type="line"/>
	</contour>
  </outline>
</glyph>
<glyph name="braceleft" format="1">
  <advance width="208"/>
  <unicode hex="007B"/>
  <outline>
	<contour>
	  <point x="171" y="425" type="line"/>
	  <point x="142" y="412"/>
	  <point x="127" y="388"/>
	  <point x="127" y="351" type="curve" smooth="yes"/>
	  <point x="127" y="259" type="line" smooth="yes"/>
	  <point x="127" y="214"/>
	  <point x="104" y="189"/>
	  <point x="58" y="184" type="curve"/>
	  <point x="104" y="179"/>
	  <point x="127" y="154"/>
	  <point x="127" y="109" type="curve" smooth="yes"/>
	  <point x="127" y="16" type="line" smooth="yes"/>
	  <point x="127" y="-19"/>
	  <point x="142" y="-43"/>
	  <point x="171" y="-58" type="curve"/>
	  <point x="171" y="-60" type="line"/>
	  <point x="110" y="-60"/>
	  <point x="80" y="-35"/>
	  <point x="80" y="16" type="curve" smooth="yes"/>
	  <point x="80" y="109" type="line" smooth="yes"/>
	  <point x="80" y="144"/>
	  <point x="65" y="169"/>
	  <point x="36" y="183" type="curve"/>
	  <point x="36" y="185" type="line"/>
	  <point x="65" y="200"/>
	  <point x="80" y="224"/>
	  <point x="80" y="259" type="curve" smooth="yes"/>
	  <point x="80" y="351" type="line" smooth="yes"/>
	  <point x="80" y="403"/>
	  <point x="110" y="429"/>
	  <point x="171" y="429" type="curve"/>
	</contour>
  </outline>
</glyph>
<glyph name="bar" format="1">
  <advance width="161"/>
  <unicode hex="007C"/>
  <outline>
	<contour>
	  <point x="54" y="-44" type="line"/>
	  <point x="56" y="-32"/>
	  <point x="58" y="-20"/>
	  <point x="59" y="-7" type="curve" smooth="yes"/>
	  <point x="60" y="5"/>
	  <point x="61" y="17"/>
	  <point x="61" y="29" type="curve" smooth="yes"/>
	  <point x="61" y="339" type="line" smooth="yes"/>
	  <point x="61" y="351"/>
	  <point x="60" y="363"/>
	  <point x="59" y="375" type="curve" smooth="yes"/>
	  <point x="58" y="387"/>
	  <point x="56" y="399"/>
	  <point x="54" y="411" type="curve"/>
	  <point x="107" y="411" type="line"/>
	  <point x="104" y="399"/>
	  <point x="103" y="387"/>
	  <point x="102" y="375" type="curve" smooth="yes"/>
	  <point x="101" y="363"/>
	  <point x="100" y="351"/>
	  <point x="100" y="339" type="curve" smooth="yes"/>
	  <point x="100" y="29" type="line" smooth="yes"/>
	  <point x="100" y="17"/>
	  <point x="101" y="5"/>
	  <point x="102" y="-7" type="curve" smooth="yes"/>
	  <point x="103" y="-20"/>
	  <point x="104" y="-32"/>
	  <point x="107" y="-44" type="curve"/>
	</contour>
  </outline>
</glyph>
<glyph name="braceright" format="1">
  <advance width="208"/>
  <unicode hex="007D"/>
  <outline>
	<contour>
	  <point x="36" y="429" type="line"/>
	  <point x="97" y="429"/>
	  <point x="127" y="403"/>
	  <point x="127" y="351" type="curve" smooth="yes"/>
	  <point x="127" y="259" type="line" smooth="yes"/>
	  <point x="127" y="224"/>
	  <point x="142" y="200"/>
	  <point x="171" y="185" type="curve"/>
	  <point x="171" y="183" type="line"/>
	  <point x="142" y="169"/>
	  <point x="127" y="144"/>
	  <point x="127" y="109" type="curve" smooth="yes"/>
	  <point x="127" y="16" type="line" smooth="yes"/>
	  <point x="127" y="-35"/>
	  <point x="97" y="-60"/>
	  <point x="36" y="-60" type="curve"/>
	  <point x="36" y="-58" type="line"/>
	  <point x="65" y="-43"/>
	  <point x="80" y="-19"/>
	  <point x="80" y="16" type="curve" smooth="yes"/>
	  <point x="80" y="109" type="line" smooth="yes"/>
	  <point x="80" y="154"/>
	  <point x="103" y="179"/>
	  <point x="150" y="184" type="curve"/>
	  <point x="103" y="189"/>
	  <point x="80" y="214"/>
	  <point x="80" y="259" type="curve" smooth="yes"/>
	  <point x="80" y="351" type="line" smooth="yes"/>
	  <point x="80" y="388"/>
	  <point x="65" y="412"/>
	  <point x="36" y="425" type="curve"/>
	</contour>
  </outline>
</glyph>
<glyph name="asciitilde" format="1">
  <advance width="294"/>
  <unicode hex="007E"/>
  <outline>
	<contour>
	  <point x="48" y="199" type="line"/>
	  <point x="63" y="216"/>
	  <point x="79" y="225"/>
	  <point x="96" y="225" type="curve" smooth="yes"/>
	  <point x="115" y="225"/>
	  <point x="131" y="219"/>
	  <point x="146" y="207" type="curve" smooth="yes"/>
	  <point x="174" y="185" type="line"/>
	  <point x="179" y="182"/>
	  <point x="183" y="179"/>
	  <point x="187" y="178" type="curve"/>
	  <point x="191" y="176"/>
	  <point x="195" y="175"/>
	  <point x="199" y="175" type="curve" smooth="yes"/>
	  <point x="220" y="175"/>
	  <point x="234" y="192"/>
	  <point x="242" y="225" type="curve"/>
	  <point x="244" y="225" type="line"/>
	  <point x="244" y="161" type="line"/>
	  <point x="231" y="143"/>
	  <point x="215" y="134"/>
	  <point x="196" y="134" type="curve" smooth="yes"/>
	  <point x="179" y="134"/>
	  <point x="163" y="140"/>
	  <point x="147" y="152" type="curve"/>
	  <point x="120" y="174" type="line" smooth="yes"/>
	  <point x="111" y="181"/>
	  <point x="102" y="184"/>
	  <point x="94" y="184" type="curve" smooth="yes"/>
	  <point x="73" y="184"/>
	  <point x="58" y="167"/>
	  <point x="51" y="134" type="curve"/>
	  <point x="48" y="134" type="line"/>
	</contour>
  </outline>
</glyph>
<glyph name="cent" format="1">
  <advance width="281"/>
  <unicode hex="00A2"/>
  <outline>
	<contour>
	  <point x="164" y="-44" type="line"/>
	  <point x="139" y="-44" type="line"/>
	  <point x="139" y="-4" type="line"/>
	  <point x="107" y="0"/>
	  <point x="80" y="14"/>
	  <point x="59" y="39" type="curve" smooth="yes"/>
	  <point x="36" y="66"/>
	  <point x="25" y="97"/>
	  <point x="25" y="134" type="curve" smooth="yes"/>
	  <point x="25" y="171"/>
	  <point x="36" y="202"/>
	  <point x="59" y="229" type="curve" smooth="yes"/>
	  <point x="80" y="254"/>
	  <point x="107" y="268"/>
	  <point x="139" y="272" type="curve"/>
	  <point x="139" y="312" type="line"/>
	  <point x="164" y="312" type="line"/>
	  <point x="164" y="272" type="line"/>
	  <point x="192" y="271"/>
	  <point x="216" y="261"/>
	  <point x="236" y="244" type="curve"/>
	  <point x="236" y="179" type="line"/>
	  <point x="234" y="179" type="line"/>
	  <point x="227" y="193"/>
	  <point x="220" y="204"/>
	  <point x="213" y="212" type="curve"/>
	  <point x="200" y="230"/>
	  <point x="183" y="240"/>
	  <point x="164" y="242" type="curve"/>
	  <point x="164" y="26" type="line"/>
	  <point x="199" y="28"/>
	  <point x="227" y="48"/>
	  <point x="249" y="86" type="curve"/>
	  <point x="251" y="86" type="line"/>
	  <point x="251" y="39" type="line"/>
	  <point x="228" y="12"/>
	  <point x="199" y="-2"/>
	  <point x="164" y="-4" type="curve"/>
	</contour>
	<contour>
	  <point x="139" y="240" type="line"/>
	  <point x="124" y="237"/>
	  <point x="111" y="227"/>
	  <point x="100" y="212" type="curve"/>
	  <point x="85" y="195"/>
	  <point x="78" y="169"/>
	  <point x="78" y="134" type="curve" smooth="yes"/>
	  <point x="78" y="99"/>
	  <point x="85" y="73"/>
	  <point x="100" y="55" type="curve"/>
	  <point x="110" y="40"/>
	  <point x="123" y="31"/>
	  <point x="139" y="27" type="curve"/>
	</contour>
  </outline>
</glyph>
<glyph name="copyright" format="1">
  <advance width="365"/>
  <unicode hex="00A9"/>
  <outline>
	<contour>
	  <point x="254" y="195" type="line"/>
	  <point x="254" y="164" type="line"/>
	  <point x="235" y="143"/>
	  <point x="211" y="133"/>
	  <point x="184" y="133" type="curve" smooth="yes"/>
	  <point x="156" y="133"/>
	  <point x="133" y="143"/>
	  <point x="116" y="162" type="curve"/>
	  <point x="97" y="181"/>
	  <point x="88" y="204"/>
	  <point x="88" y="232" type="curve" smooth="yes"/>
	  <point x="88" y="259"/>
	  <point x="97" y="282"/>
	  <point x="116" y="302" type="curve" smooth="yes"/>
	  <point x="135" y="321"/>
	  <point x="158" y="331"/>
	  <point x="184" y="331" type="curve" smooth="yes"/>
	  <point x="205" y="331"/>
	  <point x="225" y="324"/>
	  <point x="244" y="310" type="curve"/>
	  <point x="244" y="270" type="line"/>
	  <point x="236" y="270" type="line"/>
	  <point x="233" y="276"/>
	  <point x="230" y="280"/>
	  <point x="228" y="283" type="curve"/>
	  <point x="216" y="298"/>
	  <point x="201" y="306"/>
	  <point x="184" y="306" type="curve" smooth="yes"/>
	  <point x="167" y="306"/>
	  <point x="153" y="298"/>
	  <point x="140" y="283" type="curve"/>
	  <point x="129" y="268"/>
	  <point x="124" y="250"/>
	  <point x="124" y="231" type="curve" smooth="yes"/>
	  <point x="124" y="211"/>
	  <point x="129" y="194"/>
	  <point x="140" y="181" type="curve" smooth="yes"/>
	  <point x="153" y="165"/>
	  <point x="167" y="157"/>
	  <point x="184" y="157" type="curve" smooth="yes"/>
	  <point x="205" y="157"/>
	  <point x="226" y="170"/>
	  <point x="245" y="195" type="curve"/>
	</contour>
	<contour>
	  <point x="222" y="372"/>
	  <point x="254" y="358"/>
	  <point x="280" y="330" type="curve" smooth="yes"/>
	  <point x="304" y="303"/>
	  <point x="316" y="270"/>
	  <point x="316" y="231" type="curve" smooth="yes"/>
	  <point x="316" y="190"/>
	  <point x="303" y="158"/>
	  <point x="277" y="134" type="curve"/>
	  <point x="250" y="107"/>
	  <point x="219" y="94"/>
	  <point x="182" y="94" type="curve" smooth="yes"/>
	  <point x="145" y="94"/>
	  <point x="114" y="107"/>
	  <point x="88" y="134" type="curve" smooth="yes"/>
	  <point x="61" y="161"/>
	  <point x="48" y="193"/>
	  <point x="48" y="231" type="curve" smooth="yes"/>
	  <point x="48" y="270"/>
	  <point x="61" y="304"/>
	  <point x="87" y="331" type="curve" smooth="yes"/>
	  <point x="113" y="358"/>
	  <point x="145" y="372"/>
	  <point x="183" y="372" type="curve" smooth="yes"/>
	</contour>
	<contour>
	  <point x="151" y="354"/>
	  <point x="125" y="342"/>
	  <point x="102" y="319" type="curve" smooth="yes"/>
	  <point x="78" y="296"/>
	  <point x="66" y="266"/>
	  <point x="66" y="231" type="curve" smooth="yes"/>
	  <point x="66" y="201"/>
	  <point x="78" y="173"/>
	  <point x="101" y="147" type="curve" smooth="yes"/>
	  <point x="122" y="123"/>
	  <point x="150" y="111"/>
	  <point x="183" y="111" type="curve" smooth="yes"/>
	  <point x="214" y="111"/>
	  <point x="241" y="123"/>
	  <point x="265" y="147" type="curve" smooth="yes"/>
	  <point x="287" y="169"/>
	  <point x="298" y="197"/>
	  <point x="298" y="231" type="curve" smooth="yes"/>
	  <point x="298" y="268"/>
	  <point x="287" y="297"/>
	  <point x="265" y="318" type="curve" smooth="yes"/>
	  <point x="241" y="342"/>
	  <point x="213" y="354"/>
	  <point x="182" y="354" type="curve" smooth="yes"/>
	</contour>
  </outline>
</glyph>
<glyph name="registered" format="1">
  <advance width="365"/>
  <unicode hex="00AE"/>
  <outline>
	<contour>
	  <point x="151" y="354"/>
	  <point x="125" y="342"/>
	  <point x="102" y="319" type="curve" smooth="yes"/>
	  <point x="78" y="296"/>
	  <point x="66" y="266"/>
	  <point x="66" y="231" type="curve" smooth="yes"/>
	  <point x="66" y="201"/>
	  <point x="78" y="173"/>
	  <point x="101" y="147" type="curve" smooth="yes"/>
	  <point x="122" y="123"/>
	  <point x="150" y="111"/>
	  <point x="183" y="111" type="curve" smooth="yes"/>
	  <point x="209" y="111"/>
	  <point x="233" y="120"/>
	  <point x="254" y="137" type="curve"/>
	  <point x="227" y="137" type="line"/>
	  <point x="224" y="144"/>
	  <point x="222" y="151"/>
	  <point x="219" y="157" type="curve"/>
	  <point x="216" y="162"/>
	  <point x="212" y="167"/>
	  <point x="209" y="172" type="curve"/>
	  <point x="183" y="212" type="line"/>
	  <point x="177" y="212" type="line"/>
	  <point x="167" y="212" type="line"/>
	  <point x="167" y="179" type="line" smooth="yes"/>
	  <point x="167" y="169"/>
	  <point x="169" y="155"/>
	  <point x="172" y="137" type="curve"/>
	  <point x="129" y="137" type="line"/>
	  <point x="132" y="148"/>
	  <point x="133" y="162"/>
	  <point x="133" y="179" type="curve" smooth="yes"/>
	  <point x="133" y="289" type="line" smooth="yes"/>
	  <point x="133" y="306"/>
	  <point x="132" y="320"/>
	  <point x="129" y="331" type="curve"/>
	  <point x="177" y="331" type="line" smooth="yes"/>
	  <point x="199" y="331"/>
	  <point x="216" y="325"/>
	  <point x="227" y="314" type="curve"/>
	  <point x="240" y="303"/>
	  <point x="247" y="288"/>
	  <point x="247" y="271" type="curve" smooth="yes"/>
	  <point x="247" y="255"/>
	  <point x="240" y="241"/>
	  <point x="227" y="228" type="curve" smooth="yes"/>
	  <point x="225" y="226"/>
	  <point x="222" y="224"/>
	  <point x="217" y="221" type="curve"/>
	  <point x="249" y="174" type="line"/>
	  <point x="254" y="166"/>
	  <point x="260" y="158"/>
	  <point x="267" y="150" type="curve"/>
	  <point x="288" y="171"/>
	  <point x="298" y="198"/>
	  <point x="298" y="231" type="curve" smooth="yes"/>
	  <point x="298" y="268"/>
	  <point x="287" y="297"/>
	  <point x="265" y="318" type="curve" smooth="yes"/>
	  <point x="241" y="342"/>
	  <point x="213" y="354"/>
	  <point x="182" y="354" type="curve" smooth="yes"/>
	</contour>
	<contour>
	  <point x="222" y="372"/>
	  <point x="254" y="358"/>
	  <point x="280" y="330" type="curve" smooth="yes"/>
	  <point x="304" y="303"/>
	  <point x="316" y="270"/>
	  <point x="316" y="231" type="curve" smooth="yes"/>
	  <point x="316" y="190"/>
	  <point x="303" y="158"/>
	  <point x="277" y="134" type="curve"/>
	  <point x="250" y="107"/>
	  <point x="219" y="94"/>
	  <point x="182" y="94" type="curve" smooth="yes"/>
	  <point x="145" y="94"/>
	  <point x="114" y="107"/>
	  <point x="88" y="134" type="curve" smooth="yes"/>
	  <point x="61" y="161"/>
	  <point x="48" y="193"/>
	  <point x="48" y="231" type="curve" smooth="yes"/>
	  <point x="48" y="270"/>
	  <point x="61" y="304"/>
	  <point x="87" y="331" type="curve" smooth="yes"/>
	  <point x="113" y="358"/>
	  <point x="145" y="372"/>
	  <point x="183" y="372" type="curve" smooth="yes"/>
	</contour>
	<contour>
	  <point x="167" y="237" type="line"/>
	  <point x="177" y="237" type="line" smooth="yes"/>
	  <point x="188" y="237"/>
	  <point x="196" y="240"/>
	  <point x="202" y="246" type="curve" smooth="yes"/>
	  <point x="208" y="252"/>
	  <point x="211" y="260"/>
	  <point x="211" y="271" type="curve" smooth="yes"/>
	  <point x="211" y="282"/>
	  <point x="208" y="291"/>
	  <point x="202" y="296" type="curve"/>
	  <point x="195" y="303"/>
	  <point x="187" y="306"/>
	  <point x="177" y="306" type="curve" smooth="yes"/>
	  <point x="168" y="306" type="line"/>
	  <point x="167" y="303"/>
	  <point x="167" y="300"/>
	  <point x="167" y="298" type="curve" smooth="yes"/>
	  <point x="167" y="295"/>
	  <point x="167" y="292"/>
	  <point x="167" y="289" type="curve" smooth="yes"/>
	</contour>
  </outline>
</glyph>
<glyph name="onehalf" format="1">
  <advance width="405"/>
  <unicode hex="00BD"/>
  <outline>
	<contour>
	  <point x="223" y="58" type="line"/>
	  <point x="232" y="58" type="line"/>
	  <point x="235" y="50"/>
	  <point x="239" y="44"/>
	  <point x="244" y="39" type="curve"/>
	  <point x="251" y="28"/>
	  <point x="261" y="22"/>
	  <point x="273" y="22" type="curve" smooth="yes"/>
	  <point x="284" y="22"/>
	  <point x="293" y="26"/>
	  <point x="300" y="34" type="curve" smooth="yes"/>
	  <point x="306" y="41"/>
	  <point x="309" y="50"/>
	  <point x="309" y="60" type="curve" smooth="yes"/>
	  <point x="309" y="72"/>
	  <point x="306" y="81"/>
	  <point x="299" y="87" type="curve"/>
	  <point x="292" y="94"/>
	  <point x="281" y="97"/>
	  <point x="266" y="97" type="curve"/>
	  <point x="256" y="110" type="line"/>
	  <point x="296" y="164" type="line"/>
	  <point x="275" y="164" type="line" smooth="yes"/>
	  <point x="259" y="164"/>
	  <point x="245" y="163"/>
	  <point x="234" y="160" type="curve"/>
	  <point x="234" y="190" type="line"/>
	  <point x="333" y="190" type="line"/>
	  <point x="336" y="167" type="line"/>
	  <point x="328" y="159"/>
	  <point x="320" y="149"/>
	  <point x="311" y="138" type="curve"/>
	  <point x="296" y="117" type="line"/>
	  <point x="305" y="115"/>
	  <point x="315" y="111"/>
	  <point x="325" y="104" type="curve"/>
	  <point x="338" y="93"/>
	  <point x="345" y="79"/>
	  <point x="345" y="60" type="curve" smooth="yes"/>
	  <point x="345" y="43"/>
	  <point x="338" y="28"/>
	  <point x="324" y="15" type="curve"/>
	  <point x="311" y="4"/>
	  <point x="293" y="-2"/>
	  <point x="272" y="-2" type="curve" smooth="yes"/>
	  <point x="255" y="-2"/>
	  <point x="238" y="5"/>
	  <point x="223" y="19" type="curve"/>
	</contour>
	<contour>
	  <point x="76" y="0" type="line"/>
	  <point x="90" y="19"/>
	  <point x="103" y="40"/>
	  <point x="114" y="63" type="curve" smooth="yes"/>
	  <point x="222" y="298" type="line"/>
	  <point x="227" y="310"/>
	  <point x="231" y="322"/>
	  <point x="235" y="333" type="curve" smooth="yes"/>
	  <point x="239" y="344"/>
	  <point x="242" y="355"/>
	  <point x="245" y="367" type="curve"/>
	  <point x="300" y="367" type="line"/>
	  <point x="286" y="350"/>
	  <point x="273" y="329"/>
	  <point x="262" y="304" type="curve" smooth="yes"/>
	  <point x="154" y="70" type="line" smooth="yes"/>
	  <point x="149" y="59"/>
	  <point x="145" y="48"/>
	  <point x="141" y="37" type="curve" smooth="yes"/>
	  <point x="137" y="25"/>
	  <point x="133" y="13"/>
	  <point x="130" y="0" type="curve"/>
	</contour>
	<contour>
	  <point x="82" y="180" type="line"/>
	  <point x="85" y="192"/>
	  <point x="87" y="206"/>
	  <point x="87" y="222" type="curve" smooth="yes"/>
	  <point x="87" y="329" type="line"/>
	  <point x="87" y="333" type="line"/>
	  <point x="64" y="311" type="line"/>
	  <point x="48" y="329" type="line"/>
	  <point x="86" y="364" type="line"/>
	  <point x="126" y="372" type="line"/>
	  <point x="123" y="359"/>
	  <point x="121" y="346"/>
	  <point x="121" y="334" type="curve" smooth="yes"/>
	  <point x="121" y="222" type="line" smooth="yes"/>
	  <point x="121" y="210"/>
	  <point x="123" y="196"/>
	  <point x="126" y="180" type="curve"/>
	</contour>
  </outline>
</glyph>
<glyph name="threequarters" format="1">
  <advance width="404"/>
  <unicode hex="00BE"/>
  <outline>
	<contour>
	  <point x="298" y="0" type="line"/>
	  <point x="301" y="17"/>
	  <point x="303" y="31"/>
	  <point x="303" y="42" type="curve" smooth="yes"/>
	  <point x="303" y="44" type="line"/>
	  <point x="217" y="44" type="line"/>
	  <point x="210" y="65" type="line"/>
	  <point x="220" y="75"/>
	  <point x="228" y="85"/>
	  <point x="235" y="94" type="curve"/>
	  <point x="282" y="160" type="line"/>
	  <point x="289" y="169"/>
	  <point x="295" y="181"/>
	  <point x="301" y="194" type="curve"/>
	  <point x="342" y="194" type="line"/>
	  <point x="338" y="178"/>
	  <point x="336" y="164"/>
	  <point x="336" y="152" type="curve" smooth="yes"/>
	  <point x="336" y="70" type="line"/>
	  <point x="340" y="70"/>
	  <point x="343" y="70"/>
	  <point x="346" y="71" type="curve" smooth="yes"/>
	  <point x="349" y="72"/>
	  <point x="352" y="73"/>
	  <point x="355" y="74" type="curve"/>
	  <point x="355" y="44" type="line"/>
	  <point x="336" y="44" type="line"/>
	  <point x="336" y="42" type="line" smooth="yes"/>
	  <point x="336" y="30"/>
	  <point x="338" y="16"/>
	  <point x="342" y="0" type="curve"/>
	</contour>
	<contour>
	  <point x="303" y="69" type="line"/>
	  <point x="303" y="147" type="line"/>
	  <point x="246" y="69" type="line"/>
	</contour>
	<contour>
	  <point x="91" y="0" type="line"/>
	  <point x="99" y="9"/>
	  <point x="106" y="19"/>
	  <point x="112" y="30" type="curve"/>
	  <point x="117" y="40"/>
	  <point x="123" y="51"/>
	  <point x="129" y="63" type="curve" smooth="yes"/>
	  <point x="237" y="298" type="line"/>
	  <point x="242" y="310"/>
	  <point x="247" y="322"/>
	  <point x="251" y="333" type="curve" smooth="yes"/>
	  <point x="255" y="344"/>
	  <point x="258" y="355"/>
	  <point x="261" y="367" type="curve"/>
	  <point x="315" y="367" type="line"/>
	  <point x="308" y="357"/>
	  <point x="301" y="347"/>
	  <point x="295" y="337" type="curve" smooth="yes"/>
	  <point x="289" y="327"/>
	  <point x="283" y="316"/>
	  <point x="277" y="304" type="curve" smooth="yes"/>
	  <point x="169" y="70" type="line"/>
	  <point x="165" y="59"/>
	  <point x="161" y="48"/>
	  <point x="157" y="37" type="curve" smooth="yes"/>
	  <point x="153" y="25"/>
	  <point x="149" y="13"/>
	  <point x="146" y="0" type="curve"/>
	</contour>
	<contour>
	  <point x="48" y="239" type="line"/>
	  <point x="58" y="239" type="line"/>
	  <point x="62" y="229"/>
	  <point x="66" y="222"/>
	  <point x="70" y="219" type="curve"/>
	  <point x="78" y="209"/>
	  <point x="88" y="204"/>
	  <point x="100" y="204" type="curve" smooth="yes"/>
	  <point x="111" y="204"/>
	  <point x="119" y="207"/>
	  <point x="125" y="214" type="curve"/>
	  <point x="131" y="220"/>
	  <point x="134" y="229"/>
	  <point x="134" y="241" type="curve" smooth="yes"/>
	  <point x="134" y="253"/>
	  <point x="131" y="262"/>
	  <point x="124" y="268" type="curve"/>
	  <point x="116" y="274"/>
	  <point x="105" y="277"/>
	  <point x="91" y="277" type="curve"/>
	  <point x="81" y="290" type="line"/>
	  <point x="122" y="345" type="line"/>
	  <point x="101" y="345" type="line" smooth="yes"/>
	  <point x="85" y="345"/>
	  <point x="71" y="344"/>
	  <point x="60" y="341" type="curve"/>
	  <point x="60" y="370" type="line"/>
	  <point x="159" y="370" type="line"/>
	  <point x="163" y="348" type="line"/>
	  <point x="153" y="339"/>
	  <point x="144" y="330"/>
	  <point x="137" y="319" type="curve"/>
	  <point x="121" y="297" type="line"/>
	  <point x="130" y="296"/>
	  <point x="140" y="291"/>
	  <point x="150" y="284" type="curve" smooth="yes"/>
	  <point x="163" y="275"/>
	  <point x="170" y="260"/>
	  <point x="170" y="240" type="curve" smooth="yes"/>
	  <point x="170" y="223"/>
	  <point x="163" y="208"/>
	  <point x="149" y="196" type="curve"/>
	  <point x="138" y="185"/>
	  <point x="120" y="179"/>
	  <point x="97" y="179" type="curve" smooth="yes"/>
	  <point x="79" y="179"/>
	  <point x="63" y="186"/>
	  <point x="48" y="199" type="curve"/>
	</contour>
  </outline>
</glyph>
<glyph name="Aring" format="1">
  <advance width="385"/>
  <unicode hex="00C5"/>
  <outline>
	<contour>
	  <point x="198" y="400"/>
	  <point x="204" y="402"/>
	  <point x="209" y="407" type="curve" smooth="yes"/>
	  <point x="214" y="412"/>
	  <point x="216" y="418"/>
	  <point x="216" y="425" type="curve" smooth="yes"/>
	  <point x="216" y="432"/>
	  <point x="214" y="438"/>
	  <point x="209" y="442" type="curve"/>
	  <point x="204" y="447"/>
	  <point x="199" y="450"/>
	  <point x="192" y="450" type="curve" smooth="yes"/>
	  <point x="185" y="450"/>
	  <point x="179" y="447"/>
	  <point x="175" y="442" type="curve"/>
	  <point x="170" y="438"/>
	  <point x="167" y="432"/>
	  <point x="167" y="425" type="curve" smooth="yes"/>
	  <point x="167" y="418"/>
	  <point x="170" y="412"/>
	  <point x="175" y="407" type="curve" smooth="yes"/>
	  <point x="180" y="402"/>
	  <point x="185" y="400"/>
	  <point x="192" y="400" type="curve" smooth="yes"/>
	</contour>
	<contour>
	  <point x="205" y="475"/>
	  <point x="216" y="470"/>
	  <point x="226" y="460" type="curve" smooth="yes"/>
	  <point x="235" y="451"/>
	  <point x="240" y="439"/>
	  <point x="240" y="425" type="curve" smooth="yes"/>
	  <point x="240" y="411"/>
	  <point x="235" y="400"/>
	  <point x="226" y="391" type="curve" smooth="yes"/>
	  <point x="216" y="381"/>
	  <point x="205" y="376"/>
	  <point x="192" y="376" type="curve" smooth="yes"/>
	  <point x="179" y="376"/>
	  <point x="167" y="381"/>
	  <point x="157" y="391" type="curve" smooth="yes"/>
	  <point x="148" y="400"/>
	  <point x="144" y="412"/>
	  <point x="144" y="425" type="curve" smooth="yes"/>
	  <point x="144" y="439"/>
	  <point x="148" y="451"/>
	  <point x="157" y="460" type="curve" smooth="yes"/>
	  <point x="167" y="470"/>
	  <point x="179" y="475"/>
	  <point x="192" y="475" type="curve" smooth="yes"/>
	</contour>
	<contour>
	  <point x="0" y="0" type="line"/>
	  <point x="8" y="11"/>
	  <point x="15" y="21"/>
	  <point x="21" y="32" type="curve"/>
	  <point x="27" y="42"/>
	  <point x="32" y="52"/>
	  <point x="37" y="63" type="curve" smooth="yes"/>
	  <point x="146" y="298" type="line" smooth="yes"/>
	  <point x="151" y="308"/>
	  <point x="155" y="319"/>
	  <point x="159" y="331" type="curve" smooth="yes"/>
	  <point x="163" y="342"/>
	  <point x="167" y="354"/>
	  <point x="170" y="367" type="curve"/>
	  <point x="214" y="367" type="line"/>
	  <point x="221" y="342"/>
	  <point x="229" y="319"/>
	  <point x="239" y="298" type="curve" smooth="yes"/>
	  <point x="347" y="63" type="line" smooth="yes"/>
	  <point x="356" y="43"/>
	  <point x="368" y="22"/>
	  <point x="385" y="0" type="curve"/>
	  <point x="316" y="0" type="line"/>
	  <point x="313" y="13"/>
	  <point x="309" y="25"/>
	  <point x="305" y="37" type="curve" smooth="yes"/>
	  <point x="301" y="49"/>
	  <point x="296" y="60"/>
	  <point x="291" y="70" type="curve" smooth="yes"/>
	  <point x="245" y="169" type="line"/>
	  <point x="123" y="169" type="line"/>
	  <point x="78" y="70" type="line" smooth="yes"/>
	  <point x="73" y="58"/>
	  <point x="69" y="46"/>
	  <point x="65" y="35" type="curve" smooth="yes"/>
	  <point x="61" y="24"/>
	  <point x="57" y="12"/>
	  <point x="54" y="0" type="curve"/>
	</contour>
	<contour>
	  <point x="136" y="197" type="line"/>
	  <point x="234" y="197" type="line"/>
	  <point x="184" y="309" type="line"/>
	</contour>
  </outline>
</glyph>
<glyph name="Ccedilla" format="1">
  <advance width="374"/>
  <unicode hex="00C7"/>
  <outline>
	<contour>
	  <point x="337" y="101" type="line"/>
	  <point x="337" y="50" type="line"/>
	  <point x="304" y="17"/>
	  <point x="265" y="-1"/>
	  <point x="222" y="-4" type="curve"/>
	  <point x="234" y="-20"/>
	  <point x="240" y="-37"/>
	  <point x="240" y="-55" type="curve" smooth="yes"/>
	  <point x="240" y="-88"/>
	  <point x="217" y="-105"/>
	  <point x="172" y="-105" type="curve"/>
	  <point x="172" y="-71" type="line"/>
	  <point x="193" y="-71"/>
	  <point x="204" y="-62"/>
	  <point x="204" y="-44" type="curve" smooth="yes"/>
	  <point x="204" y="-28"/>
	  <point x="200" y="-15"/>
	  <point x="191" y="-4" type="curve"/>
	  <point x="146" y="0"/>
	  <point x="109" y="18"/>
	  <point x="78" y="50" type="curve" smooth="yes"/>
	  <point x="43" y="87"/>
	  <point x="25" y="131"/>
	  <point x="25" y="183" type="curve" smooth="yes"/>
	  <point x="25" y="236"/>
	  <point x="43" y="280"/>
	  <point x="78" y="317" type="curve" smooth="yes"/>
	  <point x="113" y="354"/>
	  <point x="157" y="372"/>
	  <point x="208" y="372" type="curve" smooth="yes"/>
	  <point x="251" y="372"/>
	  <point x="288" y="359"/>
	  <point x="318" y="334" type="curve"/>
	  <point x="318" y="270" type="line"/>
	  <point x="316" y="270" type="line"/>
	  <point x="314" y="273"/>
	  <point x="312" y="277"/>
	  <point x="310" y="281" type="curve"/>
	  <point x="307" y="284"/>
	  <point x="305" y="288"/>
	  <point x="302" y="291" type="curve"/>
	  <point x="277" y="325"/>
	  <point x="245" y="342"/>
	  <point x="208" y="342" type="curve" smooth="yes"/>
	  <point x="169" y="342"/>
	  <point x="137" y="325"/>
	  <point x="112" y="291" type="curve" smooth="yes"/>
	  <point x="89" y="260"/>
	  <point x="78" y="224"/>
	  <point x="78" y="183" type="curve" smooth="yes"/>
	  <point x="78" y="142"/>
	  <point x="89" y="107"/>
	  <point x="112" y="76" type="curve" smooth="yes"/>
	  <point x="138" y="43"/>
	  <point x="170" y="26"/>
	  <point x="208" y="26" type="curve" smooth="yes"/>
	  <point x="257" y="26"/>
	  <point x="299" y="51"/>
	  <point x="334" y="101" type="curve"/>
	</contour>
  </outline>
</glyph>
<glyph name="Ntilde" format="1">
  <advance width="381"/>
  <unicode hex="00D1"/>
  <outline>
	<contour>
	  <point x="123" y="454" type="line"/>
	  <point x="133" y="468"/>
	  <point x="145" y="475"/>
	  <point x="159" y="475" type="curve" smooth="yes"/>
	  <point x="171" y="475"/>
	  <point x="183" y="470"/>
	  <point x="195" y="460" type="curve"/>
	  <point x="216" y="444" type="line"/>
	  <point x="223" y="438"/>
	  <point x="230" y="435"/>
	  <point x="236" y="435" type="curve" smooth="yes"/>
	  <point x="250" y="435"/>
	  <point x="260" y="448"/>
	  <point x="267" y="475" type="curve"/>
	  <point x="269" y="475" type="line"/>
	  <point x="269" y="424" type="line"/>
	  <point x="258" y="411"/>
	  <point x="247" y="404"/>
	  <point x="234" y="404" type="curve" smooth="yes"/>
	  <point x="220" y="404"/>
	  <point x="207" y="409"/>
	  <point x="196" y="418" type="curve" smooth="yes"/>
	  <point x="176" y="435" type="line" smooth="yes"/>
	  <point x="170" y="440"/>
	  <point x="163" y="442"/>
	  <point x="156" y="442" type="curve" smooth="yes"/>
	  <point x="141" y="442"/>
	  <point x="130" y="429"/>
	  <point x="125" y="404" type="curve"/>
	  <point x="123" y="404" type="line"/>
	</contour>
	<contour>
	  <point x="42" y="0" type="line"/>
	  <point x="46" y="24"/>
	  <point x="48" y="48"/>
	  <point x="48" y="73" type="curve" smooth="yes"/>
	  <point x="48" y="295" type="line" smooth="yes"/>
	  <point x="48" y="318"/>
	  <point x="46" y="342"/>
	  <point x="42" y="367" type="curve"/>
	  <point x="92" y="367" type="line"/>
	  <point x="98" y="355"/>
	  <point x="104" y="344"/>
	  <point x="111" y="334" type="curve"/>
	  <point x="117" y="323"/>
	  <point x="124" y="313"/>
	  <point x="131" y="304" type="curve" smooth="yes"/>
	  <point x="299" y="80" type="line"/>
	  <point x="299" y="295" type="line" smooth="yes"/>
	  <point x="299" y="307"/>
	  <point x="299" y="319"/>
	  <point x="298" y="331" type="curve" smooth="yes"/>
	  <point x="297" y="343"/>
	  <point x="294" y="355"/>
	  <point x="291" y="367" type="curve"/>
	  <point x="341" y="367" type="line"/>
	  <point x="338" y="355"/>
	  <point x="336" y="343"/>
	  <point x="335" y="331" type="curve" smooth="yes"/>
	  <point x="334" y="319"/>
	  <point x="333" y="307"/>
	  <point x="333" y="295" type="curve" smooth="yes"/>
	  <point x="333" y="73" type="line" smooth="yes"/>
	  <point x="333" y="47"/>
	  <point x="336" y="23"/>
	  <point x="341" y="0" type="curve"/>
	  <point x="290" y="0" type="line"/>
	  <point x="277" y="25"/>
	  <point x="264" y="46"/>
	  <point x="252" y="63" type="curve" smooth="yes"/>
	  <point x="84" y="290" type="line"/>
	  <point x="84" y="73" type="line" smooth="yes"/>
	  <point x="84" y="48"/>
	  <point x="86" y="24"/>
	  <point x="90" y="0" type="curve"/>
	</contour>
  </outline>
</glyph>
<glyph name="multiply" format="1">
  <advance width="336"/>
  <unicode hex="00D7"/>
  <outline>
	<contour>
	  <point x="10" y="0" type="line"/>
	  <point x="19" y="9"/>
	  <point x="28" y="18"/>
	  <point x="36" y="27" type="curve"/>
	  <point x="43" y="36"/>
	  <point x="51" y="46"/>
	  <point x="58" y="56" type="curve" smooth="yes"/>
	  <point x="145" y="178" type="line"/>
	  <point x="56" y="310" type="line" smooth="yes"/>
	  <point x="49" y="321"/>
	  <point x="41" y="331"/>
	  <point x="33" y="341" type="curve"/>
	  <point x="25" y="350"/>
	  <point x="17" y="359"/>
	  <point x="10" y="367" type="curve"/>
	  <point x="84" y="367" type="line"/>
	  <point x="88" y="355"/>
	  <point x="93" y="344"/>
	  <point x="99" y="333" type="curve"/>
	  <point x="104" y="322"/>
	  <point x="110" y="312"/>
	  <point x="117" y="302" type="curve" smooth="yes"/>
	  <point x="174" y="219" type="line"/>
	  <point x="234" y="303" type="line" smooth="yes"/>
	  <point x="247" y="322"/>
	  <point x="259" y="343"/>
	  <point x="270" y="367" type="curve"/>
	  <point x="327" y="367" type="line"/>
	  <point x="309" y="350"/>
	  <point x="293" y="331"/>
	  <point x="279" y="312" type="curve" smooth="yes"/>
	  <point x="192" y="190" type="line"/>
	  <point x="281" y="57" type="line" smooth="yes"/>
	  <point x="288" y="46"/>
	  <point x="295" y="36"/>
	  <point x="303" y="27" type="curve" smooth="yes"/>
	  <point x="311" y="18"/>
	  <point x="319" y="9"/>
	  <point x="327" y="0" type="curve"/>
	  <point x="253" y="0" type="line"/>
	  <point x="248" y="12"/>
	  <point x="243" y="23"/>
	  <point x="238" y="34" type="curve"/>
	  <point x="232" y="45"/>
	  <point x="226" y="55"/>
	  <point x="220" y="65" type="curve"/>
	  <point x="163" y="149" type="line"/>
	  <point x="103" y="64" type="line"/>
	  <point x="88" y="45"/>
	  <point x="76" y="23"/>
	  <point x="66" y="0" type="curve"/>
	</contour>
  </outline>
</glyph>
<glyph name="divide" format="1">
  <advance width="317"/>
  <unicode hex="00F7"/>
  <outline>
	<contour>
	  <point x="274" y="157" type="line"/>
	  <point x="16" y="157" type="line"/>
	  <point x="26" y="224" type="line"/>
	  <point x="285" y="224" type="line"/>
	</contour>
	<contour>
	  <point x="179" y="57"/>
	  <point x="173" y="43"/>
	  <point x="162" y="34" type="curve" smooth="yes"/>
	  <point x="151" y="25"/>
	  <point x="139" y="20"/>
	  <point x="126" y="20" type="curve" smooth="yes"/>
	  <point x="113" y="20"/>
	  <point x="103" y="25"/>
	  <point x="96" y="34" type="curve"/>
	  <point x="88" y="43"/>
	  <point x="85" y="57"/>
	  <point x="87" y="74" type="curve" smooth="yes"/>
	  <point x="89" y="89"/>
	  <point x="95" y="101"/>
	  <point x="106" y="111" type="curve"/>
	  <point x="117" y="120"/>
	  <point x="128" y="125"/>
	  <point x="141" y="125" type="curve" smooth="yes"/>
	  <point x="154" y="125"/>
	  <point x="165" y="120"/>
	  <point x="173" y="111" type="curve"/>
	  <point x="180" y="101"/>
	  <point x="183" y="89"/>
	  <point x="181" y="74" type="curve" smooth="yes"/>
	</contour>
	<contour>
	  <point x="214" y="314"/>
	  <point x="208" y="302"/>
	  <point x="197" y="293" type="curve" smooth="yes"/>
	  <point x="186" y="284"/>
	  <point x="175" y="279"/>
	  <point x="163" y="279" type="curve" smooth="yes"/>
	  <point x="149" y="279"/>
	  <point x="138" y="284"/>
	  <point x="131" y="293" type="curve" smooth="yes"/>
	  <point x="124" y="302"/>
	  <point x="121" y="314"/>
	  <point x="124" y="331" type="curve"/>
	  <point x="126" y="347"/>
	  <point x="132" y="360"/>
	  <point x="142" y="370" type="curve"/>
	  <point x="152" y="379"/>
	  <point x="164" y="384"/>
	  <point x="177" y="384" type="curve" smooth="yes"/>
	  <point x="190" y="384"/>
	  <point x="200" y="379"/>
	  <point x="208" y="370" type="curve"/>
	  <point x="216" y="360"/>
	  <point x="219" y="347"/>
	  <point x="216" y="331" type="curve"/>
	</contour>
  </outline>
</glyph>
<glyph name="uni0950" format="1">
  <advance width="619"/>
  <unicode hex="0950"/>
  <outline>
	<contour>
	  <point x="318" y="570" type="line"/>
	  <point x="357" y="530" type="line"/>
	  <point x="318" y="493" type="line"/>
	  <point x="280" y="534" type="line"/>
	</contour>
	<contour>
	  <point x="228" y="510" type="line"/>
	  <point x="250" y="480"/>
	  <point x="278" y="465"/>
	  <point x="311" y="465" type="curve" smooth="yes"/>
	  <point x="342" y="465"/>
	  <point x="368" y="480"/>
	  <point x="389" y="510" type="curve"/>
	  <point x="439" y="468" type="line"/>
	  <point x="407" y="433"/>
	  <point x="374" y="415"/>
	  <point x="339" y="415" type="curve" smooth="yes"/>
	  <point x="289" y="415"/>
	  <point x="246" y="442"/>
	  <point x="210" y="497" type="curve"/>
	</contour>
	<contour>
	  <point x="419" y="303"/>
	  <point x="426" y="286"/>
	  <point x="426" y="261" type="curve" smooth="yes"/>
	  <point x="426" y="219" type="line"/>
	  <point x="426" y="195" type="line" smooth="yes"/>
	  <point x="426" y="150"/>
	  <point x="440" y="127"/>
	  <point x="468" y="127" type="curve" smooth="yes"/>
	  <point x="491" y="127"/>
	  <point x="510" y="138"/>
	  <point x="526" y="160" type="curve" smooth="yes"/>
	  <point x="542" y="182"/>
	  <point x="550" y="210"/>
	  <point x="550" y="243" type="curve" smooth="yes"/>
	  <point x="550" y="275"/>
	  <point x="543" y="301"/>
	  <point x="529" y="321" type="curve" smooth="yes"/>
	  <point x="514" y="341"/>
	  <point x="496" y="351"/>
	  <point x="474" y="351" type="curve" smooth="yes"/>
	  <point x="444" y="351"/>
	  <point x="421" y="337"/>
	  <point x="406" y="310" type="curve"/>
	</contour>
	<contour>
	  <point x="47" y="269" type="line"/>
	  <point x="53" y="236"/>
	  <point x="62" y="206"/>
	  <point x="73" y="179" type="curve" smooth="yes"/>
	  <point x="84" y="152"/>
	  <point x="97" y="128"/>
	  <point x="114" y="107" type="curve" smooth="yes"/>
	  <point x="147" y="66"/>
	  <point x="186" y="45"/>
	  <point x="229" y="45" type="curve" smooth="yes"/>
	  <point x="253" y="45"/>
	  <point x="273" y="53"/>
	  <point x="289" y="70" type="curve" smooth="yes"/>
	  <point x="305" y="87"/>
	  <point x="313" y="107"/>
	  <point x="313" y="132" type="curve" smooth="yes"/>
	  <point x="313" y="175"/>
	  <point x="295" y="215"/>
	  <point x="259" y="253" type="curve"/>
	  <point x="239" y="226"/>
	  <point x="217" y="207"/>
	  <point x="193" y="196" type="curve"/>
	  <point x="167" y="257" type="line"/>
	  <point x="225" y="274"/>
	  <point x="254" y="302"/>
	  <point x="254" y="340" type="curve" smooth="yes"/>
	  <point x="254" y="368"/>
	  <point x="236" y="382"/>
	  <point x="201" y="382" type="curve" smooth="yes"/>
	  <point x="175" y="382"/>
	  <point x="148" y="375"/>
	  <point x="119" y="360" type="curve"/>
	  <point x="94" y="421" type="line"/>
	  <point x="120" y="432"/>
	  <point x="145" y="438"/>
	  <point x="168" y="438" type="curve" smooth="yes"/>
	  <point x="202" y="438"/>
	  <point x="229" y="427"/>
	  <point x="250" y="406" type="curve" smooth="yes"/>
	  <point x="271" y="385"/>
	  <point x="281" y="356"/>
	  <point x="281" y="321" type="curve" smooth="yes"/>
	  <point x="281" y="309"/>
	  <point x="278" y="295"/>
	  <point x="272" y="280" type="curve"/>
	  <point x="283" y="269" type="line"/>
	  <point x="315" y="301"/>
	  <point x="346" y="317"/>
	  <point x="377" y="317" type="curve" smooth="yes"/>
	  <point x="378" y="317"/>
	  <point x="380" y="317"/>
	  <point x="382" y="317" type="curve" smooth="yes"/>
	  <point x="384" y="317"/>
	  <point x="386" y="316"/>
	  <point x="389" y="315" type="curve"/>
	  <point x="400" y="376"/>
	  <point x="430" y="406"/>
	  <point x="480" y="406" type="curve" smooth="yes"/>
	  <point x="544" y="406"/>
	  <point x="576" y="353"/>
	  <point x="576" y="247" type="curve" smooth="yes"/>
	  <point x="576" y="193"/>
	  <point x="566" y="151"/>
	  <point x="547" y="120" type="curve" smooth="yes"/>
	  <point x="527" y="89"/>
	  <point x="500" y="73"/>
	  <point x="465" y="73" type="curve" smooth="yes"/>
	  <point x="442" y="73"/>
	  <point x="425" y="81"/>
	  <point x="415" y="96" type="curve"/>
	  <point x="404" y="111"/>
	  <point x="399" y="137"/>
	  <point x="399" y="174" type="curve" smooth="yes"/>
	  <point x="399" y="201" type="line" smooth="yes"/>
	  <point x="399" y="234"/>
	  <point x="390" y="251"/>
	  <point x="372" y="251" type="curve" smooth="yes"/>
	  <point x="356" y="251"/>
	  <point x="337" y="243"/>
	  <point x="315" y="227" type="curve"/>
	  <point x="346" y="185"/>
	  <point x="362" y="144"/>
	  <point x="362" y="104" type="curve" smooth="yes"/>
	  <point x="362" y="71"/>
	  <point x="352" y="44"/>
	  <point x="331" y="25" type="curve" smooth="yes"/>
	  <point x="310" y="6"/>
	  <point x="281" y="-4"/>
	  <point x="246" y="-4" type="curve" smooth="yes"/>
	  <point x="191" y="-4"/>
	  <point x="142" y="21"/>
	  <point x="99" y="72" type="curve"/>
	  <point x="76" y="97"/>
	  <point x="60" y="125"/>
	  <point x="49" y="157" type="curve" smooth="yes"/>
	  <point x="38" y="189"/>
	  <point x="30" y="225"/>
	  <point x="27" y="264" type="curve"/>
	</contour>
  </outline>
</glyph>
<glyph name="uni0964" format="1">
  <advance width="84"/>
  <unicode hex="0964"/>
  <outline>
	<contour>
	  <point x="-1" y="354" type="line"/>
	  <point x="41" y="354" type="line"/>
	  <point x="41" y="51" type="line"/>
	  <point x="-1" y="51" type="line"/>
	</contour>
  </outline>
</glyph>
<glyph name="uni0965" format="1">
  <advance width="183"/>
  <unicode hex="0965"/>
  <outline>
	<contour>
	  <point x="99" y="354" type="line"/>
	  <point x="140" y="354" type="line"/>
	  <point x="140" y="51" type="line"/>
	  <point x="99" y="51" type="line"/>
	</contour>
	<contour>
	  <point x="-1" y="354" type="line"/>
	  <point x="41" y="354" type="line"/>
	  <point x="41" y="51" type="line"/>
	  <point x="-1" y="51" type="line"/>
	</contour>
  </outline>
</glyph>
<glyph name="U0C01" format="1">
  <advance width="294"/>
  <unicode hex="0C01"/>
  <outline>
	<contour>
	  <point x="219" y="303"/>
	  <point x="206" y="308"/>
	  <point x="192" y="311" type="curve"/>
	  <point x="178" y="313"/>
	  <point x="165" y="312"/>
	  <point x="152" y="309" type="curve" smooth="yes"/>
	  <point x="139" y="306"/>
	  <point x="126" y="300"/>
	  <point x="114" y="293" type="curve"/>
	  <point x="102" y="285"/>
	  <point x="92" y="276"/>
	  <point x="85" y="265" type="curve"/>
	  <point x="66" y="239"/>
	  <point x="57" y="208"/>
	  <point x="57" y="172" type="curve" smooth="yes"/>
	  <point x="57" y="138"/>
	  <point x="67" y="108"/>
	  <point x="86" y="81" type="curve" smooth="yes"/>
	  <point x="100" y="60"/>
	  <point x="119" y="47"/>
	  <point x="144" y="41" type="curve" smooth="yes"/>
	  <point x="168" y="35"/>
	  <point x="194" y="38"/>
	  <point x="221" y="50" type="curve"/>
	  <point x="226" y="53"/>
	  <point x="232" y="54"/>
	  <point x="238" y="53" type="curve"/>
	  <point x="243" y="51"/>
	  <point x="246" y="46"/>
	  <point x="246" y="37" type="curve" smooth="yes"/>
	  <point x="246" y="30"/>
	  <point x="239" y="22"/>
	  <point x="225" y="15" type="curve" smooth="yes"/>
	  <point x="211" y="8"/>
	  <point x="194" y="3"/>
	  <point x="173" y="2" type="curve"/>
	  <point x="152" y="0"/>
	  <point x="129" y="2"/>
	  <point x="106" y="9" type="curve" smooth="yes"/>
	  <point x="83" y="16"/>
	  <point x="62" y="29"/>
	  <point x="44" y="50" type="curve"/>
	  <point x="15" y="81"/>
	  <point x="1" y="120"/>
	  <point x="1" y="166" type="curve" smooth="yes"/>
	  <point x="1" y="216"/>
	  <point x="15" y="258"/>
	  <point x="42" y="291" type="curve" smooth="yes"/>
	  <point x="61" y="314"/>
	  <point x="82" y="329"/>
	  <point x="105" y="337" type="curve" smooth="yes"/>
	  <point x="127" y="345"/>
	  <point x="148" y="349"/>
	  <point x="169" y="348" type="curve" smooth="yes"/>
	  <point x="189" y="347"/>
	  <point x="207" y="342"/>
	  <point x="222" y="334" type="curve" smooth="yes"/>
	  <point x="237" y="326"/>
	  <point x="246" y="318"/>
	  <point x="249" y="309" type="curve"/>
	  <point x="250" y="303"/>
	  <point x="249" y="299"/>
	  <point x="245" y="296" type="curve" smooth="yes"/>
	  <point x="241" y="293"/>
	  <point x="236" y="293"/>
	  <point x="230" y="296" type="curve"/>
	</contour>
  </outline>
</glyph>
<glyph name="U0C02" format="1">
  <advance width="358"/>
  <unicode hex="0C02"/>
  <outline>
	<contour>
	  <point x="132" y="0"/>
	  <point x="112" y="5"/>
	  <point x="93" y="14" type="curve" smooth="yes"/>
	  <point x="74" y="23"/>
	  <point x="58" y="36"/>
	  <point x="45" y="52" type="curve"/>
	  <point x="31" y="67"/>
	  <point x="20" y="85"/>
	  <point x="13" y="105" type="curve"/>
	  <point x="5" y="125"/>
	  <point x="1" y="146"/>
	  <point x="1" y="167" type="curve" smooth="yes"/>
	  <point x="1" y="218"/>
	  <point x="16" y="258"/>
	  <point x="45" y="288" type="curve" smooth="yes"/>
	  <point x="75" y="320"/>
	  <point x="114" y="336"/>
	  <point x="162" y="336" type="curve" smooth="yes"/>
	  <point x="208" y="336"/>
	  <point x="246" y="319"/>
	  <point x="275" y="284" type="curve" smooth="yes"/>
	  <point x="302" y="251"/>
	  <point x="315" y="211"/>
	  <point x="315" y="162" type="curve" smooth="yes"/>
	  <point x="315" y="113"/>
	  <point x="301" y="73"/>
	  <point x="272" y="44" type="curve" smooth="yes"/>
	  <point x="243" y="15"/>
	  <point x="204" y="0"/>
	  <point x="155" y="0" type="curve" smooth="yes"/>
	</contour>
	<contour>
	  <point x="119" y="304"/>
	  <point x="90" y="293"/>
	  <point x="67" y="271" type="curve" smooth="yes"/>
	  <point x="44" y="249"/>
	  <point x="33" y="219"/>
	  <point x="33" y="180" type="curve" smooth="yes"/>
	  <point x="33" y="163"/>
	  <point x="36" y="146"/>
	  <point x="42" y="131" type="curve" smooth="yes"/>
	  <point x="48" y="115"/>
	  <point x="57" y="101"/>
	  <point x="68" y="90" type="curve"/>
	  <point x="79" y="78"/>
	  <point x="92" y="69"/>
	  <point x="107" y="62" type="curve" smooth="yes"/>
	  <point x="122" y="55"/>
	  <point x="138" y="51"/>
	  <point x="155" y="51" type="curve" smooth="yes"/>
	  <point x="173" y="51"/>
	  <point x="190" y="54"/>
	  <point x="205" y="61" type="curve" smooth="yes"/>
	  <point x="220" y="68"/>
	  <point x="234" y="77"/>
	  <point x="245" y="88" type="curve" smooth="yes"/>
	  <point x="256" y="99"/>
	  <point x="265" y="113"/>
	  <point x="272" y="128" type="curve" smooth="yes"/>
	  <point x="279" y="143"/>
	  <point x="282" y="160"/>
	  <point x="282" y="178" type="curve" smooth="yes"/>
	  <point x="282" y="218"/>
	  <point x="271" y="249"/>
	  <point x="248" y="271" type="curve" smooth="yes"/>
	  <point x="225" y="293"/>
	  <point x="195" y="304"/>
	  <point x="156" y="304" type="curve" smooth="yes"/>
	</contour>
  </outline>
</glyph>
